<?xml version="1.0" encoding="UTF-8" standalone="no"?>
<!DOCTYPE svg PUBLIC "-//W3C//DTD SVG 1.1//EN"
 "http://www.w3.org/Graphics/SVG/1.1/DTD/svg11.dtd">
<!-- Generated by graphviz version 2.43.0 (0)
 -->
<!-- Title: G Pages: 1 -->
<svg width="850pt" height="387pt"
 viewBox="0.00 0.00 850.00 387.00" xmlns="http://www.w3.org/2000/svg" xmlns:xlink="http://www.w3.org/1999/xlink">
<g id="graph0" class="graph" transform="scale(1 1) rotate(0) translate(4 383)">
<title>G</title>
<polygon fill="white" stroke="transparent" points="-4,4 -4,-383 846,-383 846,4 -4,4"/>
<g id="clust1" class="cluster">
<title>cluster_0</title>
<polygon fill="none" stroke="red" points="8,-296 8,-371 141,-371 141,-296 8,-296"/>
<text text-anchor="middle" x="74.5" y="-355.8" font-family="Times,serif" font-size="14.00">Cola de Clientes</text>
</g>
<g id="clust2" class="cluster">
<title>cluster_1</title>
<polygon fill="none" stroke="blue" points="149,-224 149,-371 269,-371 269,-224 149,-224"/>
<text text-anchor="middle" x="209" y="-355.8" font-family="Times,serif" font-size="14.00">Ventanillas</text>
</g>
<g id="clust3" class="cluster">
<title>cluster_2</title>
<polygon fill="none" stroke="green" points="277,-296 277,-371 421,-371 421,-296 277,-296"/>
<text text-anchor="middle" x="349" y="-355.8" font-family="Times,serif" font-size="14.00">Lista de espera</text>
</g>
<g id="clust5" class="cluster">
<title>cluster_3</title>
<polygon fill="none" stroke="purple" points="429,-8 429,-371 675,-371 675,-8 429,-8"/>
<text text-anchor="middle" x="552" y="-355.8" font-family="Times,serif" font-size="14.00">Impresoras</text>
</g>
<g id="clust6" class="cluster">
<title>cluster_4</title>
<polygon fill="none" stroke="red" points="683,-296 683,-371 834,-371 834,-296 683,-296"/>
<text text-anchor="middle" x="758.5" y="-355.8" font-family="Times,serif" font-size="14.00">Clientes Atendidos</text>
</g>
<!-- No_clients -->
<g id="node1" class="node">
<title>No_clients</title>
<polygon fill="lightgrey" stroke="black" points="119.5,-340 28.5,-340 28.5,-304 119.5,-304 119.5,-340"/>
<text text-anchor="middle" x="74" y="-318.3" font-family="Times,serif" font-size="14.00">No_clients</text>
</g>
<!-- ventanilla_2 -->
<g id="node2" class="node">
<title>ventanilla_2</title>
<polygon fill="lightgrey" stroke="black" points="260.5,-340 157.5,-340 157.5,-304 260.5,-304 260.5,-340"/>
<text text-anchor="middle" x="209" y="-318.3" font-family="Times,serif" font-size="14.00">ventanilla_2</text>
</g>
<!-- ventanilla_1 -->
<g id="node3" class="node">
<title>ventanilla_1</title>
<polygon fill="lightgrey" stroke="black" points="260.5,-268 157.5,-268 157.5,-232 260.5,-232 260.5,-268"/>
<text text-anchor="middle" x="209" y="-246.3" font-family="Times,serif" font-size="14.00">ventanilla_1</text>
</g>
<!-- ventanilla_2&#45;&gt;ventanilla_1 -->
<g id="edge1" class="edge">
<title>ventanilla_2&#45;&gt;ventanilla_1</title>
<path fill="none" stroke="black" d="M209,-303.7C209,-295.98 209,-286.71 209,-278.11"/>
<polygon fill="black" stroke="black" points="212.5,-278.1 209,-268.1 205.5,-278.1 212.5,-278.1"/>
</g>
<!-- client_1 -->
<g id="node4" class="node">
<title>client_1</title>
<polygon fill="lightgrey" stroke="black" points="413,-340 357,-340 357,-304 413,-304 413,-340"/>
<text text-anchor="middle" x="385" y="-318.3" font-family="Times,serif" font-size="14.00">Pablo</text>
</g>
<!-- client_2 -->
<g id="node5" class="node">
<title>client_2</title>
<polygon fill="lightgrey" stroke="black" points="339,-340 285,-340 285,-304 339,-304 339,-340"/>
<text text-anchor="middle" x="312" y="-318.3" font-family="Times,serif" font-size="14.00">Mark</text>
</g>
<!-- client_1&#45;&gt;client_2 -->
<g id="edge2" class="edge">
<title>client_1&#45;&gt;client_2</title>
<path fill="none" stroke="black" d="M356.66,-309.18C354.19,-308.77 351.72,-308.54 349.25,-308.51"/>
<polygon fill="black" stroke="black" points="348.75,-305.04 339.09,-309.4 349.36,-312.01 348.75,-305.04"/>
</g>
<!-- client_2&#45;&gt;client_1 -->
<g id="edge3" class="edge">
<title>client_2&#45;&gt;client_1</title>
<path fill="none" stroke="black" d="M339.09,-334.6C341.56,-335.07 344.03,-335.36 346.5,-335.46"/>
<polygon fill="black" stroke="black" points="346.9,-338.94 356.66,-334.82 346.47,-331.96 346.9,-338.94"/>
</g>
<!-- p_impresora -->
<g id="node6" class="node">
<title>p_impresora</title>
<polygon fill="lightgrey" stroke="black" points="666.5,-340 561.5,-340 561.5,-304 666.5,-304 666.5,-340"/>
<text text-anchor="middle" x="614" y="-318.3" font-family="Times,serif" font-size="14.00">p_impresora</text>
</g>
<!-- G_impresora -->
<g id="node7" class="node">
<title>G_impresora</title>
<polygon fill="lightgrey" stroke="black" points="543.5,-340 436.5,-340 436.5,-304 543.5,-304 543.5,-340"/>
<text text-anchor="middle" x="490" y="-318.3" font-family="Times,serif" font-size="14.00">G_impresora</text>
</g>
<!-- img_3 -->
<g id="node8" class="node">
<title>img_3</title>
<polygon fill="lightgrey" stroke="black" points="519.5,-268 460.5,-268 460.5,-232 519.5,-232 519.5,-268"/>
<text text-anchor="middle" x="490" y="-246.3" font-family="Times,serif" font-size="14.00">img_3</text>
</g>
<!-- G_impresora&#45;&gt;img_3 -->
<g id="edge4" class="edge">
<title>G_impresora&#45;&gt;img_3</title>
<path fill="none" stroke="black" d="M490,-303.7C490,-295.98 490,-286.71 490,-278.11"/>
<polygon fill="black" stroke="black" points="493.5,-278.1 490,-268.1 486.5,-278.1 493.5,-278.1"/>
</g>
<!-- img_7 -->
<g id="node9" class="node">
<title>img_7</title>
<polygon fill="lightgrey" stroke="black" points="519.5,-196 460.5,-196 460.5,-160 519.5,-160 519.5,-196"/>
<text text-anchor="middle" x="490" y="-174.3" font-family="Times,serif" font-size="14.00">img_7</text>
</g>
<!-- img_3&#45;&gt;img_7 -->
<g id="edge5" class="edge">
<title>img_3&#45;&gt;img_7</title>
<path fill="none" stroke="black" d="M490,-231.7C490,-223.98 490,-214.71 490,-206.11"/>
<polygon fill="black" stroke="black" points="493.5,-206.1 490,-196.1 486.5,-206.1 493.5,-206.1"/>
</g>
<!-- img_8 -->
<g id="node10" class="node">
<title>img_8</title>
<polygon fill="lightgrey" stroke="black" points="519.5,-124 460.5,-124 460.5,-88 519.5,-88 519.5,-124"/>
<text text-anchor="middle" x="490" y="-102.3" font-family="Times,serif" font-size="14.00">img_8</text>
</g>
<!-- img_7&#45;&gt;img_8 -->
<g id="edge6" class="edge">
<title>img_7&#45;&gt;img_8</title>
<path fill="none" stroke="black" d="M490,-159.7C490,-151.98 490,-142.71 490,-134.11"/>
<polygon fill="black" stroke="black" points="493.5,-134.1 490,-124.1 486.5,-134.1 493.5,-134.1"/>
</g>
<!-- img_9 -->
<g id="node11" class="node">
<title>img_9</title>
<polygon fill="lightgrey" stroke="black" points="519.5,-52 460.5,-52 460.5,-16 519.5,-16 519.5,-52"/>
<text text-anchor="middle" x="490" y="-30.3" font-family="Times,serif" font-size="14.00">img_9</text>
</g>
<!-- img_8&#45;&gt;img_9 -->
<g id="edge7" class="edge">
<title>img_8&#45;&gt;img_9</title>
<path fill="none" stroke="black" d="M490,-87.7C490,-79.98 490,-70.71 490,-62.11"/>
<polygon fill="black" stroke="black" points="493.5,-62.1 490,-52.1 486.5,-62.1 493.5,-62.1"/>
</g>
<!-- client_0 -->
<g id="node12" class="node">
<title>client_0</title>
<polygon fill="lightgrey" stroke="black" points="787,-340 729,-340 729,-304 787,-304 787,-340"/>
<text text-anchor="middle" x="758" y="-318.3" font-family="Times,serif" font-size="14.00">Diego</text>
</g>
</g>
</svg>
