<?xml version="1.0" encoding="UTF-8" standalone="no"?>
<!DOCTYPE svg PUBLIC "-//W3C//DTD SVG 1.1//EN"
 "http://www.w3.org/Graphics/SVG/1.1/DTD/svg11.dtd">
<!-- Generated by graphviz version 2.43.0 (0)
 -->
<!-- Title: G Pages: 1 -->
<svg width="513pt" height="195pt"
 viewBox="0.00 0.00 513.00 195.20" xmlns="http://www.w3.org/2000/svg" xmlns:xlink="http://www.w3.org/1999/xlink">
<g id="graph0" class="graph" transform="scale(1 1) rotate(0) translate(4 191.2)">
<title>G</title>
<polygon fill="white" stroke="transparent" points="-4,4 -4,-191.2 509,-191.2 509,4 -4,4"/>
<g id="clust1" class="cluster">
<title>cluster_0</title>
<polygon fill="none" stroke="red" points="8,-80 8,-155 141,-155 141,-80 8,-80"/>
<text text-anchor="middle" x="74.5" y="-139.8" font-family="Times,serif" font-size="14.00">Cola de Clientes</text>
</g>
<g id="clust2" class="cluster">
<title>cluster_1</title>
<polygon fill="none" stroke="blue" points="149,-8 149,-155 269,-155 269,-8 149,-8"/>
<text text-anchor="middle" x="209" y="-139.8" font-family="Times,serif" font-size="14.00">Ventanillas</text>
</g>
<g id="clust3" class="cluster">
<title>cluster_2</title>
<polygon fill="none" stroke="green" points="277,-80 277,-155 497,-155 497,-80 277,-80"/>
<text text-anchor="middle" x="387" y="-139.8" font-family="Times,serif" font-size="14.00">Ventanillas</text>
</g>
<!-- No_clients -->
<g id="node1" class="node">
<title>No_clients</title>
<polygon fill="lightgrey" stroke="black" points="119.5,-124 28.5,-124 28.5,-88 119.5,-88 119.5,-124"/>
<text text-anchor="middle" x="74" y="-102.3" font-family="Times,serif" font-size="14.00">No_clients</text>
</g>
<!-- ventanilla_2 -->
<g id="node2" class="node">
<title>ventanilla_2</title>
<polygon fill="lightgrey" stroke="black" points="260.5,-124 157.5,-124 157.5,-88 260.5,-88 260.5,-124"/>
<text text-anchor="middle" x="209" y="-102.3" font-family="Times,serif" font-size="14.00">ventanilla_2</text>
</g>
<!-- ventanilla_1 -->
<g id="node3" class="node">
<title>ventanilla_1</title>
<polygon fill="lightgrey" stroke="black" points="260.5,-52 157.5,-52 157.5,-16 260.5,-16 260.5,-52"/>
<text text-anchor="middle" x="209" y="-30.3" font-family="Times,serif" font-size="14.00">ventanilla_1</text>
</g>
<!-- ventanilla_2&#45;&gt;ventanilla_1 -->
<g id="edge1" class="edge">
<title>ventanilla_2&#45;&gt;ventanilla_1</title>
<path fill="none" stroke="black" d="M209,-87.7C209,-79.98 209,-70.71 209,-62.11"/>
<polygon fill="black" stroke="black" points="212.5,-62.1 209,-52.1 205.5,-62.1 212.5,-62.1"/>
</g>
<!-- client_0 -->
<g id="node4" class="node">
<title>client_0</title>
<polygon fill="lightgrey" stroke="black" points="415,-124 357,-124 357,-88 415,-88 415,-124"/>
<text text-anchor="middle" x="386" y="-102.3" font-family="Times,serif" font-size="14.00">Diego</text>
</g>
<!-- client_1 -->
<g id="node5" class="node">
<title>client_1</title>
<polygon fill="lightgrey" stroke="black" points="489,-124 433,-124 433,-88 489,-88 489,-124"/>
<text text-anchor="middle" x="461" y="-102.3" font-family="Times,serif" font-size="14.00">Pablo</text>
</g>
<!-- client_0&#45;&gt;client_1 -->
<g id="edge2" class="edge">
<title>client_0&#45;&gt;client_1</title>
<path fill="none" stroke="black" d="M415,-93.19C417.62,-92.77 420.24,-92.54 422.86,-92.5"/>
<polygon fill="black" stroke="black" points="422.71,-96 432.97,-93.36 423.3,-89.03 422.71,-96"/>
</g>
<!-- client_2 -->
<g id="node6" class="node">
<title>client_2</title>
<polygon fill="lightgrey" stroke="black" points="339,-124 285,-124 285,-88 339,-88 339,-124"/>
<text text-anchor="middle" x="312" y="-102.3" font-family="Times,serif" font-size="14.00">Mark</text>
</g>
<!-- client_0&#45;&gt;client_2 -->
<g id="edge3" class="edge">
<title>client_0&#45;&gt;client_2</title>
<path fill="none" stroke="black" d="M356.73,-93.09C354.26,-92.71 351.79,-92.52 349.32,-92.5"/>
<polygon fill="black" stroke="black" points="348.8,-89.03 339.17,-93.45 349.45,-96 348.8,-89.03"/>
</g>
<!-- client_1&#45;&gt;client_0 -->
<g id="edge5" class="edge">
<title>client_1&#45;&gt;client_0</title>
<path fill="none" stroke="black" d="M432.97,-118.64C430.35,-119.12 427.73,-119.39 425.11,-119.48"/>
<polygon fill="black" stroke="black" points="425.21,-115.97 415,-118.81 424.75,-122.96 425.21,-115.97"/>
</g>
<!-- client_1&#45;&gt;client_2 -->
<g id="edge4" class="edge">
<title>client_1&#45;&gt;client_2</title>
<path fill="none" stroke="black" d="M453.86,-124.11C447.05,-138.65 435.25,-158.05 418,-167 392.75,-180.09 379.18,-180.23 354,-167 340.4,-159.85 330.34,-146.08 323.48,-133.43"/>
<polygon fill="black" stroke="black" points="326.44,-131.5 318.86,-124.1 320.16,-134.61 326.44,-131.5"/>
</g>
<!-- client_2&#45;&gt;client_0 -->
<g id="edge6" class="edge">
<title>client_2&#45;&gt;client_0</title>
<path fill="none" stroke="black" d="M339.17,-118.55C341.64,-119.03 344.11,-119.32 346.58,-119.44"/>
<polygon fill="black" stroke="black" points="346.93,-122.93 356.73,-118.91 346.56,-115.94 346.93,-122.93"/>
</g>
<!-- client_2&#45;&gt;client_1 -->
<g id="edge7" class="edge">
<title>client_2&#45;&gt;client_1</title>
<path fill="none" stroke="black" d="M318.18,-124.24C325.23,-141.84 338.64,-167.48 360,-179 380.34,-189.97 391.61,-189.87 412,-179 430.02,-169.4 442.58,-149.9 450.47,-133.47"/>
<polygon fill="black" stroke="black" points="453.71,-134.81 454.59,-124.25 447.32,-131.96 453.71,-134.81"/>
</g>
</g>
</svg>
