<?xml version="1.0" encoding="UTF-8" standalone="no"?>
<!DOCTYPE svg PUBLIC "-//W3C//DTD SVG 1.1//EN"
 "http://www.w3.org/Graphics/SVG/1.1/DTD/svg11.dtd">
<!-- Generated by graphviz version 2.43.0 (0)
 -->
<!-- Title: G Pages: 1 -->
<svg width="2132pt" height="171pt"
 viewBox="0.00 0.00 2132.00 171.00" xmlns="http://www.w3.org/2000/svg" xmlns:xlink="http://www.w3.org/1999/xlink">
<g id="graph0" class="graph" transform="scale(1 1) rotate(0) translate(4 167)">
<title>G</title>
<polygon fill="white" stroke="transparent" points="-4,4 -4,-167 2128,-167 2128,4 -4,4"/>
<g id="clust1" class="cluster">
<title>cluster_0</title>
<polygon fill="none" stroke="red" points="8,-80 8,-155 1010,-155 1010,-80 8,-80"/>
<text text-anchor="middle" x="509" y="-139.8" font-family="Times,serif" font-size="14.00">Cola de Clientes</text>
</g>
<g id="clust9" class="cluster">
<title>cluster_1</title>
<polygon fill="none" stroke="blue" points="1018,-8 1018,-155 1522,-155 1522,-8 1018,-8"/>
<text text-anchor="middle" x="1270" y="-139.8" font-family="Times,serif" font-size="14.00">Ventanillas</text>
</g>
<g id="clust12" class="cluster">
<title>cluster_2</title>
<polygon fill="none" stroke="green" points="1530,-80 1530,-155 1676,-155 1676,-80 1530,-80"/>
<text text-anchor="middle" x="1603" y="-139.8" font-family="Times,serif" font-size="14.00">Lista de espera</text>
</g>
<g id="clust14" class="cluster">
<title>cluster_3</title>
<polygon fill="none" stroke="purple" points="1684,-80 1684,-155 1930,-155 1930,-80 1684,-80"/>
<text text-anchor="middle" x="1807" y="-139.8" font-family="Times,serif" font-size="14.00">Impresoras</text>
</g>
<g id="clust15" class="cluster">
<title>cluster_4</title>
<polygon fill="none" stroke="red" points="1938,-80 1938,-155 2116,-155 2116,-80 1938,-80"/>
<text text-anchor="middle" x="2027" y="-139.8" font-family="Times,serif" font-size="14.00">Clientes Atendidos</text>
</g>
<!-- client_2 -->
<g id="node1" class="node">
<title>client_2</title>
<polygon fill="lightgrey" stroke="black" points="132,-124 16,-124 16,-88 132,-88 132,-124"/>
<text text-anchor="middle" x="74" y="-102.3" font-family="Times,serif" font-size="14.00">Luis Higueros</text>
</g>
<!-- client_3 -->
<g id="node2" class="node">
<title>client_3</title>
<polygon fill="lightgrey" stroke="black" points="257.5,-124 150.5,-124 150.5,-88 257.5,-88 257.5,-124"/>
<text text-anchor="middle" x="204" y="-102.3" font-family="Times,serif" font-size="14.00">Ethan Smith</text>
</g>
<!-- client_2&#45;&gt;client_3 -->
<g id="edge1" class="edge">
<title>client_2&#45;&gt;client_3</title>
<path fill="none" stroke="black" d="M132.14,-106C134.81,-106 137.47,-106 140.13,-106"/>
<polygon fill="black" stroke="black" points="140.39,-109.5 150.39,-106 140.39,-102.5 140.39,-109.5"/>
</g>
<!-- client_4 -->
<g id="node3" class="node">
<title>client_4</title>
<polygon fill="lightgrey" stroke="black" points="376.5,-124 275.5,-124 275.5,-88 376.5,-88 376.5,-124"/>
<text text-anchor="middle" x="326" y="-102.3" font-family="Times,serif" font-size="14.00">Diego Clark</text>
</g>
<!-- client_3&#45;&gt;client_4 -->
<g id="edge2" class="edge">
<title>client_3&#45;&gt;client_4</title>
<path fill="none" stroke="black" d="M257.85,-106C260.32,-106 262.79,-106 265.26,-106"/>
<polygon fill="black" stroke="black" points="265.42,-109.5 275.42,-106 265.42,-102.5 265.42,-109.5"/>
</g>
<!-- client_5 -->
<g id="node4" class="node">
<title>client_5</title>
<polygon fill="lightgrey" stroke="black" points="503.5,-124 394.5,-124 394.5,-88 503.5,-88 503.5,-124"/>
<text text-anchor="middle" x="449" y="-102.3" font-family="Times,serif" font-size="14.00">Diego Brown</text>
</g>
<!-- client_4&#45;&gt;client_5 -->
<g id="edge3" class="edge">
<title>client_4&#45;&gt;client_5</title>
<path fill="none" stroke="black" d="M376.93,-106C379.38,-106 381.84,-106 384.29,-106"/>
<polygon fill="black" stroke="black" points="384.38,-109.5 394.38,-106 384.38,-102.5 384.38,-109.5"/>
</g>
<!-- client_6 -->
<g id="node5" class="node">
<title>client_6</title>
<polygon fill="lightgrey" stroke="black" points="630,-124 522,-124 522,-88 630,-88 630,-124"/>
<text text-anchor="middle" x="576" y="-102.3" font-family="Times,serif" font-size="14.00">Diego Moore</text>
</g>
<!-- client_5&#45;&gt;client_6 -->
<g id="edge4" class="edge">
<title>client_5&#45;&gt;client_6</title>
<path fill="none" stroke="black" d="M503.57,-106C506.35,-106 509.13,-106 511.9,-106"/>
<polygon fill="black" stroke="black" points="511.96,-109.5 521.96,-106 511.96,-102.5 511.96,-109.5"/>
</g>
<!-- client_7 -->
<g id="node6" class="node">
<title>client_7</title>
<polygon fill="lightgrey" stroke="black" points="753.5,-124 648.5,-124 648.5,-88 753.5,-88 753.5,-124"/>
<text text-anchor="middle" x="701" y="-102.3" font-family="Times,serif" font-size="14.00">Carly Moore</text>
</g>
<!-- client_6&#45;&gt;client_7 -->
<g id="edge5" class="edge">
<title>client_6&#45;&gt;client_7</title>
<path fill="none" stroke="black" d="M630.2,-106C632.86,-106 635.52,-106 638.19,-106"/>
<polygon fill="black" stroke="black" points="638.45,-109.5 648.45,-106 638.45,-102.5 638.45,-109.5"/>
</g>
<!-- client_8 -->
<g id="node7" class="node">
<title>client_8</title>
<polygon fill="lightgrey" stroke="black" points="874,-124 772,-124 772,-88 874,-88 874,-124"/>
<text text-anchor="middle" x="823" y="-102.3" font-family="Times,serif" font-size="14.00">Ethan Clark</text>
</g>
<!-- client_7&#45;&gt;client_8 -->
<g id="edge6" class="edge">
<title>client_7&#45;&gt;client_8</title>
<path fill="none" stroke="black" d="M753.9,-106C756.54,-106 759.17,-106 761.81,-106"/>
<polygon fill="black" stroke="black" points="761.98,-109.5 771.98,-106 761.98,-102.5 761.98,-109.5"/>
</g>
<!-- client_9 -->
<g id="node8" class="node">
<title>client_9</title>
<polygon fill="lightgrey" stroke="black" points="1002,-124 892,-124 892,-88 1002,-88 1002,-124"/>
<text text-anchor="middle" x="947" y="-102.3" font-family="Times,serif" font-size="14.00">Anaya Moore</text>
</g>
<!-- client_8&#45;&gt;client_9 -->
<g id="edge7" class="edge">
<title>client_8&#45;&gt;client_9</title>
<path fill="none" stroke="black" d="M874.34,-106C876.82,-106 879.29,-106 881.77,-106"/>
<polygon fill="black" stroke="black" points="881.94,-109.5 891.94,-106 881.94,-102.5 881.94,-109.5"/>
</g>
<!-- client_0 -->
<g id="node9" class="node">
<title>client_0</title>
<polygon fill="lightgrey" stroke="black" points="1161.5,-124 1026.5,-124 1026.5,-88 1161.5,-88 1161.5,-124"/>
<text text-anchor="middle" x="1094" y="-102.3" font-family="Times,serif" font-size="14.00">Andres Lopez v2</text>
</g>
<!-- ventanilla_2 -->
<g id="node10" class="node">
<title>ventanilla_2</title>
<polygon fill="lightgrey" stroke="black" points="1282.5,-124 1179.5,-124 1179.5,-88 1282.5,-88 1282.5,-124"/>
<text text-anchor="middle" x="1231" y="-102.3" font-family="Times,serif" font-size="14.00">ventanilla_2</text>
</g>
<!-- client_0&#45;&gt;ventanilla_2 -->
<g id="edge8" class="edge">
<title>client_0&#45;&gt;ventanilla_2</title>
<path fill="none" stroke="black" d="M1161.7,-106C1164.17,-106 1166.65,-106 1169.12,-106"/>
<polygon fill="black" stroke="black" points="1169.29,-109.5 1179.29,-106 1169.29,-102.5 1169.29,-109.5"/>
</g>
<!-- img_0 -->
<g id="node11" class="node">
<title>img_0</title>
<polygon fill="lightgrey" stroke="black" points="1359.5,-124 1300.5,-124 1300.5,-88 1359.5,-88 1359.5,-124"/>
<text text-anchor="middle" x="1330" y="-102.3" font-family="Times,serif" font-size="14.00">img_0</text>
</g>
<!-- ventanilla_2&#45;&gt;img_0 -->
<g id="edge9" class="edge">
<title>ventanilla_2&#45;&gt;img_0</title>
<path fill="none" stroke="black" d="M1282.82,-106C1285.26,-106 1287.69,-106 1290.13,-106"/>
<polygon fill="black" stroke="black" points="1290.14,-109.5 1300.14,-106 1290.14,-102.5 1290.14,-109.5"/>
</g>
<!-- ventanilla_1 -->
<g id="node14" class="node">
<title>ventanilla_1</title>
<polygon fill="lightgrey" stroke="black" points="1282.5,-52 1179.5,-52 1179.5,-16 1282.5,-16 1282.5,-52"/>
<text text-anchor="middle" x="1231" y="-30.3" font-family="Times,serif" font-size="14.00">ventanilla_1</text>
</g>
<!-- ventanilla_2&#45;&gt;ventanilla_1 -->
<g id="edge12" class="edge">
<title>ventanilla_2&#45;&gt;ventanilla_1</title>
<path fill="none" stroke="black" d="M1231,-87.7C1231,-79.98 1231,-70.71 1231,-62.11"/>
<polygon fill="black" stroke="black" points="1234.5,-62.1 1231,-52.1 1227.5,-62.1 1234.5,-62.1"/>
</g>
<!-- img_1 -->
<g id="node12" class="node">
<title>img_1</title>
<polygon fill="lightgrey" stroke="black" points="1436.5,-124 1377.5,-124 1377.5,-88 1436.5,-88 1436.5,-124"/>
<text text-anchor="middle" x="1407" y="-102.3" font-family="Times,serif" font-size="14.00">img_1</text>
</g>
<!-- img_0&#45;&gt;img_1 -->
<g id="edge10" class="edge">
<title>img_0&#45;&gt;img_1</title>
<path fill="none" stroke="black" d="M1359.78,-106C1362.27,-106 1364.76,-106 1367.25,-106"/>
<polygon fill="black" stroke="black" points="1367.49,-109.5 1377.49,-106 1367.49,-102.5 1367.49,-109.5"/>
</g>
<!-- img_2 -->
<g id="node13" class="node">
<title>img_2</title>
<polygon fill="lightgrey" stroke="black" points="1513.5,-124 1454.5,-124 1454.5,-88 1513.5,-88 1513.5,-124"/>
<text text-anchor="middle" x="1484" y="-102.3" font-family="Times,serif" font-size="14.00">img_2</text>
</g>
<!-- img_1&#45;&gt;img_2 -->
<g id="edge11" class="edge">
<title>img_1&#45;&gt;img_2</title>
<path fill="none" stroke="black" d="M1436.78,-106C1439.27,-106 1441.76,-106 1444.25,-106"/>
<polygon fill="black" stroke="black" points="1444.49,-109.5 1454.49,-106 1444.49,-102.5 1444.49,-109.5"/>
</g>
<!-- img_4 -->
<g id="node16" class="node">
<title>img_4</title>
<polygon fill="lightgrey" stroke="black" points="1359.5,-52 1300.5,-52 1300.5,-16 1359.5,-16 1359.5,-52"/>
<text text-anchor="middle" x="1330" y="-30.3" font-family="Times,serif" font-size="14.00">img_4</text>
</g>
<!-- ventanilla_1&#45;&gt;img_4 -->
<g id="edge14" class="edge">
<title>ventanilla_1&#45;&gt;img_4</title>
<path fill="none" stroke="black" d="M1282.82,-34C1285.26,-34 1287.69,-34 1290.13,-34"/>
<polygon fill="black" stroke="black" points="1290.14,-37.5 1300.14,-34 1290.14,-30.5 1290.14,-37.5"/>
</g>
<!-- client_1 -->
<g id="node15" class="node">
<title>client_1</title>
<polygon fill="lightgrey" stroke="black" points="1161,-52 1069,-52 1069,-16 1161,-16 1161,-52"/>
<text text-anchor="middle" x="1115" y="-30.3" font-family="Times,serif" font-size="14.00">Juan Perez</text>
</g>
<!-- client_1&#45;&gt;ventanilla_1 -->
<g id="edge13" class="edge">
<title>client_1&#45;&gt;ventanilla_1</title>
<path fill="none" stroke="black" d="M1161.22,-34C1163.88,-34 1166.55,-34 1169.21,-34"/>
<polygon fill="black" stroke="black" points="1169.48,-37.5 1179.48,-34 1169.48,-30.5 1169.48,-37.5"/>
</g>
<!-- img_5 -->
<g id="node17" class="node">
<title>img_5</title>
<polygon fill="lightgrey" stroke="black" points="1436.5,-52 1377.5,-52 1377.5,-16 1436.5,-16 1436.5,-52"/>
<text text-anchor="middle" x="1407" y="-30.3" font-family="Times,serif" font-size="14.00">img_5</text>
</g>
<!-- img_4&#45;&gt;img_5 -->
<g id="edge15" class="edge">
<title>img_4&#45;&gt;img_5</title>
<path fill="none" stroke="black" d="M1359.78,-34C1362.27,-34 1364.76,-34 1367.25,-34"/>
<polygon fill="black" stroke="black" points="1367.49,-37.5 1377.49,-34 1367.49,-30.5 1367.49,-37.5"/>
</g>
<!-- No_one_waiting -->
<g id="node18" class="node">
<title>No_one_waiting</title>
<polygon fill="lightgrey" stroke="black" points="1667.5,-124 1538.5,-124 1538.5,-88 1667.5,-88 1667.5,-124"/>
<text text-anchor="middle" x="1603" y="-102.3" font-family="Times,serif" font-size="14.00">No_one_waiting</text>
</g>
<!-- p_impresora -->
<g id="node19" class="node">
<title>p_impresora</title>
<polygon fill="lightgrey" stroke="black" points="1921.5,-124 1816.5,-124 1816.5,-88 1921.5,-88 1921.5,-124"/>
<text text-anchor="middle" x="1869" y="-102.3" font-family="Times,serif" font-size="14.00">p_impresora</text>
</g>
<!-- G_impresora -->
<g id="node20" class="node">
<title>G_impresora</title>
<polygon fill="lightgrey" stroke="black" points="1798.5,-124 1691.5,-124 1691.5,-88 1798.5,-88 1798.5,-124"/>
<text text-anchor="middle" x="1745" y="-102.3" font-family="Times,serif" font-size="14.00">G_impresora</text>
</g>
<!-- No_clients_attended -->
<g id="node21" class="node">
<title>No_clients_attended</title>
<polygon fill="lightgrey" stroke="black" points="2107.5,-124 1946.5,-124 1946.5,-88 2107.5,-88 2107.5,-124"/>
<text text-anchor="middle" x="2027" y="-102.3" font-family="Times,serif" font-size="14.00">No_clients_attended</text>
</g>
</g>
</svg>
