<?xml version="1.0" encoding="UTF-8" standalone="no"?>
<!DOCTYPE svg PUBLIC "-//W3C//DTD SVG 1.1//EN"
 "http://www.w3.org/Graphics/SVG/1.1/DTD/svg11.dtd">
<!-- Generated by graphviz version 2.43.0 (0)
 -->
<!-- Title: G Pages: 1 -->
<svg width="693pt" height="171pt"
 viewBox="0.00 0.00 693.00 171.00" xmlns="http://www.w3.org/2000/svg" xmlns:xlink="http://www.w3.org/1999/xlink">
<g id="graph0" class="graph" transform="scale(1 1) rotate(0) translate(4 167)">
<title>G</title>
<polygon fill="white" stroke="transparent" points="-4,4 -4,-167 689,-167 689,4 -4,4"/>
<g id="clust1" class="cluster">
<title>cluster_0</title>
<polygon fill="none" stroke="red" points="8,-80 8,-155 141,-155 141,-80 8,-80"/>
<text text-anchor="middle" x="74.5" y="-139.8" font-family="Times,serif" font-size="14.00">Cola de Clientes</text>
</g>
<g id="clust2" class="cluster">
<title>cluster_1</title>
<polygon fill="none" stroke="blue" points="149,-8 149,-155 269,-155 269,-8 149,-8"/>
<text text-anchor="middle" x="209" y="-139.8" font-family="Times,serif" font-size="14.00">Ventanillas</text>
</g>
<g id="clust3" class="cluster">
<title>cluster_2</title>
<polygon fill="none" stroke="green" points="277,-80 277,-155 423,-155 423,-80 277,-80"/>
<text text-anchor="middle" x="350" y="-139.8" font-family="Times,serif" font-size="14.00">Lista de espera</text>
</g>
<g id="clust5" class="cluster">
<title>cluster_3</title>
<polygon fill="none" stroke="purple" points="431,-80 431,-155 677,-155 677,-80 431,-80"/>
<text text-anchor="middle" x="554" y="-139.8" font-family="Times,serif" font-size="14.00">Impresoras</text>
</g>
<!-- No_clients -->
<g id="node1" class="node">
<title>No_clients</title>
<polygon fill="lightgrey" stroke="black" points="119.5,-124 28.5,-124 28.5,-88 119.5,-88 119.5,-124"/>
<text text-anchor="middle" x="74" y="-102.3" font-family="Times,serif" font-size="14.00">No_clients</text>
</g>
<!-- ventanilla_2 -->
<g id="node2" class="node">
<title>ventanilla_2</title>
<polygon fill="lightgrey" stroke="black" points="260.5,-124 157.5,-124 157.5,-88 260.5,-88 260.5,-124"/>
<text text-anchor="middle" x="209" y="-102.3" font-family="Times,serif" font-size="14.00">ventanilla_2</text>
</g>
<!-- ventanilla_1 -->
<g id="node3" class="node">
<title>ventanilla_1</title>
<polygon fill="lightgrey" stroke="black" points="260.5,-52 157.5,-52 157.5,-16 260.5,-16 260.5,-52"/>
<text text-anchor="middle" x="209" y="-30.3" font-family="Times,serif" font-size="14.00">ventanilla_1</text>
</g>
<!-- ventanilla_2&#45;&gt;ventanilla_1 -->
<g id="edge1" class="edge">
<title>ventanilla_2&#45;&gt;ventanilla_1</title>
<path fill="none" stroke="black" d="M209,-87.7C209,-79.98 209,-70.71 209,-62.11"/>
<polygon fill="black" stroke="black" points="212.5,-62.1 209,-52.1 205.5,-62.1 212.5,-62.1"/>
</g>
<!-- No_one_waiting -->
<g id="node4" class="node">
<title>No_one_waiting</title>
<polygon fill="lightgrey" stroke="black" points="414.5,-124 285.5,-124 285.5,-88 414.5,-88 414.5,-124"/>
<text text-anchor="middle" x="350" y="-102.3" font-family="Times,serif" font-size="14.00">No_one_waiting</text>
</g>
<!-- p_impresora -->
<g id="node5" class="node">
<title>p_impresora</title>
<polygon fill="lightgrey" stroke="black" points="668.5,-124 563.5,-124 563.5,-88 668.5,-88 668.5,-124"/>
<text text-anchor="middle" x="616" y="-102.3" font-family="Times,serif" font-size="14.00">p_impresora</text>
</g>
<!-- G_impresora -->
<g id="node6" class="node">
<title>G_impresora</title>
<polygon fill="lightgrey" stroke="black" points="545.5,-124 438.5,-124 438.5,-88 545.5,-88 545.5,-124"/>
<text text-anchor="middle" x="492" y="-102.3" font-family="Times,serif" font-size="14.00">G_impresora</text>
</g>
</g>
</svg>
