<?xml version="1.0" encoding="UTF-8" standalone="no"?>
<!DOCTYPE svg PUBLIC "-//W3C//DTD SVG 1.1//EN"
 "http://www.w3.org/Graphics/SVG/1.1/DTD/svg11.dtd">
<!-- Generated by graphviz version 2.43.0 (0)
 -->
<!-- Title: G Pages: 1 -->
<svg width="767pt" height="478pt"
 viewBox="0.00 0.00 767.00 478.06" xmlns="http://www.w3.org/2000/svg" xmlns:xlink="http://www.w3.org/1999/xlink">
<g id="graph0" class="graph" transform="scale(1 1) rotate(0) translate(4 474.06)">
<title>G</title>
<polygon fill="white" stroke="transparent" points="-4,4 -4,-474.06 763,-474.06 763,4 -4,4"/>
<g id="clust1" class="cluster">
<title>cluster_0</title>
<polygon fill="none" stroke="red" points="8,-368 8,-443 141,-443 141,-368 8,-368"/>
<text text-anchor="middle" x="74.5" y="-427.8" font-family="Times,serif" font-size="14.00">Cola de Clientes</text>
</g>
<g id="clust2" class="cluster">
<title>cluster_1</title>
<polygon fill="none" stroke="blue" points="149,-296 149,-443 269,-443 269,-296 149,-296"/>
<text text-anchor="middle" x="209" y="-427.8" font-family="Times,serif" font-size="14.00">Ventanillas</text>
</g>
<g id="clust3" class="cluster">
<title>cluster_2</title>
<polygon fill="none" stroke="green" points="277,-368 277,-443 497,-443 497,-368 277,-368"/>
<text text-anchor="middle" x="387" y="-427.8" font-family="Times,serif" font-size="14.00">Lista de espera</text>
</g>
<g id="clust5" class="cluster">
<title>cluster_3</title>
<polygon fill="none" stroke="purple" points="505,-8 505,-443 751,-443 751,-8 505,-8"/>
<text text-anchor="middle" x="628" y="-427.8" font-family="Times,serif" font-size="14.00">Impresoras</text>
</g>
<!-- No_clients -->
<g id="node1" class="node">
<title>No_clients</title>
<polygon fill="lightgrey" stroke="black" points="119.5,-412 28.5,-412 28.5,-376 119.5,-376 119.5,-412"/>
<text text-anchor="middle" x="74" y="-390.3" font-family="Times,serif" font-size="14.00">No_clients</text>
</g>
<!-- ventanilla_2 -->
<g id="node2" class="node">
<title>ventanilla_2</title>
<polygon fill="lightgrey" stroke="black" points="260.5,-412 157.5,-412 157.5,-376 260.5,-376 260.5,-412"/>
<text text-anchor="middle" x="209" y="-390.3" font-family="Times,serif" font-size="14.00">ventanilla_2</text>
</g>
<!-- ventanilla_1 -->
<g id="node3" class="node">
<title>ventanilla_1</title>
<polygon fill="lightgrey" stroke="black" points="260.5,-340 157.5,-340 157.5,-304 260.5,-304 260.5,-340"/>
<text text-anchor="middle" x="209" y="-318.3" font-family="Times,serif" font-size="14.00">ventanilla_1</text>
</g>
<!-- ventanilla_2&#45;&gt;ventanilla_1 -->
<g id="edge1" class="edge">
<title>ventanilla_2&#45;&gt;ventanilla_1</title>
<path fill="none" stroke="black" d="M209,-375.7C209,-367.98 209,-358.71 209,-350.11"/>
<polygon fill="black" stroke="black" points="212.5,-350.1 209,-340.1 205.5,-350.1 212.5,-350.1"/>
</g>
<!-- client_0 -->
<g id="node4" class="node">
<title>client_0</title>
<polygon fill="lightgrey" stroke="black" points="415,-412 357,-412 357,-376 415,-376 415,-412"/>
<text text-anchor="middle" x="386" y="-390.3" font-family="Times,serif" font-size="14.00">Diego</text>
</g>
<!-- client_1 -->
<g id="node5" class="node">
<title>client_1</title>
<polygon fill="lightgrey" stroke="black" points="489,-412 433,-412 433,-376 489,-376 489,-412"/>
<text text-anchor="middle" x="461" y="-390.3" font-family="Times,serif" font-size="14.00">Pablo</text>
</g>
<!-- client_0&#45;&gt;client_1 -->
<g id="edge2" class="edge">
<title>client_0&#45;&gt;client_1</title>
<path fill="none" stroke="black" d="M415,-394C417.62,-394 420.24,-394 422.86,-394"/>
<polygon fill="black" stroke="black" points="422.97,-397.5 432.97,-394 422.97,-390.5 422.97,-397.5"/>
</g>
<!-- client_2 -->
<g id="node6" class="node">
<title>client_2</title>
<polygon fill="lightgrey" stroke="black" points="339,-412 285,-412 285,-376 339,-376 339,-412"/>
<text text-anchor="middle" x="312" y="-390.3" font-family="Times,serif" font-size="14.00">Mark</text>
</g>
<!-- client_1&#45;&gt;client_2 -->
<g id="edge3" class="edge">
<title>client_1&#45;&gt;client_2</title>
<path fill="none" stroke="black" d="M454.21,-412.3C447.13,-428.4 434.35,-450.81 415,-461 392.19,-473.01 379.75,-473.12 357,-461 341.28,-452.62 330.07,-436.04 322.78,-421.47"/>
<polygon fill="black" stroke="black" points="325.91,-419.9 318.54,-412.29 319.55,-422.83 325.91,-419.9"/>
</g>
<!-- client_2&#45;&gt;client_0 -->
<g id="edge4" class="edge">
<title>client_2&#45;&gt;client_0</title>
<path fill="none" stroke="black" d="M339.17,-394C341.64,-394 344.11,-394 346.58,-394"/>
<polygon fill="black" stroke="black" points="346.73,-397.5 356.73,-394 346.73,-390.5 346.73,-397.5"/>
</g>
<!-- p_impresora -->
<g id="node7" class="node">
<title>p_impresora</title>
<polygon fill="lightgrey" stroke="black" points="742.5,-412 637.5,-412 637.5,-376 742.5,-376 742.5,-412"/>
<text text-anchor="middle" x="690" y="-390.3" font-family="Times,serif" font-size="14.00">p_impresora</text>
</g>
<!-- img_5 -->
<g id="node8" class="node">
<title>img_5</title>
<polygon fill="lightgrey" stroke="black" points="719.5,-340 660.5,-340 660.5,-304 719.5,-304 719.5,-340"/>
<text text-anchor="middle" x="690" y="-318.3" font-family="Times,serif" font-size="14.00">img_5</text>
</g>
<!-- p_impresora&#45;&gt;img_5 -->
<g id="edge5" class="edge">
<title>p_impresora&#45;&gt;img_5</title>
<path fill="none" stroke="black" d="M690,-375.7C690,-367.98 690,-358.71 690,-350.11"/>
<polygon fill="black" stroke="black" points="693.5,-350.1 690,-340.1 686.5,-350.1 693.5,-350.1"/>
</g>
<!-- img_6 -->
<g id="node9" class="node">
<title>img_6</title>
<polygon fill="lightgrey" stroke="black" points="719.5,-268 660.5,-268 660.5,-232 719.5,-232 719.5,-268"/>
<text text-anchor="middle" x="690" y="-246.3" font-family="Times,serif" font-size="14.00">img_6</text>
</g>
<!-- img_5&#45;&gt;img_6 -->
<g id="edge6" class="edge">
<title>img_5&#45;&gt;img_6</title>
<path fill="none" stroke="black" d="M690,-303.7C690,-295.98 690,-286.71 690,-278.11"/>
<polygon fill="black" stroke="black" points="693.5,-278.1 690,-268.1 686.5,-278.1 693.5,-278.1"/>
</g>
<!-- G_impresora -->
<g id="node10" class="node">
<title>G_impresora</title>
<polygon fill="lightgrey" stroke="black" points="619.5,-412 512.5,-412 512.5,-376 619.5,-376 619.5,-412"/>
<text text-anchor="middle" x="566" y="-390.3" font-family="Times,serif" font-size="14.00">G_impresora</text>
</g>
<!-- img_1 -->
<g id="node11" class="node">
<title>img_1</title>
<polygon fill="lightgrey" stroke="black" points="595.5,-340 536.5,-340 536.5,-304 595.5,-304 595.5,-340"/>
<text text-anchor="middle" x="566" y="-318.3" font-family="Times,serif" font-size="14.00">img_1</text>
</g>
<!-- G_impresora&#45;&gt;img_1 -->
<g id="edge7" class="edge">
<title>G_impresora&#45;&gt;img_1</title>
<path fill="none" stroke="black" d="M566,-375.7C566,-367.98 566,-358.71 566,-350.11"/>
<polygon fill="black" stroke="black" points="569.5,-350.1 566,-340.1 562.5,-350.1 569.5,-350.1"/>
</g>
<!-- img_3 -->
<g id="node12" class="node">
<title>img_3</title>
<polygon fill="lightgrey" stroke="black" points="595.5,-268 536.5,-268 536.5,-232 595.5,-232 595.5,-268"/>
<text text-anchor="middle" x="566" y="-246.3" font-family="Times,serif" font-size="14.00">img_3</text>
</g>
<!-- img_1&#45;&gt;img_3 -->
<g id="edge8" class="edge">
<title>img_1&#45;&gt;img_3</title>
<path fill="none" stroke="black" d="M566,-303.7C566,-295.98 566,-286.71 566,-278.11"/>
<polygon fill="black" stroke="black" points="569.5,-278.1 566,-268.1 562.5,-278.1 569.5,-278.1"/>
</g>
<!-- img_7 -->
<g id="node13" class="node">
<title>img_7</title>
<polygon fill="lightgrey" stroke="black" points="595.5,-196 536.5,-196 536.5,-160 595.5,-160 595.5,-196"/>
<text text-anchor="middle" x="566" y="-174.3" font-family="Times,serif" font-size="14.00">img_7</text>
</g>
<!-- img_3&#45;&gt;img_7 -->
<g id="edge9" class="edge">
<title>img_3&#45;&gt;img_7</title>
<path fill="none" stroke="black" d="M566,-231.7C566,-223.98 566,-214.71 566,-206.11"/>
<polygon fill="black" stroke="black" points="569.5,-206.1 566,-196.1 562.5,-206.1 569.5,-206.1"/>
</g>
<!-- img_8 -->
<g id="node14" class="node">
<title>img_8</title>
<polygon fill="lightgrey" stroke="black" points="595.5,-124 536.5,-124 536.5,-88 595.5,-88 595.5,-124"/>
<text text-anchor="middle" x="566" y="-102.3" font-family="Times,serif" font-size="14.00">img_8</text>
</g>
<!-- img_7&#45;&gt;img_8 -->
<g id="edge10" class="edge">
<title>img_7&#45;&gt;img_8</title>
<path fill="none" stroke="black" d="M566,-159.7C566,-151.98 566,-142.71 566,-134.11"/>
<polygon fill="black" stroke="black" points="569.5,-134.1 566,-124.1 562.5,-134.1 569.5,-134.1"/>
</g>
<!-- img_9 -->
<g id="node15" class="node">
<title>img_9</title>
<polygon fill="lightgrey" stroke="black" points="595.5,-52 536.5,-52 536.5,-16 595.5,-16 595.5,-52"/>
<text text-anchor="middle" x="566" y="-30.3" font-family="Times,serif" font-size="14.00">img_9</text>
</g>
<!-- img_8&#45;&gt;img_9 -->
<g id="edge11" class="edge">
<title>img_8&#45;&gt;img_9</title>
<path fill="none" stroke="black" d="M566,-87.7C566,-79.98 566,-70.71 566,-62.11"/>
<polygon fill="black" stroke="black" points="569.5,-62.1 566,-52.1 562.5,-62.1 569.5,-62.1"/>
</g>
</g>
</svg>
