<?xml version="1.0" encoding="UTF-8" standalone="no"?>
<!DOCTYPE svg PUBLIC "-//W3C//DTD SVG 1.1//EN"
 "http://www.w3.org/Graphics/SVG/1.1/DTD/svg11.dtd">
<!-- Generated by graphviz version 2.43.0 (0)
 -->
<!-- Title: G Pages: 1 -->
<svg width="157pt" height="171pt"
 viewBox="0.00 0.00 157.00 171.00" xmlns="http://www.w3.org/2000/svg" xmlns:xlink="http://www.w3.org/1999/xlink">
<g id="graph0" class="graph" transform="scale(1 1) rotate(0) translate(4 167)">
<title>G</title>
<polygon fill="white" stroke="transparent" points="-4,4 -4,-167 153,-167 153,4 -4,4"/>
<g id="clust1" class="cluster">
<title>cluster_0</title>
<polygon fill="none" stroke="blue" points="8,-8 8,-155 141,-155 141,-8 8,-8"/>
<text text-anchor="middle" x="74.5" y="-139.8" font-family="Times,serif" font-size="14.00">Cola de Clientes</text>
</g>
<!-- 0 -->
<g id="node1" class="node">
<title>0</title>
<polygon fill="lightgrey" stroke="black" points="101,-124 47,-124 47,-88 101,-88 101,-124"/>
<text text-anchor="middle" x="74" y="-102.3" font-family="Times,serif" font-size="14.00">0</text>
</g>
<!-- 1 -->
<g id="node2" class="node">
<title>1</title>
<polygon fill="lightgrey" stroke="black" points="101,-52 47,-52 47,-16 101,-16 101,-52"/>
<text text-anchor="middle" x="74" y="-30.3" font-family="Times,serif" font-size="14.00">1</text>
</g>
<!-- 0&#45;&gt;1 -->
<g id="edge1" class="edge">
<title>0&#45;&gt;1</title>
<path fill="none" stroke="black" d="M74,-87.7C74,-79.98 74,-70.71 74,-62.11"/>
<polygon fill="black" stroke="black" points="77.5,-62.1 74,-52.1 70.5,-62.1 77.5,-62.1"/>
</g>
</g>
</svg>
