<?xml version="1.0" encoding="UTF-8" standalone="no"?>
<!DOCTYPE svg PUBLIC "-//W3C//DTD SVG 1.1//EN"
 "http://www.w3.org/Graphics/SVG/1.1/DTD/svg11.dtd">
<!-- Generated by graphviz version 2.43.0 (0)
 -->
<!-- Title: G Pages: 1 -->
<svg width="978pt" height="243pt"
 viewBox="0.00 0.00 978.00 243.00" xmlns="http://www.w3.org/2000/svg" xmlns:xlink="http://www.w3.org/1999/xlink">
<g id="graph0" class="graph" transform="scale(1 1) rotate(0) translate(4 239)">
<title>G</title>
<polygon fill="white" stroke="transparent" points="-4,4 -4,-239 974,-239 974,4 -4,4"/>
<g id="clust1" class="cluster">
<title>cluster_0</title>
<polygon fill="none" stroke="red" points="8,-152 8,-227 141,-227 141,-152 8,-152"/>
<text text-anchor="middle" x="74.5" y="-211.8" font-family="Times,serif" font-size="14.00">Cola de Clientes</text>
</g>
<g id="clust2" class="cluster">
<title>cluster_1</title>
<polygon fill="none" stroke="blue" points="149,-80 149,-227 574,-227 574,-80 149,-80"/>
<text text-anchor="middle" x="361.5" y="-211.8" font-family="Times,serif" font-size="14.00">Ventanillas</text>
</g>
<g id="clust5" class="cluster">
<title>cluster_2</title>
<polygon fill="none" stroke="green" points="582,-152 582,-227 708,-227 708,-152 582,-152"/>
<text text-anchor="middle" x="645" y="-211.8" font-family="Times,serif" font-size="14.00">Lista de espera</text>
</g>
<g id="clust7" class="cluster">
<title>cluster_3</title>
<polygon fill="none" stroke="purple" points="716,-8 716,-227 962,-227 962,-8 716,-8"/>
<text text-anchor="middle" x="839" y="-211.8" font-family="Times,serif" font-size="14.00">Impresoras</text>
</g>
<!-- No_clients -->
<g id="node1" class="node">
<title>No_clients</title>
<polygon fill="lightgrey" stroke="black" points="119.5,-196 28.5,-196 28.5,-160 119.5,-160 119.5,-196"/>
<text text-anchor="middle" x="74" y="-174.3" font-family="Times,serif" font-size="14.00">No_clients</text>
</g>
<!-- client_2 -->
<g id="node2" class="node">
<title>client_2</title>
<polygon fill="lightgrey" stroke="black" points="213,-196 159,-196 159,-160 213,-160 213,-196"/>
<text text-anchor="middle" x="186" y="-174.3" font-family="Times,serif" font-size="14.00">Mark</text>
</g>
<!-- ventanilla_2 -->
<g id="node3" class="node">
<title>ventanilla_2</title>
<polygon fill="lightgrey" stroke="black" points="334.5,-196 231.5,-196 231.5,-160 334.5,-160 334.5,-196"/>
<text text-anchor="middle" x="283" y="-174.3" font-family="Times,serif" font-size="14.00">ventanilla_2</text>
</g>
<!-- client_2&#45;&gt;ventanilla_2 -->
<g id="edge1" class="edge">
<title>client_2&#45;&gt;ventanilla_2</title>
<path fill="none" stroke="black" d="M213.28,-178C215.9,-178 218.52,-178 221.15,-178"/>
<polygon fill="black" stroke="black" points="221.26,-181.5 231.26,-178 221.26,-174.5 221.26,-181.5"/>
</g>
<!-- ventanilla_1 -->
<g id="node4" class="node">
<title>ventanilla_1</title>
<polygon fill="lightgrey" stroke="black" points="334.5,-124 231.5,-124 231.5,-88 334.5,-88 334.5,-124"/>
<text text-anchor="middle" x="283" y="-102.3" font-family="Times,serif" font-size="14.00">ventanilla_1</text>
</g>
<!-- ventanilla_2&#45;&gt;ventanilla_1 -->
<g id="edge2" class="edge">
<title>ventanilla_2&#45;&gt;ventanilla_1</title>
<path fill="none" stroke="black" d="M283,-159.7C283,-151.98 283,-142.71 283,-134.11"/>
<polygon fill="black" stroke="black" points="286.5,-134.1 283,-124.1 279.5,-134.1 286.5,-134.1"/>
</g>
<!-- img_3 -->
<g id="node6" class="node">
<title>img_3</title>
<polygon fill="lightgrey" stroke="black" points="411.5,-124 352.5,-124 352.5,-88 411.5,-88 411.5,-124"/>
<text text-anchor="middle" x="382" y="-102.3" font-family="Times,serif" font-size="14.00">img_3</text>
</g>
<!-- ventanilla_1&#45;&gt;img_3 -->
<g id="edge4" class="edge">
<title>ventanilla_1&#45;&gt;img_3</title>
<path fill="none" stroke="black" d="M334.82,-106C337.26,-106 339.69,-106 342.13,-106"/>
<polygon fill="black" stroke="black" points="342.14,-109.5 352.14,-106 342.14,-102.5 342.14,-109.5"/>
</g>
<!-- client_1 -->
<g id="node5" class="node">
<title>client_1</title>
<polygon fill="lightgrey" stroke="black" points="213,-124 157,-124 157,-88 213,-88 213,-124"/>
<text text-anchor="middle" x="185" y="-102.3" font-family="Times,serif" font-size="14.00">Pablo</text>
</g>
<!-- client_1&#45;&gt;ventanilla_1 -->
<g id="edge3" class="edge">
<title>client_1&#45;&gt;ventanilla_1</title>
<path fill="none" stroke="black" d="M213.33,-106C215.95,-106 218.57,-106 221.19,-106"/>
<polygon fill="black" stroke="black" points="221.29,-109.5 231.29,-106 221.29,-102.5 221.29,-109.5"/>
</g>
<!-- img_4 -->
<g id="node7" class="node">
<title>img_4</title>
<polygon fill="lightgrey" stroke="black" points="488.5,-124 429.5,-124 429.5,-88 488.5,-88 488.5,-124"/>
<text text-anchor="middle" x="459" y="-102.3" font-family="Times,serif" font-size="14.00">img_4</text>
</g>
<!-- img_3&#45;&gt;img_4 -->
<g id="edge5" class="edge">
<title>img_3&#45;&gt;img_4</title>
<path fill="none" stroke="black" d="M411.78,-106C414.27,-106 416.76,-106 419.25,-106"/>
<polygon fill="black" stroke="black" points="419.49,-109.5 429.49,-106 419.49,-102.5 419.49,-109.5"/>
</g>
<!-- img_5 -->
<g id="node8" class="node">
<title>img_5</title>
<polygon fill="lightgrey" stroke="black" points="565.5,-124 506.5,-124 506.5,-88 565.5,-88 565.5,-124"/>
<text text-anchor="middle" x="536" y="-102.3" font-family="Times,serif" font-size="14.00">img_5</text>
</g>
<!-- img_4&#45;&gt;img_5 -->
<g id="edge6" class="edge">
<title>img_4&#45;&gt;img_5</title>
<path fill="none" stroke="black" d="M488.78,-106C491.27,-106 493.76,-106 496.25,-106"/>
<polygon fill="black" stroke="black" points="496.49,-109.5 506.49,-106 496.49,-102.5 496.49,-109.5"/>
</g>
<!-- client_0 -->
<g id="node9" class="node">
<title>client_0</title>
<polygon fill="lightgrey" stroke="black" points="656,-196 598,-196 598,-160 656,-160 656,-196"/>
<text text-anchor="middle" x="627" y="-174.3" font-family="Times,serif" font-size="14.00">Diego</text>
</g>
<!-- client_0&#45;&gt;client_0 -->
<g id="edge7" class="edge">
<title>client_0&#45;&gt;client_0</title>
<path fill="none" stroke="black" d="M656.38,-184.75C666.17,-184.75 674,-182.5 674,-178 674,-175.26 671.09,-173.35 666.6,-172.28"/>
<polygon fill="black" stroke="black" points="666.68,-168.77 656.38,-171.25 665.97,-175.73 666.68,-168.77"/>
</g>
<!-- client_0&#45;&gt;client_0 -->
<g id="edge8" class="edge">
<title>client_0&#45;&gt;client_0</title>
<path fill="none" stroke="black" d="M666.21,-191.48C680.4,-191.81 692,-187.31 692,-178 692,-166.54 674.43,-162.38 656.08,-165.51"/>
<polygon fill="black" stroke="black" points="666.37,-187.98 656.08,-190.49 665.69,-194.95 666.37,-187.98"/>
</g>
<!-- p_impresora -->
<g id="node10" class="node">
<title>p_impresora</title>
<polygon fill="lightgrey" stroke="black" points="953.5,-196 848.5,-196 848.5,-160 953.5,-160 953.5,-196"/>
<text text-anchor="middle" x="901" y="-174.3" font-family="Times,serif" font-size="14.00">p_impresora</text>
</g>
<!-- img_2 -->
<g id="node11" class="node">
<title>img_2</title>
<polygon fill="lightgrey" stroke="black" points="930.5,-124 871.5,-124 871.5,-88 930.5,-88 930.5,-124"/>
<text text-anchor="middle" x="901" y="-102.3" font-family="Times,serif" font-size="14.00">img_2</text>
</g>
<!-- p_impresora&#45;&gt;img_2 -->
<g id="edge9" class="edge">
<title>p_impresora&#45;&gt;img_2</title>
<path fill="none" stroke="black" d="M901,-159.7C901,-151.98 901,-142.71 901,-134.11"/>
<polygon fill="black" stroke="black" points="904.5,-134.1 901,-124.1 897.5,-134.1 904.5,-134.1"/>
</g>
<!-- G_impresora -->
<g id="node12" class="node">
<title>G_impresora</title>
<polygon fill="lightgrey" stroke="black" points="830.5,-196 723.5,-196 723.5,-160 830.5,-160 830.5,-196"/>
<text text-anchor="middle" x="777" y="-174.3" font-family="Times,serif" font-size="14.00">G_impresora</text>
</g>
<!-- img_0 -->
<g id="node13" class="node">
<title>img_0</title>
<polygon fill="lightgrey" stroke="black" points="806.5,-124 747.5,-124 747.5,-88 806.5,-88 806.5,-124"/>
<text text-anchor="middle" x="777" y="-102.3" font-family="Times,serif" font-size="14.00">img_0</text>
</g>
<!-- G_impresora&#45;&gt;img_0 -->
<g id="edge10" class="edge">
<title>G_impresora&#45;&gt;img_0</title>
<path fill="none" stroke="black" d="M777,-159.7C777,-151.98 777,-142.71 777,-134.11"/>
<polygon fill="black" stroke="black" points="780.5,-134.1 777,-124.1 773.5,-134.1 780.5,-134.1"/>
</g>
<!-- img_1 -->
<g id="node14" class="node">
<title>img_1</title>
<polygon fill="lightgrey" stroke="black" points="806.5,-52 747.5,-52 747.5,-16 806.5,-16 806.5,-52"/>
<text text-anchor="middle" x="777" y="-30.3" font-family="Times,serif" font-size="14.00">img_1</text>
</g>
<!-- img_0&#45;&gt;img_1 -->
<g id="edge11" class="edge">
<title>img_0&#45;&gt;img_1</title>
<path fill="none" stroke="black" d="M777,-87.7C777,-79.98 777,-70.71 777,-62.11"/>
<polygon fill="black" stroke="black" points="780.5,-62.1 777,-52.1 773.5,-62.1 780.5,-62.1"/>
</g>
</g>
</svg>
