<?xml version="1.0" encoding="UTF-8" standalone="no"?>
<!DOCTYPE svg PUBLIC "-//W3C//DTD SVG 1.1//EN"
 "http://www.w3.org/Graphics/SVG/1.1/DTD/svg11.dtd">
<!-- Generated by graphviz version 2.43.0 (0)
 -->
<!-- Title: H Pages: 1 -->
<svg width="143pt" height="332pt"
 viewBox="0.00 0.00 143.00 332.00" xmlns="http://www.w3.org/2000/svg" xmlns:xlink="http://www.w3.org/1999/xlink">
<g id="graph0" class="graph" transform="scale(1 1) rotate(0) translate(4 328)">
<title>H</title>
<polygon fill="white" stroke="transparent" points="-4,4 -4,-328 139,-328 139,4 -4,4"/>
<!-- client_0 -->
<g id="node1" class="node">
<title>client_0</title>
<polygon fill="lightgrey" stroke="black" points="135,-324 0,-324 0,-288 135,-288 135,-324"/>
<text text-anchor="middle" x="67.5" y="-302.3" font-family="Times,serif" font-size="14.00">Andres Lopez v2</text>
</g>
<!-- client_1 -->
<g id="node2" class="node">
<title>client_1</title>
<polygon fill="lightgrey" stroke="black" points="122.5,-252 12.5,-252 12.5,-216 122.5,-216 122.5,-252"/>
<text text-anchor="middle" x="67.5" y="-230.3" font-family="Times,serif" font-size="14.00">Ethan Brown</text>
</g>
<!-- client_0&#45;&gt;client_1 -->
<g id="edge1" class="edge">
<title>client_0&#45;&gt;client_1</title>
<path fill="none" stroke="black" d="M67.5,-287.7C67.5,-279.98 67.5,-270.71 67.5,-262.11"/>
<polygon fill="black" stroke="black" points="71,-262.1 67.5,-252.1 64,-262.1 71,-262.1"/>
</g>
<!-- client_2 -->
<g id="node3" class="node">
<title>client_2</title>
<polygon fill="lightgrey" stroke="black" points="120.5,-180 14.5,-180 14.5,-144 120.5,-144 120.5,-180"/>
<text text-anchor="middle" x="67.5" y="-158.3" font-family="Times,serif" font-size="14.00">Carly Brown</text>
</g>
<!-- client_1&#45;&gt;client_2 -->
<g id="edge2" class="edge">
<title>client_1&#45;&gt;client_2</title>
<path fill="none" stroke="black" d="M67.5,-215.7C67.5,-207.98 67.5,-198.71 67.5,-190.11"/>
<polygon fill="black" stroke="black" points="71,-190.1 67.5,-180.1 64,-190.1 71,-190.1"/>
</g>
<!-- client_4 -->
<g id="node4" class="node">
<title>client_4</title>
<polygon fill="lightgrey" stroke="black" points="121.5,-108 13.5,-108 13.5,-72 121.5,-72 121.5,-108"/>
<text text-anchor="middle" x="67.5" y="-86.3" font-family="Times,serif" font-size="14.00">Diego Moore</text>
</g>
<!-- client_2&#45;&gt;client_4 -->
<g id="edge3" class="edge">
<title>client_2&#45;&gt;client_4</title>
<path fill="none" stroke="black" d="M67.5,-143.7C67.5,-135.98 67.5,-126.71 67.5,-118.11"/>
<polygon fill="black" stroke="black" points="71,-118.1 67.5,-108.1 64,-118.1 71,-118.1"/>
</g>
<!-- client_5 -->
<g id="node5" class="node">
<title>client_5</title>
<polygon fill="lightgrey" stroke="black" points="103.5,-36 31.5,-36 31.5,0 103.5,0 103.5,-36"/>
<text text-anchor="middle" x="67.5" y="-14.3" font-family="Times,serif" font-size="14.00">client_5</text>
</g>
<!-- client_4&#45;&gt;client_5 -->
<g id="edge4" class="edge">
<title>client_4&#45;&gt;client_5</title>
<path fill="none" stroke="black" d="M67.5,-71.7C67.5,-63.98 67.5,-54.71 67.5,-46.11"/>
<polygon fill="black" stroke="black" points="71,-46.1 67.5,-36.1 64,-46.1 71,-46.1"/>
</g>
</g>
</svg>
