<?xml version="1.0" encoding="UTF-8" standalone="no"?>
<!DOCTYPE svg PUBLIC "-//W3C//DTD SVG 1.1//EN"
 "http://www.w3.org/Graphics/SVG/1.1/DTD/svg11.dtd">
<!-- Generated by graphviz version 2.43.0 (0)
 -->
<!-- Title: G Pages: 1 -->
<svg width="377pt" height="476pt"
 viewBox="0.00 0.00 376.64 476.00" xmlns="http://www.w3.org/2000/svg" xmlns:xlink="http://www.w3.org/1999/xlink">
<g id="graph0" class="graph" transform="scale(1 1) rotate(0) translate(4 472)">
<title>G</title>
<polygon fill="white" stroke="transparent" points="-4,4 -4,-472 372.64,-472 372.64,4 -4,4"/>
<!-- node_0 -->
<g id="node1" class="node">
<title>node_0</title>
<ellipse fill="none" stroke="black" cx="215.75" cy="-450" rx="42.79" ry="18"/>
<text text-anchor="middle" x="215.75" y="-446.3" font-family="Times,serif" font-size="14.00">Capa 0</text>
</g>
<!-- node_1 -->
<g id="node2" class="node">
<title>node_1</title>
<ellipse fill="none" stroke="black" cx="215.75" cy="-378" rx="42.79" ry="18"/>
<text text-anchor="middle" x="215.75" y="-374.3" font-family="Times,serif" font-size="14.00">Capa 1</text>
</g>
<!-- node_0&#45;&gt;node_1 -->
<g id="edge1" class="edge">
<title>node_0&#45;&gt;node_1</title>
<path fill="none" stroke="black" d="M215.75,-431.7C215.75,-423.98 215.75,-414.71 215.75,-406.11"/>
<polygon fill="black" stroke="black" points="219.25,-406.1 215.75,-396.1 212.25,-406.1 219.25,-406.1"/>
</g>
<!-- node_2 -->
<g id="node3" class="node">
<title>node_2</title>
<ellipse fill="none" stroke="black" cx="215.75" cy="-306" rx="42.79" ry="18"/>
<text text-anchor="middle" x="215.75" y="-302.3" font-family="Times,serif" font-size="14.00">Capa 2</text>
</g>
<!-- node_1&#45;&gt;node_2 -->
<g id="edge2" class="edge">
<title>node_1&#45;&gt;node_2</title>
<path fill="none" stroke="black" d="M215.75,-359.7C215.75,-351.98 215.75,-342.71 215.75,-334.11"/>
<polygon fill="black" stroke="black" points="219.25,-334.1 215.75,-324.1 212.25,-334.1 219.25,-334.1"/>
</g>
<!-- node_8 -->
<g id="node4" class="node">
<title>node_8</title>
<ellipse fill="none" stroke="black" cx="163.75" cy="-234" rx="42.79" ry="18"/>
<text text-anchor="middle" x="163.75" y="-230.3" font-family="Times,serif" font-size="14.00">Capa 8</text>
</g>
<!-- node_2&#45;&gt;node_8 -->
<g id="edge3" class="edge">
<title>node_2&#45;&gt;node_8</title>
<path fill="none" stroke="black" d="M203.42,-288.41C197.08,-279.87 189.21,-269.28 182.16,-259.79"/>
<polygon fill="black" stroke="black" points="184.75,-257.41 175.98,-251.47 179.13,-261.58 184.75,-257.41"/>
</g>
<!-- node_3 -->
<g id="node5" class="node">
<title>node_3</title>
<ellipse fill="none" stroke="black" cx="270.75" cy="-234" rx="42.79" ry="18"/>
<text text-anchor="middle" x="270.75" y="-230.3" font-family="Times,serif" font-size="14.00">Capa 3</text>
</g>
<!-- node_2&#45;&gt;node_3 -->
<g id="edge4" class="edge">
<title>node_2&#45;&gt;node_3</title>
<path fill="none" stroke="black" d="M228.5,-288.76C235.28,-280.14 243.74,-269.36 251.32,-259.73"/>
<polygon fill="black" stroke="black" points="254.25,-261.66 257.68,-251.63 248.75,-257.33 254.25,-261.66"/>
</g>
<!-- node_10 -->
<g id="node6" class="node">
<title>node_10</title>
<ellipse fill="none" stroke="black" cx="48.75" cy="-162" rx="48.99" ry="18"/>
<text text-anchor="middle" x="48.75" y="-158.3" font-family="Times,serif" font-size="14.00">Capa 10</text>
</g>
<!-- node_8&#45;&gt;node_10 -->
<g id="edge5" class="edge">
<title>node_8&#45;&gt;node_10</title>
<path fill="none" stroke="black" d="M140.47,-218.83C123.59,-208.56 100.51,-194.51 81.73,-183.08"/>
<polygon fill="black" stroke="black" points="83.54,-180.08 73.17,-177.87 79.9,-186.06 83.54,-180.08"/>
</g>
<!-- node_12 -->
<g id="node7" class="node">
<title>node_12</title>
<ellipse fill="none" stroke="black" cx="163.75" cy="-162" rx="48.99" ry="18"/>
<text text-anchor="middle" x="163.75" y="-158.3" font-family="Times,serif" font-size="14.00">Capa 12</text>
</g>
<!-- node_8&#45;&gt;node_12 -->
<g id="edge6" class="edge">
<title>node_8&#45;&gt;node_12</title>
<path fill="none" stroke="black" d="M163.75,-215.7C163.75,-207.98 163.75,-198.71 163.75,-190.11"/>
<polygon fill="black" stroke="black" points="167.25,-190.1 163.75,-180.1 160.25,-190.1 167.25,-190.1"/>
</g>
<!-- node_4 -->
<g id="node9" class="node">
<title>node_4</title>
<ellipse fill="none" stroke="black" cx="273.75" cy="-162" rx="42.79" ry="18"/>
<text text-anchor="middle" x="273.75" y="-158.3" font-family="Times,serif" font-size="14.00">Capa 4</text>
</g>
<!-- node_3&#45;&gt;node_4 -->
<g id="edge8" class="edge">
<title>node_3&#45;&gt;node_4</title>
<path fill="none" stroke="black" d="M271.49,-215.7C271.82,-207.98 272.22,-198.71 272.58,-190.11"/>
<polygon fill="black" stroke="black" points="276.08,-190.25 273.01,-180.1 269.09,-189.95 276.08,-190.25"/>
</g>
<!-- node_11 -->
<g id="node8" class="node">
<title>node_11</title>
<ellipse fill="none" stroke="black" cx="48.75" cy="-90" rx="48.99" ry="18"/>
<text text-anchor="middle" x="48.75" y="-86.3" font-family="Times,serif" font-size="14.00">Capa 11</text>
</g>
<!-- node_10&#45;&gt;node_11 -->
<g id="edge7" class="edge">
<title>node_10&#45;&gt;node_11</title>
<path fill="none" stroke="black" d="M48.75,-143.7C48.75,-135.98 48.75,-126.71 48.75,-118.11"/>
<polygon fill="black" stroke="black" points="52.25,-118.1 48.75,-108.1 45.25,-118.1 52.25,-118.1"/>
</g>
<!-- node_6 -->
<g id="node10" class="node">
<title>node_6</title>
<ellipse fill="none" stroke="black" cx="221.75" cy="-90" rx="42.79" ry="18"/>
<text text-anchor="middle" x="221.75" y="-86.3" font-family="Times,serif" font-size="14.00">Capa 6</text>
</g>
<!-- node_4&#45;&gt;node_6 -->
<g id="edge9" class="edge">
<title>node_4&#45;&gt;node_6</title>
<path fill="none" stroke="black" d="M261.42,-144.41C255.08,-135.87 247.21,-125.28 240.16,-115.79"/>
<polygon fill="black" stroke="black" points="242.75,-113.41 233.98,-107.47 237.13,-117.58 242.75,-113.41"/>
</g>
<!-- node_5 -->
<g id="node11" class="node">
<title>node_5</title>
<ellipse fill="none" stroke="black" cx="325.75" cy="-90" rx="42.79" ry="18"/>
<text text-anchor="middle" x="325.75" y="-86.3" font-family="Times,serif" font-size="14.00">Capa 5</text>
</g>
<!-- node_4&#45;&gt;node_5 -->
<g id="edge10" class="edge">
<title>node_4&#45;&gt;node_5</title>
<path fill="none" stroke="black" d="M286.07,-144.41C292.42,-135.87 300.28,-125.28 307.33,-115.79"/>
<polygon fill="black" stroke="black" points="310.36,-117.58 313.51,-107.47 304.74,-113.41 310.36,-117.58"/>
</g>
<!-- node_7 -->
<g id="node12" class="node">
<title>node_7</title>
<ellipse fill="none" stroke="black" cx="221.75" cy="-18" rx="42.79" ry="18"/>
<text text-anchor="middle" x="221.75" y="-14.3" font-family="Times,serif" font-size="14.00">Capa 7</text>
</g>
<!-- node_6&#45;&gt;node_7 -->
<g id="edge11" class="edge">
<title>node_6&#45;&gt;node_7</title>
<path fill="none" stroke="black" d="M221.75,-71.7C221.75,-63.98 221.75,-54.71 221.75,-46.11"/>
<polygon fill="black" stroke="black" points="225.25,-46.1 221.75,-36.1 218.25,-46.1 225.25,-46.1"/>
</g>
<!-- node_9 -->
<g id="node13" class="node">
<title>node_9</title>
<ellipse fill="none" stroke="black" cx="325.75" cy="-18" rx="42.79" ry="18"/>
<text text-anchor="middle" x="325.75" y="-14.3" font-family="Times,serif" font-size="14.00">Capa 9</text>
</g>
<!-- node_5&#45;&gt;node_9 -->
<g id="edge12" class="edge">
<title>node_5&#45;&gt;node_9</title>
<path fill="none" stroke="black" d="M325.75,-71.7C325.75,-63.98 325.75,-54.71 325.75,-46.11"/>
<polygon fill="black" stroke="black" points="329.25,-46.1 325.75,-36.1 322.25,-46.1 329.25,-46.1"/>
</g>
</g>
</svg>
