<?xml version="1.0" encoding="UTF-8" standalone="no"?>
<!DOCTYPE svg PUBLIC "-//W3C//DTD SVG 1.1//EN"
 "http://www.w3.org/Graphics/SVG/1.1/DTD/svg11.dtd">
<!-- Generated by graphviz version 2.43.0 (0)
 -->
<!-- Title: G Pages: 1 -->
<svg width="210pt" height="476pt"
 viewBox="0.00 0.00 209.64 476.00" xmlns="http://www.w3.org/2000/svg" xmlns:xlink="http://www.w3.org/1999/xlink">
<g id="graph0" class="graph" transform="scale(1 1) rotate(0) translate(4 472)">
<title>G</title>
<polygon fill="white" stroke="transparent" points="-4,4 -4,-472 205.64,-472 205.64,4 -4,4"/>
<!-- node_6 -->
<g id="node1" class="node">
<title>node_6</title>
<ellipse fill="none" stroke="black" cx="98.9" cy="-450" rx="42.79" ry="18"/>
<text text-anchor="middle" x="98.9" y="-446.3" font-family="Times,serif" font-size="14.00">Capa 6</text>
</g>
<!-- node_5 -->
<g id="node2" class="node">
<title>node_5</title>
<ellipse fill="none" stroke="black" cx="46.9" cy="-378" rx="42.79" ry="18"/>
<text text-anchor="middle" x="46.9" y="-374.3" font-family="Times,serif" font-size="14.00">Capa 5</text>
</g>
<!-- node_6&#45;&gt;node_5 -->
<g id="edge1" class="edge">
<title>node_6&#45;&gt;node_5</title>
<path fill="none" stroke="black" d="M86.57,-432.41C80.23,-423.87 72.36,-413.28 65.31,-403.79"/>
<polygon fill="black" stroke="black" points="67.9,-401.41 59.13,-395.47 62.28,-405.58 67.9,-401.41"/>
</g>
<!-- node_7 -->
<g id="node3" class="node">
<title>node_7</title>
<ellipse fill="none" stroke="black" cx="150.9" cy="-378" rx="42.79" ry="18"/>
<text text-anchor="middle" x="150.9" y="-374.3" font-family="Times,serif" font-size="14.00">Capa 7</text>
</g>
<!-- node_6&#45;&gt;node_7 -->
<g id="edge2" class="edge">
<title>node_6&#45;&gt;node_7</title>
<path fill="none" stroke="black" d="M111.22,-432.41C117.57,-423.87 125.43,-413.28 132.48,-403.79"/>
<polygon fill="black" stroke="black" points="135.51,-405.58 138.66,-395.47 129.89,-401.41 135.51,-405.58"/>
</g>
<!-- node_4 -->
<g id="node4" class="node">
<title>node_4</title>
<ellipse fill="none" stroke="black" cx="46.9" cy="-306" rx="42.79" ry="18"/>
<text text-anchor="middle" x="46.9" y="-302.3" font-family="Times,serif" font-size="14.00">Capa 4</text>
</g>
<!-- node_5&#45;&gt;node_4 -->
<g id="edge3" class="edge">
<title>node_5&#45;&gt;node_4</title>
<path fill="none" stroke="black" d="M46.9,-359.7C46.9,-351.98 46.9,-342.71 46.9,-334.11"/>
<polygon fill="black" stroke="black" points="50.4,-334.1 46.9,-324.1 43.4,-334.1 50.4,-334.1"/>
</g>
<!-- node_8 -->
<g id="node9" class="node">
<title>node_8</title>
<ellipse fill="none" stroke="black" cx="151.9" cy="-306" rx="42.79" ry="18"/>
<text text-anchor="middle" x="151.9" y="-302.3" font-family="Times,serif" font-size="14.00">Capa 8</text>
</g>
<!-- node_7&#45;&gt;node_8 -->
<g id="edge8" class="edge">
<title>node_7&#45;&gt;node_8</title>
<path fill="none" stroke="black" d="M151.14,-359.7C151.25,-351.98 151.39,-342.71 151.51,-334.11"/>
<polygon fill="black" stroke="black" points="155.01,-334.15 151.65,-324.1 148.01,-334.05 155.01,-334.15"/>
</g>
<!-- node_3 -->
<g id="node5" class="node">
<title>node_3</title>
<ellipse fill="none" stroke="black" cx="45.9" cy="-234" rx="42.79" ry="18"/>
<text text-anchor="middle" x="45.9" y="-230.3" font-family="Times,serif" font-size="14.00">Capa 3</text>
</g>
<!-- node_4&#45;&gt;node_3 -->
<g id="edge4" class="edge">
<title>node_4&#45;&gt;node_3</title>
<path fill="none" stroke="black" d="M46.65,-287.7C46.54,-279.98 46.41,-270.71 46.28,-262.11"/>
<polygon fill="black" stroke="black" points="49.78,-262.05 46.14,-252.1 42.78,-262.15 49.78,-262.05"/>
</g>
<!-- node_2 -->
<g id="node6" class="node">
<title>node_2</title>
<ellipse fill="none" stroke="black" cx="42.9" cy="-162" rx="42.79" ry="18"/>
<text text-anchor="middle" x="42.9" y="-158.3" font-family="Times,serif" font-size="14.00">Capa 2</text>
</g>
<!-- node_3&#45;&gt;node_2 -->
<g id="edge5" class="edge">
<title>node_3&#45;&gt;node_2</title>
<path fill="none" stroke="black" d="M45.15,-215.7C44.82,-207.98 44.43,-198.71 44.06,-190.11"/>
<polygon fill="black" stroke="black" points="47.55,-189.95 43.63,-180.1 40.56,-190.25 47.55,-189.95"/>
</g>
<!-- node_1 -->
<g id="node7" class="node">
<title>node_1</title>
<ellipse fill="none" stroke="black" cx="42.9" cy="-90" rx="42.79" ry="18"/>
<text text-anchor="middle" x="42.9" y="-86.3" font-family="Times,serif" font-size="14.00">Capa 1</text>
</g>
<!-- node_2&#45;&gt;node_1 -->
<g id="edge6" class="edge">
<title>node_2&#45;&gt;node_1</title>
<path fill="none" stroke="black" d="M42.9,-143.7C42.9,-135.98 42.9,-126.71 42.9,-118.11"/>
<polygon fill="black" stroke="black" points="46.4,-118.1 42.9,-108.1 39.4,-118.1 46.4,-118.1"/>
</g>
<!-- node_0 -->
<g id="node8" class="node">
<title>node_0</title>
<ellipse fill="none" stroke="black" cx="42.9" cy="-18" rx="42.79" ry="18"/>
<text text-anchor="middle" x="42.9" y="-14.3" font-family="Times,serif" font-size="14.00">Capa 0</text>
</g>
<!-- node_1&#45;&gt;node_0 -->
<g id="edge7" class="edge">
<title>node_1&#45;&gt;node_0</title>
<path fill="none" stroke="black" d="M42.9,-71.7C42.9,-63.98 42.9,-54.71 42.9,-46.11"/>
<polygon fill="black" stroke="black" points="46.4,-46.1 42.9,-36.1 39.4,-46.1 46.4,-46.1"/>
</g>
<!-- node_9 -->
<g id="node10" class="node">
<title>node_9</title>
<ellipse fill="none" stroke="black" cx="151.9" cy="-234" rx="42.79" ry="18"/>
<text text-anchor="middle" x="151.9" y="-230.3" font-family="Times,serif" font-size="14.00">Capa 9</text>
</g>
<!-- node_8&#45;&gt;node_9 -->
<g id="edge9" class="edge">
<title>node_8&#45;&gt;node_9</title>
<path fill="none" stroke="black" d="M151.9,-287.7C151.9,-279.98 151.9,-270.71 151.9,-262.11"/>
<polygon fill="black" stroke="black" points="155.4,-262.1 151.9,-252.1 148.4,-262.1 155.4,-262.1"/>
</g>
<!-- node_10 -->
<g id="node11" class="node">
<title>node_10</title>
<ellipse fill="none" stroke="black" cx="152.9" cy="-162" rx="48.99" ry="18"/>
<text text-anchor="middle" x="152.9" y="-158.3" font-family="Times,serif" font-size="14.00">Capa 10</text>
</g>
<!-- node_9&#45;&gt;node_10 -->
<g id="edge10" class="edge">
<title>node_9&#45;&gt;node_10</title>
<path fill="none" stroke="black" d="M152.14,-215.7C152.25,-207.98 152.39,-198.71 152.51,-190.11"/>
<polygon fill="black" stroke="black" points="156.01,-190.15 152.65,-180.1 149.01,-190.05 156.01,-190.15"/>
</g>
<!-- node_11 -->
<g id="node12" class="node">
<title>node_11</title>
<ellipse fill="none" stroke="black" cx="152.9" cy="-90" rx="48.99" ry="18"/>
<text text-anchor="middle" x="152.9" y="-86.3" font-family="Times,serif" font-size="14.00">Capa 11</text>
</g>
<!-- node_10&#45;&gt;node_11 -->
<g id="edge11" class="edge">
<title>node_10&#45;&gt;node_11</title>
<path fill="none" stroke="black" d="M152.9,-143.7C152.9,-135.98 152.9,-126.71 152.9,-118.11"/>
<polygon fill="black" stroke="black" points="156.4,-118.1 152.9,-108.1 149.4,-118.1 156.4,-118.1"/>
</g>
<!-- node_12 -->
<g id="node13" class="node">
<title>node_12</title>
<ellipse fill="none" stroke="black" cx="152.9" cy="-18" rx="48.99" ry="18"/>
<text text-anchor="middle" x="152.9" y="-14.3" font-family="Times,serif" font-size="14.00">Capa 12</text>
</g>
<!-- node_11&#45;&gt;node_12 -->
<g id="edge12" class="edge">
<title>node_11&#45;&gt;node_12</title>
<path fill="none" stroke="black" d="M152.9,-71.7C152.9,-63.98 152.9,-54.71 152.9,-46.11"/>
<polygon fill="black" stroke="black" points="156.4,-46.1 152.9,-36.1 149.4,-46.1 156.4,-46.1"/>
</g>
</g>
</svg>
