<?xml version="1.0" encoding="UTF-8" standalone="no"?>
<!DOCTYPE svg PUBLIC "-//W3C//DTD SVG 1.1//EN"
 "http://www.w3.org/Graphics/SVG/1.1/DTD/svg11.dtd">
<!-- Generated by graphviz version 2.43.0 (0)
 -->
<!-- Title: Layer1 Pages: 1 -->
<svg width="891pt" height="620pt"
 viewBox="0.00 0.00 891.00 620.00" xmlns="http://www.w3.org/2000/svg" xmlns:xlink="http://www.w3.org/1999/xlink">
<g id="graph0" class="graph" transform="scale(1 1) rotate(0) translate(4 616)">
<title>Layer1</title>
<polygon fill="white" stroke="transparent" points="-4,4 -4,-616 887,-616 887,4 -4,4"/>
<!-- root -->
<g id="node1" class="node">
<title>root</title>
<polygon fill="lightgrey" stroke="black" points="59,-612 0,-612 0,-576 59,-576 59,-612"/>
<text text-anchor="middle" x="29.5" y="-590.3" font-family="Times,serif" font-size="14.00">ROOT</text>
</g>
<!-- row_0 -->
<g id="node2" class="node">
<title>row_0</title>
<polygon fill="lightgrey" stroke="black" points="56.5,-540 2.5,-540 2.5,-504 56.5,-504 56.5,-540"/>
<text text-anchor="middle" x="29.5" y="-518.3" font-family="Times,serif" font-size="14.00">ROW</text>
</g>
<!-- root&#45;&gt;row_0 -->
<g id="edge15" class="edge">
<title>root&#45;&gt;row_0</title>
<path fill="none" stroke="black" d="M29.5,-575.7C29.5,-567.98 29.5,-558.71 29.5,-550.11"/>
<polygon fill="black" stroke="black" points="33,-550.1 29.5,-540.1 26,-550.1 33,-550.1"/>
</g>
<!-- col_0 -->
<g id="node10" class="node">
<title>col_0</title>
<polygon fill="lightgrey" stroke="black" points="162,-612 77,-612 77,-576 162,-576 162,-612"/>
<text text-anchor="middle" x="119.5" y="-590.3" font-family="Times,serif" font-size="14.00">COLUMN</text>
</g>
<!-- root&#45;&gt;col_0 -->
<g id="edge16" class="edge">
<title>root&#45;&gt;col_0</title>
<path fill="none" stroke="black" d="M59.03,-594C61.65,-594 64.27,-594 66.89,-594"/>
<polygon fill="black" stroke="black" points="66.98,-597.5 76.98,-594 66.98,-590.5 66.98,-597.5"/>
</g>
<!-- row_1 -->
<g id="node3" class="node">
<title>row_1</title>
<polygon fill="lightgrey" stroke="black" points="56.5,-468 2.5,-468 2.5,-432 56.5,-432 56.5,-468"/>
<text text-anchor="middle" x="29.5" y="-446.3" font-family="Times,serif" font-size="14.00">ROW</text>
</g>
<!-- row_0&#45;&gt;row_1 -->
<g id="edge1" class="edge">
<title>row_0&#45;&gt;row_1</title>
<path fill="none" stroke="black" d="M29.5,-503.7C29.5,-495.98 29.5,-486.71 29.5,-478.11"/>
<polygon fill="black" stroke="black" points="33,-478.1 29.5,-468.1 26,-478.1 33,-478.1"/>
</g>
<!-- row_2 -->
<g id="node4" class="node">
<title>row_2</title>
<polygon fill="lightgrey" stroke="black" points="56.5,-396 2.5,-396 2.5,-360 56.5,-360 56.5,-396"/>
<text text-anchor="middle" x="29.5" y="-374.3" font-family="Times,serif" font-size="14.00">ROW</text>
</g>
<!-- row_1&#45;&gt;row_2 -->
<g id="edge2" class="edge">
<title>row_1&#45;&gt;row_2</title>
<path fill="none" stroke="black" d="M29.5,-431.7C29.5,-423.98 29.5,-414.71 29.5,-406.11"/>
<polygon fill="black" stroke="black" points="33,-406.1 29.5,-396.1 26,-406.1 33,-406.1"/>
</g>
<!-- row_3 -->
<g id="node5" class="node">
<title>row_3</title>
<polygon fill="lightgrey" stroke="black" points="56.5,-324 2.5,-324 2.5,-288 56.5,-288 56.5,-324"/>
<text text-anchor="middle" x="29.5" y="-302.3" font-family="Times,serif" font-size="14.00">ROW</text>
</g>
<!-- row_2&#45;&gt;row_3 -->
<g id="edge3" class="edge">
<title>row_2&#45;&gt;row_3</title>
<path fill="none" stroke="black" d="M29.5,-359.7C29.5,-351.98 29.5,-342.71 29.5,-334.11"/>
<polygon fill="black" stroke="black" points="33,-334.1 29.5,-324.1 26,-334.1 33,-334.1"/>
</g>
<!-- node_1 -->
<g id="node22" class="node">
<title>node_1</title>
<polygon fill="#00ff00" stroke="#00ff00" points="661.5,-396 607.5,-396 607.5,-360 661.5,-360 661.5,-396"/>
<text text-anchor="middle" x="634.5" y="-374.3" font-family="Times,serif" font-size="14.00">X</text>
</g>
<!-- row_2&#45;&gt;node_1 -->
<g id="edge24" class="edge">
<title>row_2&#45;&gt;node_1</title>
<path fill="none" stroke="black" d="M56.68,-375.68C236.85,-361.05 417.02,-360.78 597.2,-374.88"/>
<polygon fill="black" stroke="black" points="597.17,-378.38 607.41,-375.69 597.72,-371.41 597.17,-378.38"/>
</g>
<!-- row_4 -->
<g id="node6" class="node">
<title>row_4</title>
<polygon fill="lightgrey" stroke="black" points="56.5,-252 2.5,-252 2.5,-216 56.5,-216 56.5,-252"/>
<text text-anchor="middle" x="29.5" y="-230.3" font-family="Times,serif" font-size="14.00">ROW</text>
</g>
<!-- row_3&#45;&gt;row_4 -->
<g id="edge4" class="edge">
<title>row_3&#45;&gt;row_4</title>
<path fill="none" stroke="black" d="M29.5,-287.7C29.5,-279.98 29.5,-270.71 29.5,-262.11"/>
<polygon fill="black" stroke="black" points="33,-262.1 29.5,-252.1 26,-262.1 33,-262.1"/>
</g>
<!-- node_0 -->
<g id="node18" class="node">
<title>node_0</title>
<polygon fill="#ff0000" stroke="#ff0000" points="249.5,-324 195.5,-324 195.5,-288 249.5,-288 249.5,-324"/>
<text text-anchor="middle" x="222.5" y="-302.3" font-family="Times,serif" font-size="14.00">X</text>
</g>
<!-- row_3&#45;&gt;node_0 -->
<g id="edge27" class="edge">
<title>row_3&#45;&gt;node_0</title>
<path fill="none" stroke="black" d="M56.64,-299.47C99.52,-290.85 142.39,-290.22 185.27,-297.59"/>
<polygon fill="black" stroke="black" points="184.82,-301.07 195.29,-299.46 186.1,-294.19 184.82,-301.07"/>
</g>
<!-- row_5 -->
<g id="node7" class="node">
<title>row_5</title>
<polygon fill="lightgrey" stroke="black" points="56.5,-180 2.5,-180 2.5,-144 56.5,-144 56.5,-180"/>
<text text-anchor="middle" x="29.5" y="-158.3" font-family="Times,serif" font-size="14.00">ROW</text>
</g>
<!-- row_4&#45;&gt;row_5 -->
<g id="edge5" class="edge">
<title>row_4&#45;&gt;row_5</title>
<path fill="none" stroke="black" d="M29.5,-215.7C29.5,-207.98 29.5,-198.71 29.5,-190.11"/>
<polygon fill="black" stroke="black" points="33,-190.1 29.5,-180.1 26,-190.1 33,-190.1"/>
</g>
<!-- node_4 -->
<g id="node19" class="node">
<title>node_4</title>
<polygon fill="#00ffff" stroke="#00ffff" points="352.5,-252 298.5,-252 298.5,-216 352.5,-216 352.5,-252"/>
<text text-anchor="middle" x="325.5" y="-230.3" font-family="Times,serif" font-size="14.00">X</text>
</g>
<!-- row_4&#45;&gt;node_4 -->
<g id="edge33" class="edge">
<title>row_4&#45;&gt;node_4</title>
<path fill="none" stroke="black" d="M56.67,-229.5C133.96,-217.99 211.25,-217.52 288.54,-228.1"/>
<polygon fill="black" stroke="black" points="288.06,-231.57 298.46,-229.52 289.06,-224.64 288.06,-231.57"/>
</g>
<!-- row_6 -->
<g id="node8" class="node">
<title>row_6</title>
<polygon fill="lightgrey" stroke="black" points="56.5,-108 2.5,-108 2.5,-72 56.5,-72 56.5,-108"/>
<text text-anchor="middle" x="29.5" y="-86.3" font-family="Times,serif" font-size="14.00">ROW</text>
</g>
<!-- row_5&#45;&gt;row_6 -->
<g id="edge6" class="edge">
<title>row_5&#45;&gt;row_6</title>
<path fill="none" stroke="black" d="M29.5,-143.7C29.5,-135.98 29.5,-126.71 29.5,-118.11"/>
<polygon fill="black" stroke="black" points="33,-118.1 29.5,-108.1 26,-118.1 33,-118.1"/>
</g>
<!-- node_5 -->
<g id="node23" class="node">
<title>node_5</title>
<polygon fill="#ff00ff" stroke="#ff00ff" points="764.5,-180 710.5,-180 710.5,-144 764.5,-144 764.5,-180"/>
<text text-anchor="middle" x="737.5" y="-158.3" font-family="Times,serif" font-size="14.00">X</text>
</g>
<!-- row_5&#45;&gt;node_5 -->
<g id="edge36" class="edge">
<title>row_5&#45;&gt;node_5</title>
<path fill="none" stroke="black" d="M56.81,-160C271.22,-144.91 485.63,-144.67 700.04,-159.29"/>
<polygon fill="black" stroke="black" points="700.03,-162.8 710.25,-160 700.51,-155.82 700.03,-162.8"/>
</g>
<!-- row_7 -->
<g id="node9" class="node">
<title>row_7</title>
<polygon fill="lightgrey" stroke="black" points="56.5,-36 2.5,-36 2.5,0 56.5,0 56.5,-36"/>
<text text-anchor="middle" x="29.5" y="-14.3" font-family="Times,serif" font-size="14.00">ROW</text>
</g>
<!-- row_6&#45;&gt;row_7 -->
<g id="edge7" class="edge">
<title>row_6&#45;&gt;row_7</title>
<path fill="none" stroke="black" d="M29.5,-71.7C29.5,-63.98 29.5,-54.71 29.5,-46.11"/>
<polygon fill="black" stroke="black" points="33,-46.1 29.5,-36.1 26,-46.1 33,-46.1"/>
</g>
<!-- node_3 -->
<g id="node21" class="node">
<title>node_3</title>
<polygon fill="#ffff00" stroke="#ffff00" points="558.5,-108 504.5,-108 504.5,-72 558.5,-72 558.5,-108"/>
<text text-anchor="middle" x="531.5" y="-86.3" font-family="Times,serif" font-size="14.00">X</text>
</g>
<!-- row_6&#45;&gt;node_3 -->
<g id="edge39" class="edge">
<title>row_6&#45;&gt;node_3</title>
<path fill="none" stroke="black" d="M56.95,-87.21C202.67,-73.25 348.39,-72.94 494.11,-86.28"/>
<polygon fill="black" stroke="black" points="493.88,-89.77 504.16,-87.22 494.53,-82.8 493.88,-89.77"/>
</g>
<!-- node_6 -->
<g id="node24" class="node">
<title>node_6</title>
<polygon fill="#000000" stroke="#000000" points="867.5,-36 813.5,-36 813.5,0 867.5,0 867.5,-36"/>
<text text-anchor="middle" x="840.5" y="-14.3" font-family="Times,serif" font-size="14.00">X</text>
</g>
<!-- row_7&#45;&gt;node_6 -->
<g id="edge42" class="edge">
<title>row_7&#45;&gt;node_6</title>
<path fill="none" stroke="black" d="M56.82,-16.24C305.55,-0.8 554.27,-0.59 802.99,-15.62"/>
<polygon fill="black" stroke="black" points="803.14,-19.13 813.33,-16.25 803.56,-12.15 803.14,-19.13"/>
</g>
<!-- col_1 -->
<g id="node11" class="node">
<title>col_1</title>
<polygon fill="lightgrey" stroke="black" points="265,-612 180,-612 180,-576 265,-576 265,-612"/>
<text text-anchor="middle" x="222.5" y="-590.3" font-family="Times,serif" font-size="14.00">COLUMN</text>
</g>
<!-- col_0&#45;&gt;col_1 -->
<g id="edge8" class="edge">
<title>col_0&#45;&gt;col_1</title>
<path fill="none" stroke="black" d="M162.15,-594C164.6,-594 167.05,-594 169.51,-594"/>
<polygon fill="black" stroke="black" points="169.59,-597.5 179.59,-594 169.59,-590.5 169.59,-597.5"/>
</g>
<!-- col_2 -->
<g id="node12" class="node">
<title>col_2</title>
<polygon fill="lightgrey" stroke="black" points="368,-612 283,-612 283,-576 368,-576 368,-612"/>
<text text-anchor="middle" x="325.5" y="-590.3" font-family="Times,serif" font-size="14.00">COLUMN</text>
</g>
<!-- col_1&#45;&gt;col_2 -->
<g id="edge9" class="edge">
<title>col_1&#45;&gt;col_2</title>
<path fill="none" stroke="black" d="M265.15,-594C267.6,-594 270.05,-594 272.51,-594"/>
<polygon fill="black" stroke="black" points="272.59,-597.5 282.59,-594 272.59,-590.5 272.59,-597.5"/>
</g>
<!-- col_1&#45;&gt;node_0 -->
<g id="edge17" class="edge">
<title>col_1&#45;&gt;node_0</title>
<path fill="none" stroke="black" d="M219.09,-575.97C214.91,-528.29 214.65,-393.18 218.31,-334.63"/>
<polygon fill="black" stroke="black" points="221.82,-334.54 219.06,-324.31 214.84,-334.02 221.82,-334.54"/>
</g>
<!-- col_3 -->
<g id="node13" class="node">
<title>col_3</title>
<polygon fill="lightgrey" stroke="black" points="471,-612 386,-612 386,-576 471,-576 471,-612"/>
<text text-anchor="middle" x="428.5" y="-590.3" font-family="Times,serif" font-size="14.00">COLUMN</text>
</g>
<!-- col_2&#45;&gt;col_3 -->
<g id="edge10" class="edge">
<title>col_2&#45;&gt;col_3</title>
<path fill="none" stroke="black" d="M368.15,-594C370.6,-594 373.05,-594 375.51,-594"/>
<polygon fill="black" stroke="black" points="375.59,-597.5 385.59,-594 375.59,-590.5 375.59,-597.5"/>
</g>
<!-- col_2&#45;&gt;node_4 -->
<g id="edge18" class="edge">
<title>col_2&#45;&gt;node_4</title>
<path fill="none" stroke="black" d="M319.79,-575.95C316.5,-549.29 316.5,-496.11 316.5,-451 316.5,-451 316.5,-451 316.5,-377 316.5,-337 316.5,-290.65 318.79,-262.08"/>
<polygon fill="black" stroke="black" points="322.28,-262.35 319.79,-252.05 315.32,-261.65 322.28,-262.35"/>
</g>
<!-- col_4 -->
<g id="node14" class="node">
<title>col_4</title>
<polygon fill="lightgrey" stroke="black" points="574,-612 489,-612 489,-576 574,-576 574,-612"/>
<text text-anchor="middle" x="531.5" y="-590.3" font-family="Times,serif" font-size="14.00">COLUMN</text>
</g>
<!-- col_3&#45;&gt;col_4 -->
<g id="edge11" class="edge">
<title>col_3&#45;&gt;col_4</title>
<path fill="none" stroke="black" d="M471.15,-594C473.6,-594 476.05,-594 478.51,-594"/>
<polygon fill="black" stroke="black" points="478.59,-597.5 488.59,-594 478.59,-590.5 478.59,-597.5"/>
</g>
<!-- node_2 -->
<g id="node20" class="node">
<title>node_2</title>
<polygon fill="#0000ff" stroke="#0000ff" points="455.5,-324 401.5,-324 401.5,-288 455.5,-288 455.5,-324"/>
<text text-anchor="middle" x="428.5" y="-302.3" font-family="Times,serif" font-size="14.00">X</text>
</g>
<!-- col_3&#45;&gt;node_2 -->
<g id="edge19" class="edge">
<title>col_3&#45;&gt;node_2</title>
<path fill="none" stroke="black" d="M425.09,-575.97C420.91,-528.29 420.65,-393.18 424.31,-334.63"/>
<polygon fill="black" stroke="black" points="427.82,-334.54 425.06,-324.31 420.84,-334.02 427.82,-334.54"/>
</g>
<!-- col_5 -->
<g id="node15" class="node">
<title>col_5</title>
<polygon fill="lightgrey" stroke="black" points="677,-612 592,-612 592,-576 677,-576 677,-612"/>
<text text-anchor="middle" x="634.5" y="-590.3" font-family="Times,serif" font-size="14.00">COLUMN</text>
</g>
<!-- col_4&#45;&gt;col_5 -->
<g id="edge12" class="edge">
<title>col_4&#45;&gt;col_5</title>
<path fill="none" stroke="black" d="M574.15,-594C576.6,-594 579.05,-594 581.51,-594"/>
<polygon fill="black" stroke="black" points="581.59,-597.5 591.59,-594 581.59,-590.5 581.59,-597.5"/>
</g>
<!-- col_4&#45;&gt;node_3 -->
<g id="edge20" class="edge">
<title>col_4&#45;&gt;node_3</title>
<path fill="none" stroke="black" d="M525.79,-575.95C522.5,-549.29 522.5,-496.11 522.5,-451 522.5,-451 522.5,-451 522.5,-233 522.5,-193 522.5,-146.65 524.79,-118.08"/>
<polygon fill="black" stroke="black" points="528.28,-118.35 525.79,-108.05 521.32,-117.65 528.28,-118.35"/>
</g>
<!-- col_6 -->
<g id="node16" class="node">
<title>col_6</title>
<polygon fill="lightgrey" stroke="black" points="780,-612 695,-612 695,-576 780,-576 780,-612"/>
<text text-anchor="middle" x="737.5" y="-590.3" font-family="Times,serif" font-size="14.00">COLUMN</text>
</g>
<!-- col_5&#45;&gt;col_6 -->
<g id="edge13" class="edge">
<title>col_5&#45;&gt;col_6</title>
<path fill="none" stroke="black" d="M677.15,-594C679.6,-594 682.05,-594 684.51,-594"/>
<polygon fill="black" stroke="black" points="684.59,-597.5 694.59,-594 684.59,-590.5 684.59,-597.5"/>
</g>
<!-- col_5&#45;&gt;node_1 -->
<g id="edge21" class="edge">
<title>col_5&#45;&gt;node_1</title>
<path fill="none" stroke="black" d="M630.62,-575.85C627.09,-538.83 626.82,-451.18 629.81,-406.39"/>
<polygon fill="black" stroke="black" points="633.31,-406.48 630.61,-396.23 626.33,-405.92 633.31,-406.48"/>
</g>
<!-- col_7 -->
<g id="node17" class="node">
<title>col_7</title>
<polygon fill="lightgrey" stroke="black" points="883,-612 798,-612 798,-576 883,-576 883,-612"/>
<text text-anchor="middle" x="840.5" y="-590.3" font-family="Times,serif" font-size="14.00">COLUMN</text>
</g>
<!-- col_6&#45;&gt;col_7 -->
<g id="edge14" class="edge">
<title>col_6&#45;&gt;col_7</title>
<path fill="none" stroke="black" d="M780.15,-594C782.6,-594 785.05,-594 787.51,-594"/>
<polygon fill="black" stroke="black" points="787.59,-597.5 797.59,-594 787.59,-590.5 787.59,-597.5"/>
</g>
<!-- col_6&#45;&gt;node_5 -->
<g id="edge22" class="edge">
<title>col_6&#45;&gt;node_5</title>
<path fill="none" stroke="black" d="M731.79,-575.95C728.5,-549.29 728.5,-496.11 728.5,-451 728.5,-451 728.5,-451 728.5,-305 728.5,-265 728.5,-218.65 730.79,-190.08"/>
<polygon fill="black" stroke="black" points="734.28,-190.35 731.79,-180.05 727.32,-189.65 734.28,-190.35"/>
</g>
<!-- col_7&#45;&gt;node_6 -->
<g id="edge23" class="edge">
<title>col_7&#45;&gt;node_6</title>
<path fill="none" stroke="black" d="M834.79,-575.95C831.5,-549.29 831.5,-496.11 831.5,-451 831.5,-451 831.5,-451 831.5,-161 831.5,-121 831.5,-74.65 833.79,-46.08"/>
<polygon fill="black" stroke="black" points="837.28,-46.35 834.79,-36.05 830.32,-45.65 837.28,-46.35"/>
</g>
<!-- node_0&#45;&gt;row_3 -->
<g id="edge30" class="edge">
<title>node_0&#45;&gt;row_3</title>
<path fill="none" stroke="black" d="M195.29,-312.54C152.41,-321.15 109.54,-321.77 66.66,-314.4"/>
<polygon fill="black" stroke="black" points="67.11,-310.92 56.64,-312.53 65.83,-317.8 67.11,-310.92"/>
</g>
<!-- node_0&#45;&gt;col_1 -->
<g id="edge28" class="edge">
<title>node_0&#45;&gt;col_1</title>
<path fill="none" stroke="black" d="M225.94,-324.31C230.09,-372.31 230.34,-507.44 226.67,-565.7"/>
<polygon fill="black" stroke="black" points="223.16,-565.74 225.91,-575.97 230.14,-566.25 223.16,-565.74"/>
</g>
<!-- node_0&#45;&gt;node_2 -->
<g id="edge29" class="edge">
<title>node_0&#45;&gt;node_2</title>
<path fill="none" stroke="black" d="M249.86,-299.78C296.98,-290.71 344.11,-290.11 391.23,-298"/>
<polygon fill="black" stroke="black" points="390.82,-301.48 401.29,-299.81 392.06,-294.59 390.82,-301.48"/>
</g>
<!-- node_4&#45;&gt;row_4 -->
<g id="edge35" class="edge">
<title>node_4&#45;&gt;row_4</title>
<path fill="none" stroke="black" d="M298.46,-238.48C221.17,-250.01 143.88,-250.49 66.59,-239.92"/>
<polygon fill="black" stroke="black" points="67.07,-236.45 56.67,-238.5 66.08,-243.38 67.07,-236.45"/>
</g>
<!-- node_4&#45;&gt;col_2 -->
<g id="edge34" class="edge">
<title>node_4&#45;&gt;col_2</title>
<path fill="none" stroke="black" d="M331.21,-252.05C334.5,-278.71 334.5,-331.89 334.5,-377 334.5,-451 334.5,-451 334.5,-451 334.5,-491 334.5,-537.35 332.21,-565.92"/>
<polygon fill="black" stroke="black" points="328.72,-565.65 331.21,-575.95 335.68,-566.35 328.72,-565.65"/>
</g>
<!-- node_2&#45;&gt;col_3 -->
<g id="edge31" class="edge">
<title>node_2&#45;&gt;col_3</title>
<path fill="none" stroke="black" d="M431.94,-324.31C436.09,-372.31 436.34,-507.44 432.67,-565.7"/>
<polygon fill="black" stroke="black" points="429.16,-565.74 431.91,-575.97 436.14,-566.25 429.16,-565.74"/>
</g>
<!-- node_2&#45;&gt;node_0 -->
<g id="edge32" class="edge">
<title>node_2&#45;&gt;node_0</title>
<path fill="none" stroke="black" d="M401.29,-312.19C354.16,-321.28 307.04,-321.89 259.91,-314.03"/>
<polygon fill="black" stroke="black" points="260.32,-310.54 249.86,-312.22 259.08,-317.43 260.32,-310.54"/>
</g>
<!-- node_3&#45;&gt;row_6 -->
<g id="edge41" class="edge">
<title>node_3&#45;&gt;row_6</title>
<path fill="none" stroke="black" d="M504.16,-92.78C358.44,-106.75 212.72,-107.07 67,-93.73"/>
<polygon fill="black" stroke="black" points="67.24,-90.24 56.95,-92.79 66.58,-97.21 67.24,-90.24"/>
</g>
<!-- node_3&#45;&gt;col_4 -->
<g id="edge40" class="edge">
<title>node_3&#45;&gt;col_4</title>
<path fill="none" stroke="black" d="M537.21,-108.05C540.5,-134.71 540.5,-187.89 540.5,-233 540.5,-451 540.5,-451 540.5,-451 540.5,-491 540.5,-537.35 538.21,-565.92"/>
<polygon fill="black" stroke="black" points="534.72,-565.65 537.21,-575.95 541.68,-566.35 534.72,-565.65"/>
</g>
<!-- node_1&#45;&gt;row_2 -->
<g id="edge26" class="edge">
<title>node_1&#45;&gt;row_2</title>
<path fill="none" stroke="black" d="M607.41,-380.31C427.24,-394.95 247.07,-395.23 66.9,-381.13"/>
<polygon fill="black" stroke="black" points="66.92,-377.62 56.68,-380.32 66.37,-384.6 66.92,-377.62"/>
</g>
<!-- node_1&#45;&gt;col_5 -->
<g id="edge25" class="edge">
<title>node_1&#45;&gt;col_5</title>
<path fill="none" stroke="black" d="M638.39,-396.23C641.92,-433.32 642.18,-520.98 639.19,-565.71"/>
<polygon fill="black" stroke="black" points="635.68,-565.6 638.38,-575.85 642.66,-566.16 635.68,-565.6"/>
</g>
<!-- node_5&#45;&gt;row_5 -->
<g id="edge38" class="edge">
<title>node_5&#45;&gt;row_5</title>
<path fill="none" stroke="black" d="M710.25,-164C495.84,-179.09 281.43,-179.33 67.02,-164.71"/>
<polygon fill="black" stroke="black" points="67.03,-161.2 56.81,-164 66.54,-168.19 67.03,-161.2"/>
</g>
<!-- node_5&#45;&gt;col_6 -->
<g id="edge37" class="edge">
<title>node_5&#45;&gt;col_6</title>
<path fill="none" stroke="black" d="M743.21,-180.05C746.5,-206.71 746.5,-259.89 746.5,-305 746.5,-451 746.5,-451 746.5,-451 746.5,-491 746.5,-537.35 744.21,-565.92"/>
<polygon fill="black" stroke="black" points="740.72,-565.65 743.21,-575.95 747.68,-566.35 740.72,-565.65"/>
</g>
<!-- node_6&#45;&gt;row_7 -->
<g id="edge44" class="edge">
<title>node_6&#45;&gt;row_7</title>
<path fill="none" stroke="black" d="M813.33,-19.75C564.61,-35.2 315.89,-35.41 67.17,-20.39"/>
<polygon fill="black" stroke="black" points="67.02,-16.88 56.82,-19.76 66.59,-23.86 67.02,-16.88"/>
</g>
<!-- node_6&#45;&gt;col_7 -->
<g id="edge43" class="edge">
<title>node_6&#45;&gt;col_7</title>
<path fill="none" stroke="black" d="M846.21,-36.05C849.5,-62.71 849.5,-115.89 849.5,-161 849.5,-451 849.5,-451 849.5,-451 849.5,-491 849.5,-537.35 847.21,-565.92"/>
<polygon fill="black" stroke="black" points="843.72,-565.65 846.21,-575.95 850.68,-566.35 843.72,-565.65"/>
</g>
</g>
</svg>
