<?xml version="1.0" encoding="UTF-8" standalone="no"?>
<!DOCTYPE svg PUBLIC "-//W3C//DTD SVG 1.1//EN"
 "http://www.w3.org/Graphics/SVG/1.1/DTD/svg11.dtd">
<!-- Generated by graphviz version 2.43.0 (0)
 -->
<!-- Title: Layer1 Pages: 1 -->
<svg width="685pt" height="548pt"
 viewBox="0.00 0.00 685.00 548.00" xmlns="http://www.w3.org/2000/svg" xmlns:xlink="http://www.w3.org/1999/xlink">
<g id="graph0" class="graph" transform="scale(1 1) rotate(0) translate(4 544)">
<title>Layer1</title>
<polygon fill="white" stroke="transparent" points="-4,4 -4,-544 681,-544 681,4 -4,4"/>
<!-- root -->
<g id="node1" class="node">
<title>root</title>
<polygon fill="lightgrey" stroke="black" points="59,-540 0,-540 0,-504 59,-504 59,-540"/>
<text text-anchor="middle" x="29.5" y="-518.3" font-family="Times,serif" font-size="14.00">ROOT</text>
</g>
<!-- row_0 -->
<g id="node2" class="node">
<title>row_0</title>
<polygon fill="lightgrey" stroke="black" points="56.5,-468 2.5,-468 2.5,-432 56.5,-432 56.5,-468"/>
<text text-anchor="middle" x="29.5" y="-446.3" font-family="Times,serif" font-size="14.00">ROW</text>
</g>
<!-- root&#45;&gt;row_0 -->
<g id="edge12" class="edge">
<title>root&#45;&gt;row_0</title>
<path fill="none" stroke="black" d="M29.5,-503.7C29.5,-495.98 29.5,-486.71 29.5,-478.11"/>
<polygon fill="black" stroke="black" points="33,-478.1 29.5,-468.1 26,-478.1 33,-478.1"/>
</g>
<!-- col_0 -->
<g id="node9" class="node">
<title>col_0</title>
<polygon fill="lightgrey" stroke="black" points="162,-540 77,-540 77,-504 162,-504 162,-540"/>
<text text-anchor="middle" x="119.5" y="-518.3" font-family="Times,serif" font-size="14.00">COLUMN</text>
</g>
<!-- root&#45;&gt;col_0 -->
<g id="edge13" class="edge">
<title>root&#45;&gt;col_0</title>
<path fill="none" stroke="black" d="M59.03,-522C61.65,-522 64.27,-522 66.89,-522"/>
<polygon fill="black" stroke="black" points="66.98,-525.5 76.98,-522 66.98,-518.5 66.98,-525.5"/>
</g>
<!-- row_1 -->
<g id="node3" class="node">
<title>row_1</title>
<polygon fill="lightgrey" stroke="black" points="56.5,-396 2.5,-396 2.5,-360 56.5,-360 56.5,-396"/>
<text text-anchor="middle" x="29.5" y="-374.3" font-family="Times,serif" font-size="14.00">ROW</text>
</g>
<!-- row_0&#45;&gt;row_1 -->
<g id="edge1" class="edge">
<title>row_0&#45;&gt;row_1</title>
<path fill="none" stroke="black" d="M29.5,-431.7C29.5,-423.98 29.5,-414.71 29.5,-406.11"/>
<polygon fill="black" stroke="black" points="33,-406.1 29.5,-396.1 26,-406.1 33,-406.1"/>
</g>
<!-- row_2 -->
<g id="node4" class="node">
<title>row_2</title>
<polygon fill="lightgrey" stroke="black" points="56.5,-324 2.5,-324 2.5,-288 56.5,-288 56.5,-324"/>
<text text-anchor="middle" x="29.5" y="-302.3" font-family="Times,serif" font-size="14.00">ROW</text>
</g>
<!-- row_1&#45;&gt;row_2 -->
<g id="edge2" class="edge">
<title>row_1&#45;&gt;row_2</title>
<path fill="none" stroke="black" d="M29.5,-359.7C29.5,-351.98 29.5,-342.71 29.5,-334.11"/>
<polygon fill="black" stroke="black" points="33,-334.1 29.5,-324.1 26,-334.1 33,-334.1"/>
</g>
<!-- row_3 -->
<g id="node5" class="node">
<title>row_3</title>
<polygon fill="lightgrey" stroke="black" points="56.5,-252 2.5,-252 2.5,-216 56.5,-216 56.5,-252"/>
<text text-anchor="middle" x="29.5" y="-230.3" font-family="Times,serif" font-size="14.00">ROW</text>
</g>
<!-- row_2&#45;&gt;row_3 -->
<g id="edge3" class="edge">
<title>row_2&#45;&gt;row_3</title>
<path fill="none" stroke="black" d="M29.5,-287.7C29.5,-279.98 29.5,-270.71 29.5,-262.11"/>
<polygon fill="black" stroke="black" points="33,-262.1 29.5,-252.1 26,-262.1 33,-262.1"/>
</g>
<!-- node_1 -->
<g id="node18" class="node">
<title>node_1</title>
<polygon fill="black" stroke="black" points="661.5,-324 607.5,-324 607.5,-288 661.5,-288 661.5,-324"/>
<text text-anchor="middle" x="634.5" y="-302.3" font-family="Times,serif" font-size="14.00">X</text>
</g>
<!-- row_2&#45;&gt;node_1 -->
<g id="edge18" class="edge">
<title>row_2&#45;&gt;node_1</title>
<path fill="none" stroke="black" d="M56.68,-303.68C236.85,-289.05 417.02,-288.78 597.2,-302.88"/>
<polygon fill="black" stroke="black" points="597.17,-306.38 607.41,-303.69 597.72,-299.41 597.17,-306.38"/>
</g>
<!-- row_4 -->
<g id="node6" class="node">
<title>row_4</title>
<polygon fill="lightgrey" stroke="black" points="56.5,-180 2.5,-180 2.5,-144 56.5,-144 56.5,-180"/>
<text text-anchor="middle" x="29.5" y="-158.3" font-family="Times,serif" font-size="14.00">ROW</text>
</g>
<!-- row_3&#45;&gt;row_4 -->
<g id="edge4" class="edge">
<title>row_3&#45;&gt;row_4</title>
<path fill="none" stroke="black" d="M29.5,-215.7C29.5,-207.98 29.5,-198.71 29.5,-190.11"/>
<polygon fill="black" stroke="black" points="33,-190.1 29.5,-180.1 26,-190.1 33,-190.1"/>
</g>
<!-- node_0 -->
<g id="node15" class="node">
<title>node_0</title>
<polygon fill="black" stroke="black" points="249.5,-252 195.5,-252 195.5,-216 249.5,-216 249.5,-252"/>
<text text-anchor="middle" x="222.5" y="-230.3" font-family="Times,serif" font-size="14.00">X</text>
</g>
<!-- row_3&#45;&gt;node_0 -->
<g id="edge21" class="edge">
<title>row_3&#45;&gt;node_0</title>
<path fill="none" stroke="black" d="M56.64,-227.47C99.52,-218.85 142.39,-218.22 185.27,-225.59"/>
<polygon fill="black" stroke="black" points="184.82,-229.07 195.29,-227.46 186.1,-222.19 184.82,-229.07"/>
</g>
<!-- row_5 -->
<g id="node7" class="node">
<title>row_5</title>
<polygon fill="lightgrey" stroke="black" points="56.5,-108 2.5,-108 2.5,-72 56.5,-72 56.5,-108"/>
<text text-anchor="middle" x="29.5" y="-86.3" font-family="Times,serif" font-size="14.00">ROW</text>
</g>
<!-- row_4&#45;&gt;row_5 -->
<g id="edge5" class="edge">
<title>row_4&#45;&gt;row_5</title>
<path fill="none" stroke="black" d="M29.5,-143.7C29.5,-135.98 29.5,-126.71 29.5,-118.11"/>
<polygon fill="black" stroke="black" points="33,-118.1 29.5,-108.1 26,-118.1 33,-118.1"/>
</g>
<!-- row_6 -->
<g id="node8" class="node">
<title>row_6</title>
<polygon fill="lightgrey" stroke="black" points="56.5,-36 2.5,-36 2.5,0 56.5,0 56.5,-36"/>
<text text-anchor="middle" x="29.5" y="-14.3" font-family="Times,serif" font-size="14.00">ROW</text>
</g>
<!-- row_5&#45;&gt;row_6 -->
<g id="edge6" class="edge">
<title>row_5&#45;&gt;row_6</title>
<path fill="none" stroke="black" d="M29.5,-71.7C29.5,-63.98 29.5,-54.71 29.5,-46.11"/>
<polygon fill="black" stroke="black" points="33,-46.1 29.5,-36.1 26,-46.1 33,-46.1"/>
</g>
<!-- node_3 -->
<g id="node17" class="node">
<title>node_3</title>
<polygon fill="black" stroke="black" points="558.5,-36 504.5,-36 504.5,0 558.5,0 558.5,-36"/>
<text text-anchor="middle" x="531.5" y="-14.3" font-family="Times,serif" font-size="14.00">X</text>
</g>
<!-- row_6&#45;&gt;node_3 -->
<g id="edge27" class="edge">
<title>row_6&#45;&gt;node_3</title>
<path fill="none" stroke="black" d="M56.95,-15.21C202.67,-1.25 348.39,-0.94 494.11,-14.28"/>
<polygon fill="black" stroke="black" points="493.88,-17.77 504.16,-15.22 494.53,-10.8 493.88,-17.77"/>
</g>
<!-- col_1 -->
<g id="node10" class="node">
<title>col_1</title>
<polygon fill="lightgrey" stroke="black" points="265,-540 180,-540 180,-504 265,-504 265,-540"/>
<text text-anchor="middle" x="222.5" y="-518.3" font-family="Times,serif" font-size="14.00">COLUMN</text>
</g>
<!-- col_0&#45;&gt;col_1 -->
<g id="edge7" class="edge">
<title>col_0&#45;&gt;col_1</title>
<path fill="none" stroke="black" d="M162.15,-522C164.6,-522 167.05,-522 169.51,-522"/>
<polygon fill="black" stroke="black" points="169.59,-525.5 179.59,-522 169.59,-518.5 169.59,-525.5"/>
</g>
<!-- col_2 -->
<g id="node11" class="node">
<title>col_2</title>
<polygon fill="lightgrey" stroke="black" points="368,-540 283,-540 283,-504 368,-504 368,-540"/>
<text text-anchor="middle" x="325.5" y="-518.3" font-family="Times,serif" font-size="14.00">COLUMN</text>
</g>
<!-- col_1&#45;&gt;col_2 -->
<g id="edge8" class="edge">
<title>col_1&#45;&gt;col_2</title>
<path fill="none" stroke="black" d="M265.15,-522C267.6,-522 270.05,-522 272.51,-522"/>
<polygon fill="black" stroke="black" points="272.59,-525.5 282.59,-522 272.59,-518.5 272.59,-525.5"/>
</g>
<!-- col_1&#45;&gt;node_0 -->
<g id="edge14" class="edge">
<title>col_1&#45;&gt;node_0</title>
<path fill="none" stroke="black" d="M219.09,-503.97C214.91,-456.29 214.65,-321.18 218.31,-262.63"/>
<polygon fill="black" stroke="black" points="221.82,-262.54 219.06,-252.31 214.84,-262.02 221.82,-262.54"/>
</g>
<!-- col_3 -->
<g id="node12" class="node">
<title>col_3</title>
<polygon fill="lightgrey" stroke="black" points="471,-540 386,-540 386,-504 471,-504 471,-540"/>
<text text-anchor="middle" x="428.5" y="-518.3" font-family="Times,serif" font-size="14.00">COLUMN</text>
</g>
<!-- col_2&#45;&gt;col_3 -->
<g id="edge9" class="edge">
<title>col_2&#45;&gt;col_3</title>
<path fill="none" stroke="black" d="M368.15,-522C370.6,-522 373.05,-522 375.51,-522"/>
<polygon fill="black" stroke="black" points="375.59,-525.5 385.59,-522 375.59,-518.5 375.59,-525.5"/>
</g>
<!-- col_4 -->
<g id="node13" class="node">
<title>col_4</title>
<polygon fill="lightgrey" stroke="black" points="574,-540 489,-540 489,-504 574,-504 574,-540"/>
<text text-anchor="middle" x="531.5" y="-518.3" font-family="Times,serif" font-size="14.00">COLUMN</text>
</g>
<!-- col_3&#45;&gt;col_4 -->
<g id="edge10" class="edge">
<title>col_3&#45;&gt;col_4</title>
<path fill="none" stroke="black" d="M471.15,-522C473.6,-522 476.05,-522 478.51,-522"/>
<polygon fill="black" stroke="black" points="478.59,-525.5 488.59,-522 478.59,-518.5 478.59,-525.5"/>
</g>
<!-- node_2 -->
<g id="node16" class="node">
<title>node_2</title>
<polygon fill="black" stroke="black" points="455.5,-252 401.5,-252 401.5,-216 455.5,-216 455.5,-252"/>
<text text-anchor="middle" x="428.5" y="-230.3" font-family="Times,serif" font-size="14.00">X</text>
</g>
<!-- col_3&#45;&gt;node_2 -->
<g id="edge15" class="edge">
<title>col_3&#45;&gt;node_2</title>
<path fill="none" stroke="black" d="M425.09,-503.97C420.91,-456.29 420.65,-321.18 424.31,-262.63"/>
<polygon fill="black" stroke="black" points="427.82,-262.54 425.06,-252.31 420.84,-262.02 427.82,-262.54"/>
</g>
<!-- col_5 -->
<g id="node14" class="node">
<title>col_5</title>
<polygon fill="lightgrey" stroke="black" points="677,-540 592,-540 592,-504 677,-504 677,-540"/>
<text text-anchor="middle" x="634.5" y="-518.3" font-family="Times,serif" font-size="14.00">COLUMN</text>
</g>
<!-- col_4&#45;&gt;col_5 -->
<g id="edge11" class="edge">
<title>col_4&#45;&gt;col_5</title>
<path fill="none" stroke="black" d="M574.15,-522C576.6,-522 579.05,-522 581.51,-522"/>
<polygon fill="black" stroke="black" points="581.59,-525.5 591.59,-522 581.59,-518.5 581.59,-525.5"/>
</g>
<!-- col_4&#45;&gt;node_3 -->
<g id="edge16" class="edge">
<title>col_4&#45;&gt;node_3</title>
<path fill="none" stroke="black" d="M525.79,-503.95C522.5,-477.29 522.5,-424.11 522.5,-379 522.5,-379 522.5,-379 522.5,-161 522.5,-121 522.5,-74.65 524.79,-46.08"/>
<polygon fill="black" stroke="black" points="528.28,-46.35 525.79,-36.05 521.32,-45.65 528.28,-46.35"/>
</g>
<!-- col_5&#45;&gt;node_1 -->
<g id="edge17" class="edge">
<title>col_5&#45;&gt;node_1</title>
<path fill="none" stroke="black" d="M630.62,-503.85C627.09,-466.83 626.82,-379.18 629.81,-334.39"/>
<polygon fill="black" stroke="black" points="633.31,-334.48 630.61,-324.23 626.33,-333.92 633.31,-334.48"/>
</g>
<!-- node_0&#45;&gt;row_3 -->
<g id="edge24" class="edge">
<title>node_0&#45;&gt;row_3</title>
<path fill="none" stroke="black" d="M195.29,-240.54C152.41,-249.15 109.54,-249.77 66.66,-242.4"/>
<polygon fill="black" stroke="black" points="67.11,-238.92 56.64,-240.53 65.83,-245.8 67.11,-238.92"/>
</g>
<!-- node_0&#45;&gt;col_1 -->
<g id="edge22" class="edge">
<title>node_0&#45;&gt;col_1</title>
<path fill="none" stroke="black" d="M225.94,-252.31C230.09,-300.31 230.34,-435.44 226.67,-493.7"/>
<polygon fill="black" stroke="black" points="223.16,-493.74 225.91,-503.97 230.14,-494.25 223.16,-493.74"/>
</g>
<!-- node_0&#45;&gt;node_2 -->
<g id="edge23" class="edge">
<title>node_0&#45;&gt;node_2</title>
<path fill="none" stroke="black" d="M249.86,-227.78C296.98,-218.71 344.11,-218.11 391.23,-226"/>
<polygon fill="black" stroke="black" points="390.82,-229.48 401.29,-227.81 392.06,-222.59 390.82,-229.48"/>
</g>
<!-- node_2&#45;&gt;col_3 -->
<g id="edge25" class="edge">
<title>node_2&#45;&gt;col_3</title>
<path fill="none" stroke="black" d="M431.94,-252.31C436.09,-300.31 436.34,-435.44 432.67,-493.7"/>
<polygon fill="black" stroke="black" points="429.16,-493.74 431.91,-503.97 436.14,-494.25 429.16,-493.74"/>
</g>
<!-- node_2&#45;&gt;node_0 -->
<g id="edge26" class="edge">
<title>node_2&#45;&gt;node_0</title>
<path fill="none" stroke="black" d="M401.29,-240.19C354.16,-249.28 307.04,-249.89 259.91,-242.03"/>
<polygon fill="black" stroke="black" points="260.32,-238.54 249.86,-240.22 259.08,-245.43 260.32,-238.54"/>
</g>
<!-- node_3&#45;&gt;row_6 -->
<g id="edge29" class="edge">
<title>node_3&#45;&gt;row_6</title>
<path fill="none" stroke="black" d="M504.16,-20.78C358.44,-34.75 212.72,-35.07 67,-21.73"/>
<polygon fill="black" stroke="black" points="67.24,-18.24 56.95,-20.79 66.58,-25.21 67.24,-18.24"/>
</g>
<!-- node_3&#45;&gt;col_4 -->
<g id="edge28" class="edge">
<title>node_3&#45;&gt;col_4</title>
<path fill="none" stroke="black" d="M537.21,-36.05C540.5,-62.71 540.5,-115.89 540.5,-161 540.5,-379 540.5,-379 540.5,-379 540.5,-419 540.5,-465.35 538.21,-493.92"/>
<polygon fill="black" stroke="black" points="534.72,-493.65 537.21,-503.95 541.68,-494.35 534.72,-493.65"/>
</g>
<!-- node_1&#45;&gt;row_2 -->
<g id="edge20" class="edge">
<title>node_1&#45;&gt;row_2</title>
<path fill="none" stroke="black" d="M607.41,-308.31C427.24,-322.95 247.07,-323.23 66.9,-309.13"/>
<polygon fill="black" stroke="black" points="66.92,-305.62 56.68,-308.32 66.37,-312.6 66.92,-305.62"/>
</g>
<!-- node_1&#45;&gt;col_5 -->
<g id="edge19" class="edge">
<title>node_1&#45;&gt;col_5</title>
<path fill="none" stroke="black" d="M638.39,-324.23C641.92,-361.32 642.18,-448.98 639.19,-493.71"/>
<polygon fill="black" stroke="black" points="635.68,-493.6 638.38,-503.85 642.66,-494.16 635.68,-493.6"/>
</g>
</g>
</svg>
