<?xml version="1.0" encoding="UTF-8" standalone="no"?>
<!DOCTYPE svg PUBLIC "-//W3C//DTD SVG 1.1//EN"
 "http://www.w3.org/Graphics/SVG/1.1/DTD/svg11.dtd">
<!-- Generated by graphviz version 2.43.0 (0)
 -->
<!-- Title: branch_avl Pages: 1 -->
<svg width="240pt" height="188pt"
 viewBox="0.00 0.00 239.59 188.00" xmlns="http://www.w3.org/2000/svg" xmlns:xlink="http://www.w3.org/1999/xlink">
<g id="graph0" class="graph" transform="scale(1 1) rotate(0) translate(4 184)">
<title>branch_avl</title>
<polygon fill="white" stroke="transparent" points="-4,4 -4,-184 235.59,-184 235.59,4 -4,4"/>
<!-- node_2 -->
<g id="node1" class="node">
<title>node_2</title>
<ellipse fill="none" stroke="black" cx="115.3" cy="-162" rx="53.09" ry="18"/>
<text text-anchor="middle" x="115.3" y="-158.3" font-family="Times,serif" font-size="14.00">branch_2</text>
</g>
<!-- node_1 -->
<g id="node2" class="node">
<title>node_1</title>
<ellipse fill="none" stroke="black" cx="53.3" cy="-90" rx="53.09" ry="18"/>
<text text-anchor="middle" x="53.3" y="-86.3" font-family="Times,serif" font-size="14.00">branch_1</text>
</g>
<!-- node_2&#45;&gt;node_1 -->
<g id="edge1" class="edge">
<title>node_2&#45;&gt;node_1</title>
<path fill="none" stroke="black" d="M100.6,-144.41C92.88,-135.69 83.27,-124.85 74.74,-115.21"/>
<polygon fill="black" stroke="black" points="77.13,-112.64 67.88,-107.47 71.89,-117.28 77.13,-112.64"/>
</g>
<!-- node_3 -->
<g id="node3" class="node">
<title>node_3</title>
<ellipse fill="none" stroke="black" cx="178.3" cy="-90" rx="53.09" ry="18"/>
<text text-anchor="middle" x="178.3" y="-86.3" font-family="Times,serif" font-size="14.00">branch_3</text>
</g>
<!-- node_2&#45;&gt;node_3 -->
<g id="edge2" class="edge">
<title>node_2&#45;&gt;node_3</title>
<path fill="none" stroke="black" d="M130.23,-144.41C138.15,-135.61 148.03,-124.63 156.77,-114.92"/>
<polygon fill="black" stroke="black" points="159.38,-117.24 163.47,-107.47 154.18,-112.56 159.38,-117.24"/>
</g>
<!-- node_4 -->
<g id="node4" class="node">
<title>node_4</title>
<ellipse fill="none" stroke="black" cx="178.3" cy="-18" rx="53.09" ry="18"/>
<text text-anchor="middle" x="178.3" y="-14.3" font-family="Times,serif" font-size="14.00">branch_4</text>
</g>
<!-- node_3&#45;&gt;node_4 -->
<g id="edge3" class="edge">
<title>node_3&#45;&gt;node_4</title>
<path fill="none" stroke="black" d="M178.3,-71.7C178.3,-63.98 178.3,-54.71 178.3,-46.11"/>
<polygon fill="black" stroke="black" points="181.8,-46.1 178.3,-36.1 174.8,-46.1 181.8,-46.1"/>
</g>
</g>
</svg>
