<?xml version="1.0" encoding="UTF-8" standalone="no"?>
<!DOCTYPE svg PUBLIC "-//W3C//DTD SVG 1.1//EN"
 "http://www.w3.org/Graphics/SVG/1.1/DTD/svg11.dtd">
<!-- Generated by graphviz version 2.43.0 (0)
 -->
<!-- Title: G Pages: 1 -->
<svg width="361pt" height="126pt"
 viewBox="0.00 0.00 361.28 126.00" xmlns="http://www.w3.org/2000/svg" xmlns:xlink="http://www.w3.org/1999/xlink">
<g id="graph0" class="graph" transform="scale(1 1) rotate(0) translate(4 122)">
<title>G</title>
<polygon fill="white" stroke="transparent" points="-4,4 -4,-122 357.28,-122 357.28,4 -4,4"/>
<!-- node_4 -->
<g id="node1" class="node">
<title>node_4</title>
<ellipse fill="none" stroke="black" cx="176.64" cy="-72" rx="43.59" ry="18"/>
<text text-anchor="middle" x="176.64" y="-68.3" font-family="Times,serif" font-size="14.00">node_4</text>
</g>
<!-- node_2 -->
<g id="node2" class="node">
<title>node_2</title>
<ellipse fill="none" stroke="black" cx="309.73" cy="-72" rx="43.59" ry="18"/>
<text text-anchor="middle" x="309.73" y="-68.3" font-family="Times,serif" font-size="14.00">node_2</text>
</g>
<!-- node_3 -->
<g id="node3" class="node">
<title>node_3</title>
<ellipse fill="none" stroke="black" cx="43.55" cy="-72" rx="43.59" ry="18"/>
<text text-anchor="middle" x="43.55" y="-68.3" font-family="Times,serif" font-size="14.00">node_3</text>
</g>
<!-- node_2&#45;&gt;node_3 -->
<g id="edge1" class="edge">
<title>node_2&#45;&gt;node_3</title>
<path fill="none" stroke="black" d="M277.29,-84.07C260.6,-89.84 239.58,-96.11 220.18,-99 181.9,-104.71 171.43,-104.37 133.09,-99 120.27,-97.2 117.49,-94.72 105.09,-91 99.68,-89.38 94.01,-87.65 88.4,-85.91"/>
<polygon fill="black" stroke="black" points="89.03,-82.44 78.44,-82.81 86.95,-89.12 89.03,-82.44"/>
<text text-anchor="middle" x="176.64" y="-106.8" font-family="Times,serif" font-size="14.00">1</text>
</g>
<!-- node_3&#45;&gt;node_4 -->
<g id="edge4" class="edge">
<title>node_3&#45;&gt;node_4</title>
<path fill="none" stroke="black" d="M87.11,-72C98.44,-72 110.82,-72 122.64,-72"/>
<polygon fill="black" stroke="black" points="122.84,-75.5 132.84,-72 122.84,-68.5 122.84,-75.5"/>
<text text-anchor="middle" x="110.09" y="-75.8" font-family="Times,serif" font-size="14.00">1</text>
</g>
<!-- node_1 -->
<g id="node4" class="node">
<title>node_1</title>
<ellipse fill="none" stroke="black" cx="176.64" cy="-18" rx="43.59" ry="18"/>
<text text-anchor="middle" x="176.64" y="-14.3" font-family="Times,serif" font-size="14.00">node_1</text>
</g>
<!-- node_3&#45;&gt;node_1 -->
<g id="edge3" class="edge">
<title>node_3&#45;&gt;node_1</title>
<path fill="none" stroke="black" d="M74.95,-59.48C93.02,-52.03 116.15,-42.5 135.68,-34.46"/>
<polygon fill="black" stroke="black" points="137.03,-37.69 144.94,-30.64 134.37,-31.22 137.03,-37.69"/>
<text text-anchor="middle" x="110.09" y="-49.8" font-family="Times,serif" font-size="14.00">3</text>
</g>
<!-- node_1&#45;&gt;node_2 -->
<g id="edge2" class="edge">
<title>node_1&#45;&gt;node_2</title>
<path fill="none" stroke="black" d="M208.04,-30.52C226.11,-37.97 249.24,-47.5 268.77,-55.54"/>
<polygon fill="black" stroke="black" points="267.46,-58.78 278.04,-59.36 270.12,-52.31 267.46,-58.78"/>
<text text-anchor="middle" x="243.18" y="-49.8" font-family="Times,serif" font-size="14.00">2</text>
</g>
</g>
</svg>
