<?xml version="1.0" encoding="UTF-8" standalone="no"?>
<!DOCTYPE svg PUBLIC "-//W3C//DTD SVG 1.1//EN"
 "http://www.w3.org/Graphics/SVG/1.1/DTD/svg11.dtd">
<!-- Generated by graphviz version 2.43.0 (0)
 -->
<!-- Title: G Pages: 1 -->
<svg width="761pt" height="97pt"
 viewBox="0.00 0.00 760.55 97.00" xmlns="http://www.w3.org/2000/svg" xmlns:xlink="http://www.w3.org/1999/xlink">
<g id="graph0" class="graph" transform="scale(1 1) rotate(0) translate(4 93)">
<title>G</title>
<polygon fill="white" stroke="transparent" points="-4,4 -4,-93 756.55,-93 756.55,4 -4,4"/>
<!-- node_6 -->
<g id="node1" class="node">
<title>node_6</title>
<ellipse fill="none" stroke="black" cx="709.01" cy="-30" rx="43.59" ry="18"/>
<text text-anchor="middle" x="709.01" y="-26.3" font-family="Times,serif" font-size="14.00">node_6</text>
</g>
<!-- node_5 -->
<g id="node2" class="node">
<title>node_5</title>
<ellipse fill="none" stroke="black" cx="575.92" cy="-65" rx="43.59" ry="18"/>
<text text-anchor="middle" x="575.92" y="-61.3" font-family="Times,serif" font-size="14.00">node_5</text>
</g>
<!-- node_5&#45;&gt;node_6 -->
<g id="edge1" class="edge">
<title>node_5&#45;&gt;node_6</title>
<path fill="none" stroke="black" d="M613.08,-55.34C628.27,-51.29 646.11,-46.53 662.2,-42.23"/>
<polygon fill="black" stroke="black" points="663.2,-45.59 671.96,-39.63 661.39,-38.82 663.2,-45.59"/>
<text text-anchor="middle" x="642.46" y="-51.8" font-family="Times,serif" font-size="14.00">1</text>
</g>
<!-- node_4 -->
<g id="node3" class="node">
<title>node_4</title>
<ellipse fill="none" stroke="black" cx="442.82" cy="-18" rx="43.59" ry="18"/>
<text text-anchor="middle" x="442.82" y="-14.3" font-family="Times,serif" font-size="14.00">node_4</text>
</g>
<!-- node_4&#45;&gt;node_6 -->
<g id="edge3" class="edge">
<title>node_4&#45;&gt;node_6</title>
<path fill="none" stroke="black" d="M486.44,-18.61C522.02,-19.27 574.07,-20.56 619.46,-23 631.25,-23.63 643.91,-24.51 655.86,-25.44"/>
<polygon fill="black" stroke="black" points="655.9,-28.95 666.15,-26.26 656.46,-21.97 655.9,-28.95"/>
<text text-anchor="middle" x="575.92" y="-26.8" font-family="Times,serif" font-size="14.00">4</text>
</g>
<!-- node_4&#45;&gt;node_5 -->
<g id="edge2" class="edge">
<title>node_4&#45;&gt;node_5</title>
<path fill="none" stroke="black" d="M476.23,-29.62C493.32,-35.75 514.5,-43.34 532.85,-49.92"/>
<polygon fill="black" stroke="black" points="531.83,-53.27 542.43,-53.35 534.2,-46.68 531.83,-53.27"/>
<text text-anchor="middle" x="509.37" y="-45.8" font-family="Times,serif" font-size="14.00">3</text>
</g>
<!-- node_3 -->
<g id="node4" class="node">
<title>node_3</title>
<ellipse fill="none" stroke="black" cx="309.73" cy="-71" rx="43.59" ry="18"/>
<text text-anchor="middle" x="309.73" y="-67.3" font-family="Times,serif" font-size="14.00">node_3</text>
</g>
<!-- node_3&#45;&gt;node_5 -->
<g id="edge5" class="edge">
<title>node_3&#45;&gt;node_5</title>
<path fill="none" stroke="black" d="M353.47,-70.03C399.42,-68.99 472.51,-67.33 522.04,-66.2"/>
<polygon fill="black" stroke="black" points="522.32,-69.7 532.24,-65.97 522.16,-62.7 522.32,-69.7"/>
<text text-anchor="middle" x="442.82" y="-71.8" font-family="Times,serif" font-size="14.00">2</text>
</g>
<!-- node_3&#45;&gt;node_4 -->
<g id="edge4" class="edge">
<title>node_3&#45;&gt;node_4</title>
<path fill="none" stroke="black" d="M341.47,-58.57C359.33,-51.35 382.06,-42.16 401.37,-34.35"/>
<polygon fill="black" stroke="black" points="402.87,-37.53 410.83,-30.53 400.24,-31.04 402.87,-37.53"/>
<text text-anchor="middle" x="376.28" y="-49.8" font-family="Times,serif" font-size="14.00">5</text>
</g>
<!-- node_2 -->
<g id="node5" class="node">
<title>node_2</title>
<ellipse fill="none" stroke="black" cx="176.64" cy="-23" rx="43.59" ry="18"/>
<text text-anchor="middle" x="176.64" y="-19.3" font-family="Times,serif" font-size="14.00">node_2</text>
</g>
<!-- node_2&#45;&gt;node_4 -->
<g id="edge7" class="edge">
<title>node_2&#45;&gt;node_4</title>
<path fill="none" stroke="black" d="M220.38,-22.19C266.32,-21.32 339.42,-19.94 388.95,-19"/>
<polygon fill="black" stroke="black" points="389.21,-22.5 399.14,-18.81 389.08,-15.5 389.21,-22.5"/>
<text text-anchor="middle" x="309.73" y="-24.8" font-family="Times,serif" font-size="14.00">3</text>
</g>
<!-- node_2&#45;&gt;node_3 -->
<g id="edge6" class="edge">
<title>node_2&#45;&gt;node_3</title>
<path fill="none" stroke="black" d="M210.36,-34.42C222.28,-38.63 235.86,-43.48 248.18,-48 254.57,-50.34 261.31,-52.86 267.89,-55.34"/>
<polygon fill="black" stroke="black" points="266.76,-58.66 277.36,-58.93 269.24,-52.11 266.76,-58.66"/>
<text text-anchor="middle" x="243.18" y="-51.8" font-family="Times,serif" font-size="14.00">6</text>
</g>
<!-- node_1 -->
<g id="node6" class="node">
<title>node_1</title>
<ellipse fill="none" stroke="black" cx="43.55" cy="-50" rx="43.59" ry="18"/>
<text text-anchor="middle" x="43.55" y="-46.3" font-family="Times,serif" font-size="14.00">node_1</text>
</g>
<!-- node_1&#45;&gt;node_3 -->
<g id="edge9" class="edge">
<title>node_1&#45;&gt;node_3</title>
<path fill="none" stroke="black" d="M85.9,-54.24C92.32,-54.86 98.88,-55.46 105.09,-56 156.54,-60.44 215.36,-64.69 256.52,-67.52"/>
<polygon fill="black" stroke="black" points="256.37,-71.02 266.58,-68.21 256.85,-64.03 256.37,-71.02"/>
<text text-anchor="middle" x="176.64" y="-67.8" font-family="Times,serif" font-size="14.00">6</text>
</g>
<!-- node_1&#45;&gt;node_2 -->
<g id="edge8" class="edge">
<title>node_1&#45;&gt;node_2</title>
<path fill="none" stroke="black" d="M82.82,-42.12C96.69,-39.26 112.56,-35.99 127.19,-32.98"/>
<polygon fill="black" stroke="black" points="128.01,-36.38 137.09,-30.94 126.59,-29.53 128.01,-36.38"/>
<text text-anchor="middle" x="110.09" y="-40.8" font-family="Times,serif" font-size="14.00">5</text>
</g>
</g>
</svg>
