<?xml version="1.0" encoding="UTF-8" standalone="no"?>
<!DOCTYPE svg PUBLIC "-//W3C//DTD SVG 1.1//EN"
 "http://www.w3.org/Graphics/SVG/1.1/DTD/svg11.dtd">
<!-- Generated by graphviz version 2.43.0 (0)
 -->
<!-- Title: Hash_Table Pages: 1 -->
<svg width="204pt" height="370pt"
 viewBox="0.00 0.00 204.00 370.00" xmlns="http://www.w3.org/2000/svg" xmlns:xlink="http://www.w3.org/1999/xlink">
<g id="graph0" class="graph" transform="scale(1 1) rotate(0) translate(4 366)">
<title>Hash_Table</title>
<polygon fill="white" stroke="transparent" points="-4,4 -4,-366 200,-366 200,4 -4,4"/>
<!-- node0 -->
<g id="node1" class="node">
<title>node0</title>
<polygon fill="none" stroke="black" points="0,-0.5 0,-322.5 54,-322.5 54,-0.5 0,-0.5"/>
<text text-anchor="middle" x="27" y="-307.3" font-family="Times,serif" font-size="14.00">1</text>
<polyline fill="none" stroke="black" points="0,-299.5 54,-299.5 "/>
<text text-anchor="middle" x="27" y="-284.3" font-family="Times,serif" font-size="14.00">2</text>
<polyline fill="none" stroke="black" points="0,-276.5 54,-276.5 "/>
<text text-anchor="middle" x="27" y="-261.3" font-family="Times,serif" font-size="14.00">3</text>
<polyline fill="none" stroke="black" points="0,-253.5 54,-253.5 "/>
<text text-anchor="middle" x="27" y="-238.3" font-family="Times,serif" font-size="14.00">4</text>
<polyline fill="none" stroke="black" points="0,-230.5 54,-230.5 "/>
<text text-anchor="middle" x="27" y="-215.3" font-family="Times,serif" font-size="14.00">5</text>
<polyline fill="none" stroke="black" points="0,-207.5 54,-207.5 "/>
<text text-anchor="middle" x="27" y="-192.3" font-family="Times,serif" font-size="14.00">6</text>
<polyline fill="none" stroke="black" points="0,-184.5 54,-184.5 "/>
<text text-anchor="middle" x="27" y="-169.3" font-family="Times,serif" font-size="14.00">7</text>
<polyline fill="none" stroke="black" points="0,-161.5 54,-161.5 "/>
<text text-anchor="middle" x="27" y="-146.3" font-family="Times,serif" font-size="14.00">8</text>
<polyline fill="none" stroke="black" points="0,-138.5 54,-138.5 "/>
<text text-anchor="middle" x="27" y="-123.3" font-family="Times,serif" font-size="14.00">9</text>
<polyline fill="none" stroke="black" points="0,-115.5 54,-115.5 "/>
<text text-anchor="middle" x="27" y="-100.3" font-family="Times,serif" font-size="14.00">10</text>
<polyline fill="none" stroke="black" points="0,-92.5 54,-92.5 "/>
<text text-anchor="middle" x="27" y="-77.3" font-family="Times,serif" font-size="14.00">11</text>
<polyline fill="none" stroke="black" points="0,-69.5 54,-69.5 "/>
<text text-anchor="middle" x="27" y="-54.3" font-family="Times,serif" font-size="14.00">12</text>
<polyline fill="none" stroke="black" points="0,-46.5 54,-46.5 "/>
<text text-anchor="middle" x="27" y="-31.3" font-family="Times,serif" font-size="14.00">13</text>
<polyline fill="none" stroke="black" points="0,-23.5 54,-23.5 "/>
<text text-anchor="middle" x="27" y="-8.3" font-family="Times,serif" font-size="14.00">14</text>
</g>
<!-- Juan Carlos -->
<g id="node2" class="node">
<title>Juan Carlos</title>
<polygon fill="none" stroke="black" points="94,-325.5 94,-361.5 192,-361.5 192,-325.5 94,-325.5"/>
<text text-anchor="middle" x="143" y="-339.8" font-family="Times,serif" font-size="14.00">Juan Carlos</text>
</g>
<!-- node0&#45;&gt;Juan Carlos -->
<g id="edge1" class="edge">
<title>node0:f0&#45;&gt;Juan Carlos</title>
<path fill="none" stroke="black" d="M54,-311.5C69.45,-311.5 85.56,-315.91 99.71,-321.46"/>
<polygon fill="black" stroke="black" points="98.59,-324.78 109.16,-325.44 101.31,-318.33 98.59,-324.78"/>
</g>
<!-- Ana Sofia -->
<g id="node3" class="node">
<title>Ana Sofia</title>
<polygon fill="none" stroke="black" points="101.5,-270.5 101.5,-306.5 184.5,-306.5 184.5,-270.5 101.5,-270.5"/>
<text text-anchor="middle" x="143" y="-284.8" font-family="Times,serif" font-size="14.00">Ana Sofia</text>
</g>
<!-- node0&#45;&gt;Ana Sofia -->
<g id="edge2" class="edge">
<title>node0:f1&#45;&gt;Ana Sofia</title>
<path fill="none" stroke="black" d="M54,-288.5C66.06,-288.5 79.04,-288.5 91.23,-288.5"/>
<polygon fill="black" stroke="black" points="91.25,-292 101.25,-288.5 91.25,-285 91.25,-292"/>
</g>
<!-- Maria -->
<g id="node4" class="node">
<title>Maria</title>
<polygon fill="none" stroke="black" points="113.5,-215.5 113.5,-251.5 172.5,-251.5 172.5,-215.5 113.5,-215.5"/>
<text text-anchor="middle" x="143" y="-229.8" font-family="Times,serif" font-size="14.00">Maria</text>
</g>
<!-- node0&#45;&gt;Maria -->
<g id="edge3" class="edge">
<title>node0:f3&#45;&gt;Maria</title>
<path fill="none" stroke="black" d="M54,-242.5C70.1,-242.5 87.76,-240.99 103.02,-239.21"/>
<polygon fill="black" stroke="black" points="103.65,-242.66 113.14,-237.95 102.79,-235.71 103.65,-242.66"/>
</g>
<!-- Pedro -->
<g id="node5" class="node">
<title>Pedro</title>
<polygon fill="none" stroke="black" points="114,-67.5 114,-103.5 172,-103.5 172,-67.5 114,-67.5"/>
<text text-anchor="middle" x="143" y="-81.8" font-family="Times,serif" font-size="14.00">Pedro</text>
</g>
<!-- node0&#45;&gt;Pedro -->
<g id="edge4" class="edge">
<title>node0:f10&#45;&gt;Pedro</title>
<path fill="none" stroke="black" d="M54,-80.5C70.29,-80.5 88.24,-81.36 103.66,-82.37"/>
<polygon fill="black" stroke="black" points="103.67,-85.88 113.88,-83.09 104.15,-78.9 103.67,-85.88"/>
</g>
<!-- Diego Felipe -->
<g id="node6" class="node">
<title>Diego Felipe</title>
<polygon fill="none" stroke="black" points="90,-12.5 90,-48.5 196,-48.5 196,-12.5 90,-12.5"/>
<text text-anchor="middle" x="143" y="-26.8" font-family="Times,serif" font-size="14.00">Diego Felipe</text>
</g>
<!-- node0&#45;&gt;Diego Felipe -->
<g id="edge5" class="edge">
<title>node0:f12&#45;&gt;Diego Felipe</title>
<path fill="none" stroke="black" d="M54,-34.5C62.35,-34.5 71.15,-34.32 79.82,-34.03"/>
<polygon fill="black" stroke="black" points="80.04,-37.53 89.9,-33.65 79.78,-30.53 80.04,-37.53"/>
</g>
</g>
</svg>
