<?xml version="1.0" encoding="UTF-8" standalone="no"?>
<!DOCTYPE svg PUBLIC "-//W3C//DTD SVG 1.1//EN"
 "http://www.w3.org/Graphics/SVG/1.1/DTD/svg11.dtd">
<!-- Generated by graphviz version 2.43.0 (0)
 -->
<!-- Title: Hash_Table Pages: 1 -->
<svg width="124pt" height="278pt"
 viewBox="0.00 0.00 124.00 278.00" xmlns="http://www.w3.org/2000/svg" xmlns:xlink="http://www.w3.org/1999/xlink">
<g id="graph0" class="graph" transform="scale(1 1) rotate(0) translate(4 274)">
<title>Hash_Table</title>
<polygon fill="white" stroke="transparent" points="-4,4 -4,-274 120,-274 120,4 -4,4"/>
<!-- node0 -->
<g id="node1" class="node">
<title>node0</title>
<polygon fill="none" stroke="black" points="0,-8.5 0,-218.5 24,-218.5 24,-8.5 0,-8.5"/>
<text text-anchor="middle" x="12" y="-209.7" font-family="Times,serif" font-size="6.00">1</text>
<polyline fill="none" stroke="black" points="0,-203.5 24,-203.5 "/>
<text text-anchor="middle" x="12" y="-194.7" font-family="Times,serif" font-size="6.00">2</text>
<polyline fill="none" stroke="black" points="0,-188.5 24,-188.5 "/>
<text text-anchor="middle" x="12" y="-179.7" font-family="Times,serif" font-size="6.00">3</text>
<polyline fill="none" stroke="black" points="0,-173.5 24,-173.5 "/>
<text text-anchor="middle" x="12" y="-164.7" font-family="Times,serif" font-size="6.00">4</text>
<polyline fill="none" stroke="black" points="0,-158.5 24,-158.5 "/>
<text text-anchor="middle" x="12" y="-149.7" font-family="Times,serif" font-size="6.00">5</text>
<polyline fill="none" stroke="black" points="0,-143.5 24,-143.5 "/>
<text text-anchor="middle" x="12" y="-134.7" font-family="Times,serif" font-size="6.00">6</text>
<polyline fill="none" stroke="black" points="0,-128.5 24,-128.5 "/>
<text text-anchor="middle" x="12" y="-119.7" font-family="Times,serif" font-size="6.00">7</text>
<polyline fill="none" stroke="black" points="0,-113.5 24,-113.5 "/>
<text text-anchor="middle" x="12" y="-104.7" font-family="Times,serif" font-size="6.00">8</text>
<polyline fill="none" stroke="black" points="0,-98.5 24,-98.5 "/>
<text text-anchor="middle" x="12" y="-89.7" font-family="Times,serif" font-size="6.00">9</text>
<polyline fill="none" stroke="black" points="0,-83.5 24,-83.5 "/>
<text text-anchor="middle" x="12" y="-74.7" font-family="Times,serif" font-size="6.00">10</text>
<polyline fill="none" stroke="black" points="0,-68.5 24,-68.5 "/>
<text text-anchor="middle" x="12" y="-59.7" font-family="Times,serif" font-size="6.00">11</text>
<polyline fill="none" stroke="black" points="0,-53.5 24,-53.5 "/>
<text text-anchor="middle" x="12" y="-44.7" font-family="Times,serif" font-size="6.00">12</text>
<polyline fill="none" stroke="black" points="0,-38.5 24,-38.5 "/>
<text text-anchor="middle" x="12" y="-29.7" font-family="Times,serif" font-size="6.00">13</text>
<polyline fill="none" stroke="black" points="0,-23.5 24,-23.5 "/>
<text text-anchor="middle" x="12" y="-14.7" font-family="Times,serif" font-size="6.00">14</text>
</g>
<!-- Juan Carlos -->
<g id="node2" class="node">
<title>Juan Carlos</title>
<polygon fill="none" stroke="black" points="61.5,-233.5 61.5,-269.5 114.5,-269.5 114.5,-233.5 61.5,-233.5"/>
<text text-anchor="middle" x="88" y="-250.2" font-family="Times,serif" font-size="6.00">Juan Carlos</text>
</g>
<!-- node0&#45;&gt;Juan Carlos -->
<g id="edge1" class="edge">
<title>node0:f0&#45;&gt;Juan Carlos</title>
<path fill="none" stroke="black" d="M24,-211.5C38.04,-211.5 51.48,-218.67 62.32,-226.94"/>
<polygon fill="black" stroke="black" points="60.14,-229.67 70.06,-233.37 64.61,-224.29 60.14,-229.67"/>
</g>
<!-- Ana Sofia -->
<g id="node3" class="node">
<title>Ana Sofia</title>
<polygon fill="none" stroke="black" points="65,-178.5 65,-214.5 111,-214.5 111,-178.5 65,-178.5"/>
<text text-anchor="middle" x="88" y="-195.2" font-family="Times,serif" font-size="6.00">Ana Sofia</text>
</g>
<!-- node0&#45;&gt;Ana Sofia -->
<g id="edge2" class="edge">
<title>node0:f1&#45;&gt;Ana Sofia</title>
<path fill="none" stroke="black" d="M24,-196.5C33.96,-196.5 44.81,-196.5 54.65,-196.5"/>
<polygon fill="black" stroke="black" points="54.84,-200 64.84,-196.5 54.84,-193 54.84,-200"/>
</g>
<!-- Maria -->
<g id="node4" class="node">
<title>Maria</title>
<polygon fill="none" stroke="black" points="70.5,-123.5 70.5,-159.5 105.5,-159.5 105.5,-123.5 70.5,-123.5"/>
<text text-anchor="middle" x="88" y="-140.2" font-family="Times,serif" font-size="6.00">Maria</text>
</g>
<!-- node0&#45;&gt;Maria -->
<g id="edge3" class="edge">
<title>node0:f3&#45;&gt;Maria</title>
<path fill="none" stroke="black" d="M24,-166.5C36.83,-166.5 50.16,-161.96 61.24,-156.75"/>
<polygon fill="black" stroke="black" points="63.02,-159.78 70.33,-152.1 59.83,-153.55 63.02,-159.78"/>
</g>
<!-- Pedro -->
<g id="node5" class="node">
<title>Pedro</title>
<polygon fill="none" stroke="black" points="70.5,-55.5 70.5,-91.5 105.5,-91.5 105.5,-55.5 70.5,-55.5"/>
<text text-anchor="middle" x="88" y="-72.2" font-family="Times,serif" font-size="6.00">Pedro</text>
</g>
<!-- node0&#45;&gt;Pedro -->
<g id="edge4" class="edge">
<title>node0:f10&#45;&gt;Pedro</title>
<path fill="none" stroke="black" d="M24,-60.5C36.1,-60.5 49.25,-62.83 60.38,-65.52"/>
<polygon fill="black" stroke="black" points="59.79,-68.98 70.35,-68.14 61.57,-62.21 59.79,-68.98"/>
</g>
<!-- Diego Felipe -->
<g id="node6" class="node">
<title>Diego Felipe</title>
<polygon fill="none" stroke="black" points="60,-0.5 60,-36.5 116,-36.5 116,-0.5 60,-0.5"/>
<text text-anchor="middle" x="88" y="-17.2" font-family="Times,serif" font-size="6.00">Diego Felipe</text>
</g>
<!-- node0&#45;&gt;Diego Felipe -->
<g id="edge5" class="edge">
<title>node0:f12&#45;&gt;Diego Felipe</title>
<path fill="none" stroke="black" d="M24,-30.5C32.47,-30.5 41.47,-29.44 49.93,-27.95"/>
<polygon fill="black" stroke="black" points="50.8,-31.35 59.93,-25.96 49.43,-24.48 50.8,-31.35"/>
</g>
</g>
</svg>
