<?xml version="1.0" encoding="UTF-8" standalone="no"?>
<!DOCTYPE svg PUBLIC "-//W3C//DTD SVG 1.1//EN"
 "http://www.w3.org/Graphics/SVG/1.1/DTD/svg11.dtd">
<!-- Generated by graphviz version 2.43.0 (0)
 -->
<!-- Title: Merkle_tree Pages: 1 -->
<svg width="4061pt" height="376pt"
 viewBox="0.00 0.00 4061.00 376.00" xmlns="http://www.w3.org/2000/svg" xmlns:xlink="http://www.w3.org/1999/xlink">
<g id="graph0" class="graph" transform="scale(1 1) rotate(0) translate(4 372)">
<title>Merkle_tree</title>
<polygon fill="white" stroke="transparent" points="-4,4 -4,-372 4057,-372 4057,4 -4,4"/>
<!-- 9 -->
<g id="node1" class="node">
<title>9</title>
<polygon fill="none" stroke="black" points="1795.5,-331.5 1795.5,-367.5 2268.5,-367.5 2268.5,-331.5 1795.5,-331.5"/>
<text text-anchor="middle" x="2032" y="-346.4" font-family="Arial" font-size="12.00">D4921EE12161515F6FFBFE0816EDA20B40A9544039E43483A4257089196897C1</text>
</g>
<!-- 10 -->
<g id="node2" class="node">
<title>10</title>
<polygon fill="none" stroke="black" points="1273,-258.5 1273,-294.5 1761,-294.5 1761,-258.5 1273,-258.5"/>
<text text-anchor="middle" x="1517" y="-273.4" font-family="Arial" font-size="12.00">61F8530F3DAA4BB55E9CE643FEE3D1FB427EE3874931F2DEEA554326DF1AE132</text>
</g>
<!-- 9&#45;&gt;10 -->
<g id="edge1" class="edge">
<title>9&#45;&gt;10</title>
<path fill="none" stroke="black" d="M1908.64,-331.49C1830.88,-320.77 1730.47,-306.93 1650.79,-295.95"/>
<polygon fill="black" stroke="black" points="1651.07,-292.45 1640.69,-294.55 1650.11,-299.38 1651.07,-292.45"/>
</g>
<!-- 17 -->
<g id="node3" class="node">
<title>17</title>
<polygon fill="none" stroke="black" points="2296.5,-258.5 2296.5,-294.5 2789.5,-294.5 2789.5,-258.5 2296.5,-258.5"/>
<text text-anchor="middle" x="2543" y="-273.4" font-family="Arial" font-size="12.00">E8556C28DB0C2D29E64BEBA43301AE8C8AB967034BC03EF21DCA170E3FA778B9</text>
</g>
<!-- 9&#45;&gt;17 -->
<g id="edge2" class="edge">
<title>9&#45;&gt;17</title>
<path fill="none" stroke="black" d="M2154.4,-331.49C2231.56,-320.77 2331.18,-306.93 2410.25,-295.95"/>
<polygon fill="black" stroke="black" points="2410.85,-299.39 2420.27,-294.55 2409.89,-292.46 2410.85,-299.39"/>
</g>
<!-- 11 -->
<g id="node4" class="node">
<title>11</title>
<polygon fill="none" stroke="black" points="512.5,-185.5 512.5,-221.5 991.5,-221.5 991.5,-185.5 512.5,-185.5"/>
<text text-anchor="middle" x="752" y="-200.4" font-family="Arial" font-size="12.00">3E1D9479D39311F683299115431298239BDC618D20A613DCE05ECA7293EA41A7</text>
</g>
<!-- 10&#45;&gt;11 -->
<g id="edge3" class="edge">
<title>10&#45;&gt;11</title>
<path fill="none" stroke="black" d="M1333.76,-258.49C1216.5,-247.61 1064.56,-233.51 945.37,-222.45"/>
<polygon fill="black" stroke="black" points="945.68,-218.96 935.4,-221.52 945.03,-225.93 945.68,-218.96"/>
</g>
<!-- 14 -->
<g id="node5" class="node">
<title>14</title>
<polygon fill="none" stroke="black" points="1274,-185.5 1274,-221.5 1760,-221.5 1760,-185.5 1274,-185.5"/>
<text text-anchor="middle" x="1517" y="-200.4" font-family="Arial" font-size="12.00">2489A95A6B9DE6CD2895CDA2FB0A676B4D07380F80F5D726FC17A9675E413E21</text>
</g>
<!-- 10&#45;&gt;14 -->
<g id="edge4" class="edge">
<title>10&#45;&gt;14</title>
<path fill="none" stroke="black" d="M1517,-258.31C1517,-250.29 1517,-240.55 1517,-231.57"/>
<polygon fill="black" stroke="black" points="1520.5,-231.53 1517,-221.53 1513.5,-231.53 1520.5,-231.53"/>
</g>
<!-- 18 -->
<g id="node14" class="node">
<title>18</title>
<polygon fill="none" stroke="black" points="2299,-185.5 2299,-221.5 2787,-221.5 2787,-185.5 2299,-185.5"/>
<text text-anchor="middle" x="2543" y="-200.4" font-family="Arial" font-size="12.00">35143CE923B093ACAE6957E429D6F7C07D9D4B0F1663B98490B72C61D18FC2AD</text>
</g>
<!-- 17&#45;&gt;18 -->
<g id="edge13" class="edge">
<title>17&#45;&gt;18</title>
<path fill="none" stroke="black" d="M2543,-258.31C2543,-250.29 2543,-240.55 2543,-231.57"/>
<polygon fill="black" stroke="black" points="2546.5,-231.53 2543,-221.53 2539.5,-231.53 2546.5,-231.53"/>
</g>
<!-- 21 -->
<g id="node15" class="node">
<title>21</title>
<polygon fill="none" stroke="black" points="3063.5,-185.5 3063.5,-221.5 3542.5,-221.5 3542.5,-185.5 3063.5,-185.5"/>
<text text-anchor="middle" x="3303" y="-200.4" font-family="Arial" font-size="12.00">8A9905C681659DAF7997A35419792711E2C5F2BC4A44820188DB18B6D1D7639E</text>
</g>
<!-- 17&#45;&gt;21 -->
<g id="edge14" class="edge">
<title>17&#45;&gt;21</title>
<path fill="none" stroke="black" d="M2725.04,-258.49C2841.42,-247.62 2992.18,-233.54 3110.54,-222.48"/>
<polygon fill="black" stroke="black" points="3111.17,-225.94 3120.8,-221.52 3110.52,-218.97 3111.17,-225.94"/>
</g>
<!-- 12 -->
<g id="node6" class="node">
<title>12</title>
<polygon fill="none" stroke="black" points="0,-112.5 0,-148.5 494,-148.5 494,-112.5 0,-112.5"/>
<text text-anchor="middle" x="247" y="-127.4" font-family="Arial" font-size="12.00">25B583E8CE70A36CC7EADAE8035609A1D7D3C93F63011E9A9DDD32767684ACC5</text>
</g>
<!-- 11&#45;&gt;12 -->
<g id="edge5" class="edge">
<title>11&#45;&gt;12</title>
<path fill="none" stroke="black" d="M631.04,-185.49C554.79,-174.77 456.33,-160.93 378.2,-149.95"/>
<polygon fill="black" stroke="black" points="378.67,-146.48 368.29,-148.55 377.7,-153.41 378.67,-146.48"/>
</g>
<!-- 13 -->
<g id="node7" class="node">
<title>13</title>
<polygon fill="none" stroke="black" points="512.5,-112.5 512.5,-148.5 991.5,-148.5 991.5,-112.5 512.5,-112.5"/>
<text text-anchor="middle" x="752" y="-127.4" font-family="Arial" font-size="12.00">6B804E64AEFA2D30A23492036AB6927CA7C114E1826FD7631624FE1777612A4C</text>
</g>
<!-- 11&#45;&gt;13 -->
<g id="edge6" class="edge">
<title>11&#45;&gt;13</title>
<path fill="none" stroke="black" d="M752,-185.31C752,-177.29 752,-167.55 752,-158.57"/>
<polygon fill="black" stroke="black" points="755.5,-158.53 752,-148.53 748.5,-158.53 755.5,-158.53"/>
</g>
<!-- 15 -->
<g id="node10" class="node">
<title>15</title>
<polygon fill="none" stroke="black" points="1010,-112.5 1010,-148.5 1508,-148.5 1508,-112.5 1010,-112.5"/>
<text text-anchor="middle" x="1259" y="-127.4" font-family="Arial" font-size="12.00">AB48B108AD98F1D727A3C2B879C0DDBDE02E85B687EBBE19C43D768F825E2CAA</text>
</g>
<!-- 14&#45;&gt;15 -->
<g id="edge9" class="edge">
<title>14&#45;&gt;15</title>
<path fill="none" stroke="black" d="M1455.2,-185.49C1417.82,-175.21 1370,-162.05 1330.92,-151.29"/>
<polygon fill="black" stroke="black" points="1331.76,-147.89 1321.19,-148.61 1329.9,-154.64 1331.76,-147.89"/>
</g>
<!-- 16 -->
<g id="node11" class="node">
<title>16</title>
<polygon fill="none" stroke="black" points="1526.5,-112.5 1526.5,-148.5 2027.5,-148.5 2027.5,-112.5 1526.5,-112.5"/>
<text text-anchor="middle" x="1777" y="-127.4" font-family="Arial" font-size="12.00">2A768435EB1518B53AFB08D9CBAED2E43BC0D5CB7DD69A8D24FA3FF7ABBBA6A8</text>
</g>
<!-- 14&#45;&gt;16 -->
<g id="edge10" class="edge">
<title>14&#45;&gt;16</title>
<path fill="none" stroke="black" d="M1579.28,-185.49C1616.95,-175.21 1665.14,-162.05 1704.52,-151.29"/>
<polygon fill="black" stroke="black" points="1705.61,-154.62 1714.33,-148.61 1703.76,-147.87 1705.61,-154.62"/>
</g>
<!-- 1 -->
<g id="node8" class="node">
<title>1</title>
<polygon fill="none" stroke="black" points="81.5,-0.5 81.5,-75.5 412.5,-75.5 412.5,-0.5 81.5,-0.5"/>
<polygon fill="none" stroke="black" points="93,-49 93,-68 221,-68 221,-49 93,-49"/>
<text text-anchor="start" x="113.5" y="-55.4" font-family="Arial" font-size="12.00">id_origin: &#160;&#160;&#160;&#160;&#160;&#160;&#160;&#160;&#160;1</text>
<polygon fill="none" stroke="black" points="223,-49 223,-68 402,-68 402,-49 223,-49"/>
<text text-anchor="start" x="228.5" y="-55.4" font-family="Arial" font-size="12.00">address_origin: Chimaltenango</text>
<polygon fill="none" stroke="black" points="93,-28 93,-47 221,-47 221,-28 93,-28"/>
<text text-anchor="start" x="99.5" y="-34.4" font-family="Arial" font-size="12.00">id_destination: &#160;&#160;&#160;&#160;&#160;&#160;&#160;&#160;&#160;3</text>
<polygon fill="none" stroke="black" points="223,-28 223,-47 402,-47 402,-28 223,-28"/>
<text text-anchor="start" x="226" y="-34.4" font-family="Arial" font-size="12.00">address_destination: Guatemala</text>
<polygon fill="none" stroke="black" points="93,-7 93,-26 221,-26 221,-7 93,-7"/>
<text text-anchor="start" x="96" y="-13.4" font-family="Arial" font-size="12.00">cost_between: &#160;&#160;&#160;&#160;&#160;&#160;&#160;500</text>
<polygon fill="none" stroke="black" points="89.5,-4.5 89.5,-71.5 404.5,-71.5 404.5,-4.5 89.5,-4.5"/>
</g>
<!-- 12&#45;&gt;1 -->
<g id="edge7" class="edge">
<title>12&#45;&gt;1</title>
<path fill="none" stroke="black" d="M247,-112.48C247,-104.88 247,-95.52 247,-86.05"/>
<polygon fill="black" stroke="black" points="250.5,-85.82 247,-75.82 243.5,-85.82 250.5,-85.82"/>
</g>
<!-- 2 -->
<g id="node9" class="node">
<title>2</title>
<polygon fill="none" stroke="black" points="586.5,-0.5 586.5,-75.5 917.5,-75.5 917.5,-0.5 586.5,-0.5"/>
<polygon fill="none" stroke="black" points="598,-49 598,-68 726,-68 726,-49 598,-49"/>
<text text-anchor="start" x="618.5" y="-55.4" font-family="Arial" font-size="12.00">id_origin: &#160;&#160;&#160;&#160;&#160;&#160;&#160;&#160;&#160;2</text>
<polygon fill="none" stroke="black" points="728,-49 728,-68 907,-68 907,-49 728,-49"/>
<text text-anchor="start" x="732" y="-55.4" font-family="Arial" font-size="12.00">address_origin: Quetzaltenango</text>
<polygon fill="none" stroke="black" points="598,-28 598,-47 726,-47 726,-28 598,-28"/>
<text text-anchor="start" x="604.5" y="-34.4" font-family="Arial" font-size="12.00">id_destination: &#160;&#160;&#160;&#160;&#160;&#160;&#160;&#160;&#160;3</text>
<polygon fill="none" stroke="black" points="728,-28 728,-47 907,-47 907,-28 728,-28"/>
<text text-anchor="start" x="731" y="-34.4" font-family="Arial" font-size="12.00">address_destination: Guatemala</text>
<polygon fill="none" stroke="black" points="598,-7 598,-26 726,-26 726,-7 598,-7"/>
<text text-anchor="start" x="601" y="-13.4" font-family="Arial" font-size="12.00">cost_between: &#160;&#160;&#160;&#160;&#160;&#160;&#160;200</text>
<polygon fill="none" stroke="black" points="594.5,-4.5 594.5,-71.5 909.5,-71.5 909.5,-4.5 594.5,-4.5"/>
</g>
<!-- 13&#45;&gt;2 -->
<g id="edge8" class="edge">
<title>13&#45;&gt;2</title>
<path fill="none" stroke="black" d="M752,-112.48C752,-104.88 752,-95.52 752,-86.05"/>
<polygon fill="black" stroke="black" points="755.5,-85.82 752,-75.82 748.5,-85.82 755.5,-85.82"/>
</g>
<!-- 3 -->
<g id="node12" class="node">
<title>3</title>
<polygon fill="none" stroke="black" points="1082,-0.5 1082,-75.5 1436,-75.5 1436,-0.5 1082,-0.5"/>
<polygon fill="none" stroke="black" points="1093,-49 1093,-68 1221,-68 1221,-49 1093,-49"/>
<text text-anchor="start" x="1113.5" y="-55.4" font-family="Arial" font-size="12.00">id_origin: &#160;&#160;&#160;&#160;&#160;&#160;&#160;&#160;&#160;3</text>
<polygon fill="none" stroke="black" points="1223,-49 1223,-68 1425,-68 1425,-49 1223,-49"/>
<text text-anchor="start" x="1238" y="-55.4" font-family="Arial" font-size="12.00">address_origin: Huehuetenango</text>
<polygon fill="none" stroke="black" points="1093,-28 1093,-47 1221,-47 1221,-28 1093,-28"/>
<text text-anchor="start" x="1099.5" y="-34.4" font-family="Arial" font-size="12.00">id_destination: &#160;&#160;&#160;&#160;&#160;&#160;&#160;&#160;&#160;1</text>
<polygon fill="none" stroke="black" points="1223,-28 1223,-47 1425,-47 1425,-28 1223,-28"/>
<text text-anchor="start" x="1226" y="-34.4" font-family="Arial" font-size="12.00">address_destination: Chimaltenango</text>
<polygon fill="none" stroke="black" points="1093,-7 1093,-26 1221,-26 1221,-7 1093,-7"/>
<text text-anchor="start" x="1096" y="-13.4" font-family="Arial" font-size="12.00">cost_between: &#160;&#160;&#160;&#160;&#160;&#160;&#160;100</text>
<polygon fill="none" stroke="black" points="1090,-4.5 1090,-71.5 1428,-71.5 1428,-4.5 1090,-4.5"/>
</g>
<!-- 15&#45;&gt;3 -->
<g id="edge11" class="edge">
<title>15&#45;&gt;3</title>
<path fill="none" stroke="black" d="M1259,-112.48C1259,-104.88 1259,-95.52 1259,-86.05"/>
<polygon fill="black" stroke="black" points="1262.5,-85.82 1259,-75.82 1255.5,-85.82 1262.5,-85.82"/>
</g>
<!-- 4 -->
<g id="node13" class="node">
<title>4</title>
<polygon fill="none" stroke="black" points="1600.5,-0.5 1600.5,-75.5 1953.5,-75.5 1953.5,-0.5 1600.5,-0.5"/>
<polygon fill="none" stroke="black" points="1612,-49 1612,-68 1736,-68 1736,-49 1612,-49"/>
<text text-anchor="start" x="1630.5" y="-55.4" font-family="Arial" font-size="12.00">id_origin: &#160;&#160;&#160;&#160;&#160;&#160;&#160;&#160;&#160;4</text>
<polygon fill="none" stroke="black" points="1738,-49 1738,-68 1943,-68 1943,-49 1738,-49"/>
<text text-anchor="start" x="1765.5" y="-55.4" font-family="Arial" font-size="12.00">address_origin: San Marcos</text>
<polygon fill="none" stroke="black" points="1612,-28 1612,-47 1736,-47 1736,-28 1612,-28"/>
<text text-anchor="start" x="1616.5" y="-34.4" font-family="Arial" font-size="12.00">id_destination: &#160;&#160;&#160;&#160;&#160;&#160;&#160;&#160;&#160;2</text>
<polygon fill="none" stroke="black" points="1738,-28 1738,-47 1943,-47 1943,-28 1738,-28"/>
<text text-anchor="start" x="1741" y="-34.4" font-family="Arial" font-size="12.00">address_destination: Quetzaltenango</text>
<polygon fill="none" stroke="black" points="1612,-7 1612,-26 1736,-26 1736,-7 1612,-7"/>
<text text-anchor="start" x="1615" y="-13.4" font-family="Arial" font-size="12.00">cost_between: &#160;&#160;&#160;&#160;&#160;&#160;&#160;&#160;50</text>
<polygon fill="none" stroke="black" points="1608.5,-4.5 1608.5,-71.5 1945.5,-71.5 1945.5,-4.5 1608.5,-4.5"/>
</g>
<!-- 16&#45;&gt;4 -->
<g id="edge12" class="edge">
<title>16&#45;&gt;4</title>
<path fill="none" stroke="black" d="M1777,-112.48C1777,-104.88 1777,-95.52 1777,-86.05"/>
<polygon fill="black" stroke="black" points="1780.5,-85.82 1777,-75.82 1773.5,-85.82 1780.5,-85.82"/>
</g>
<!-- 19 -->
<g id="node16" class="node">
<title>19</title>
<polygon fill="none" stroke="black" points="2045.5,-112.5 2045.5,-148.5 2534.5,-148.5 2534.5,-112.5 2045.5,-112.5"/>
<text text-anchor="middle" x="2290" y="-127.4" font-family="Arial" font-size="12.00">99A70C9B2DF7655FBAC31C0C722C202E17BF27019C9FFF5BE74487B4A1EFB5B3</text>
</g>
<!-- 18&#45;&gt;19 -->
<g id="edge15" class="edge">
<title>18&#45;&gt;19</title>
<path fill="none" stroke="black" d="M2482.4,-185.49C2445.9,-175.25 2399.24,-162.16 2361.02,-151.43"/>
<polygon fill="black" stroke="black" points="2361.56,-147.95 2350.98,-148.61 2359.66,-154.69 2361.56,-147.95"/>
</g>
<!-- 20 -->
<g id="node17" class="node">
<title>20</title>
<polygon fill="none" stroke="black" points="2553,-112.5 2553,-148.5 3041,-148.5 3041,-112.5 2553,-112.5"/>
<text text-anchor="middle" x="2797" y="-127.4" font-family="Arial" font-size="12.00">20A568617FE844C6EECB1B0CBB6F54E276BEA59FAF326831B98EFE00B9E136C5</text>
</g>
<!-- 18&#45;&gt;20 -->
<g id="edge16" class="edge">
<title>18&#45;&gt;20</title>
<path fill="none" stroke="black" d="M2603.84,-185.49C2640.48,-175.25 2687.33,-162.16 2725.7,-151.43"/>
<polygon fill="black" stroke="black" points="2727.09,-154.68 2735.78,-148.61 2725.2,-147.93 2727.09,-154.68"/>
</g>
<!-- 22 -->
<g id="node20" class="node">
<title>22</title>
<polygon fill="none" stroke="black" points="3059,-112.5 3059,-148.5 3547,-148.5 3547,-112.5 3059,-112.5"/>
<text text-anchor="middle" x="3303" y="-127.4" font-family="Arial" font-size="12.00">20A568617FE844C6EECB1B0CBB6F54E276BEA59FAF326831B98EFE00B9E136C5</text>
</g>
<!-- 21&#45;&gt;22 -->
<g id="edge19" class="edge">
<title>21&#45;&gt;22</title>
<path fill="none" stroke="black" d="M3303,-185.31C3303,-177.29 3303,-167.55 3303,-158.57"/>
<polygon fill="black" stroke="black" points="3306.5,-158.53 3303,-148.53 3299.5,-158.53 3306.5,-158.53"/>
</g>
<!-- 23 -->
<g id="node21" class="node">
<title>23</title>
<polygon fill="none" stroke="black" points="3565,-112.5 3565,-148.5 4053,-148.5 4053,-112.5 3565,-112.5"/>
<text text-anchor="middle" x="3809" y="-127.4" font-family="Arial" font-size="12.00">20A568617FE844C6EECB1B0CBB6F54E276BEA59FAF326831B98EFE00B9E136C5</text>
</g>
<!-- 21&#45;&gt;23 -->
<g id="edge20" class="edge">
<title>21&#45;&gt;23</title>
<path fill="none" stroke="black" d="M3424.2,-185.49C3500.6,-174.77 3599.26,-160.93 3677.54,-149.95"/>
<polygon fill="black" stroke="black" points="3678.06,-153.41 3687.47,-148.55 3677.09,-146.48 3678.06,-153.41"/>
</g>
<!-- 5 -->
<g id="node18" class="node">
<title>5</title>
<polygon fill="none" stroke="black" points="2111.5,-0.5 2111.5,-75.5 2468.5,-75.5 2468.5,-0.5 2111.5,-0.5"/>
<polygon fill="none" stroke="black" points="2123,-49 2123,-68 2251,-68 2251,-49 2123,-49"/>
<text text-anchor="start" x="2143.5" y="-55.4" font-family="Arial" font-size="12.00">id_origin: &#160;&#160;&#160;&#160;&#160;&#160;&#160;&#160;&#160;5</text>
<polygon fill="none" stroke="black" points="2253,-49 2253,-68 2458,-68 2458,-49 2253,-49"/>
<text text-anchor="start" x="2295" y="-55.4" font-family="Arial" font-size="12.00">address_origin: Solola</text>
<polygon fill="none" stroke="black" points="2123,-28 2123,-47 2251,-47 2251,-28 2123,-28"/>
<text text-anchor="start" x="2129.5" y="-34.4" font-family="Arial" font-size="12.00">id_destination: &#160;&#160;&#160;&#160;&#160;&#160;&#160;&#160;&#160;2</text>
<polygon fill="none" stroke="black" points="2253,-28 2253,-47 2458,-47 2458,-28 2253,-28"/>
<text text-anchor="start" x="2256" y="-34.4" font-family="Arial" font-size="12.00">address_destination: Quetzaltenango</text>
<polygon fill="none" stroke="black" points="2123,-7 2123,-26 2251,-26 2251,-7 2123,-7"/>
<text text-anchor="start" x="2126" y="-13.4" font-family="Arial" font-size="12.00">cost_between: &#160;&#160;&#160;&#160;&#160;&#160;&#160;150</text>
<polygon fill="none" stroke="black" points="2119.5,-4.5 2119.5,-71.5 2460.5,-71.5 2460.5,-4.5 2119.5,-4.5"/>
</g>
<!-- 19&#45;&gt;5 -->
<g id="edge17" class="edge">
<title>19&#45;&gt;5</title>
<path fill="none" stroke="black" d="M2290,-112.48C2290,-104.88 2290,-95.52 2290,-86.05"/>
<polygon fill="black" stroke="black" points="2293.5,-85.82 2290,-75.82 2286.5,-85.82 2293.5,-85.82"/>
</g>
<!-- 6 -->
<g id="node19" class="node">
<title>6</title>
<polygon fill="none" stroke="black" points="2654,-0.5 2654,-75.5 2940,-75.5 2940,-0.5 2654,-0.5"/>
<polygon fill="none" stroke="black" points="2665,-49 2665,-68 2787,-68 2787,-49 2665,-49"/>
<text text-anchor="start" x="2682" y="-55.4" font-family="Arial" font-size="12.00">id_origin: &#160;&#160;&#160;&#160;&#160;&#160;&#160;&#160;&#45;1</text>
<polygon fill="none" stroke="black" points="2789,-49 2789,-68 2929,-68 2929,-49 2789,-49"/>
<text text-anchor="start" x="2806" y="-55.4" font-family="Arial" font-size="12.00">address_origin: null</text>
<polygon fill="none" stroke="black" points="2665,-28 2665,-47 2787,-47 2787,-28 2665,-28"/>
<text text-anchor="start" x="2668" y="-34.4" font-family="Arial" font-size="12.00">id_destination: &#160;&#160;&#160;&#160;&#160;&#160;&#160;&#160;&#45;1</text>
<polygon fill="none" stroke="black" points="2789,-28 2789,-47 2929,-47 2929,-28 2789,-28"/>
<text text-anchor="start" x="2792" y="-34.4" font-family="Arial" font-size="12.00">address_destination: null</text>
<polygon fill="none" stroke="black" points="2665,-7 2665,-26 2787,-26 2787,-7 2665,-7"/>
<text text-anchor="start" x="2668.5" y="-13.4" font-family="Arial" font-size="12.00">cost_between: &#160;&#160;&#160;&#160;&#160;&#160;&#160;&#160;&#45;1</text>
<polygon fill="none" stroke="black" points="2662,-4.5 2662,-71.5 2932,-71.5 2932,-4.5 2662,-4.5"/>
</g>
<!-- 20&#45;&gt;6 -->
<g id="edge18" class="edge">
<title>20&#45;&gt;6</title>
<path fill="none" stroke="black" d="M2797,-112.48C2797,-104.88 2797,-95.52 2797,-86.05"/>
<polygon fill="black" stroke="black" points="2800.5,-85.82 2797,-75.82 2793.5,-85.82 2800.5,-85.82"/>
</g>
<!-- 7 -->
<g id="node22" class="node">
<title>7</title>
<polygon fill="none" stroke="black" points="3160,-0.5 3160,-75.5 3446,-75.5 3446,-0.5 3160,-0.5"/>
<polygon fill="none" stroke="black" points="3171,-49 3171,-68 3293,-68 3293,-49 3171,-49"/>
<text text-anchor="start" x="3188" y="-55.4" font-family="Arial" font-size="12.00">id_origin: &#160;&#160;&#160;&#160;&#160;&#160;&#160;&#160;&#45;1</text>
<polygon fill="none" stroke="black" points="3295,-49 3295,-68 3435,-68 3435,-49 3295,-49"/>
<text text-anchor="start" x="3312" y="-55.4" font-family="Arial" font-size="12.00">address_origin: null</text>
<polygon fill="none" stroke="black" points="3171,-28 3171,-47 3293,-47 3293,-28 3171,-28"/>
<text text-anchor="start" x="3174" y="-34.4" font-family="Arial" font-size="12.00">id_destination: &#160;&#160;&#160;&#160;&#160;&#160;&#160;&#160;&#45;1</text>
<polygon fill="none" stroke="black" points="3295,-28 3295,-47 3435,-47 3435,-28 3295,-28"/>
<text text-anchor="start" x="3298" y="-34.4" font-family="Arial" font-size="12.00">address_destination: null</text>
<polygon fill="none" stroke="black" points="3171,-7 3171,-26 3293,-26 3293,-7 3171,-7"/>
<text text-anchor="start" x="3174.5" y="-13.4" font-family="Arial" font-size="12.00">cost_between: &#160;&#160;&#160;&#160;&#160;&#160;&#160;&#160;&#45;1</text>
<polygon fill="none" stroke="black" points="3168,-4.5 3168,-71.5 3438,-71.5 3438,-4.5 3168,-4.5"/>
</g>
<!-- 22&#45;&gt;7 -->
<g id="edge21" class="edge">
<title>22&#45;&gt;7</title>
<path fill="none" stroke="black" d="M3303,-112.48C3303,-104.88 3303,-95.52 3303,-86.05"/>
<polygon fill="black" stroke="black" points="3306.5,-85.82 3303,-75.82 3299.5,-85.82 3306.5,-85.82"/>
</g>
<!-- 8 -->
<g id="node23" class="node">
<title>8</title>
<polygon fill="none" stroke="black" points="3666,-0.5 3666,-75.5 3952,-75.5 3952,-0.5 3666,-0.5"/>
<polygon fill="none" stroke="black" points="3677,-49 3677,-68 3799,-68 3799,-49 3677,-49"/>
<text text-anchor="start" x="3694" y="-55.4" font-family="Arial" font-size="12.00">id_origin: &#160;&#160;&#160;&#160;&#160;&#160;&#160;&#160;&#45;1</text>
<polygon fill="none" stroke="black" points="3801,-49 3801,-68 3941,-68 3941,-49 3801,-49"/>
<text text-anchor="start" x="3818" y="-55.4" font-family="Arial" font-size="12.00">address_origin: null</text>
<polygon fill="none" stroke="black" points="3677,-28 3677,-47 3799,-47 3799,-28 3677,-28"/>
<text text-anchor="start" x="3680" y="-34.4" font-family="Arial" font-size="12.00">id_destination: &#160;&#160;&#160;&#160;&#160;&#160;&#160;&#160;&#45;1</text>
<polygon fill="none" stroke="black" points="3801,-28 3801,-47 3941,-47 3941,-28 3801,-28"/>
<text text-anchor="start" x="3804" y="-34.4" font-family="Arial" font-size="12.00">address_destination: null</text>
<polygon fill="none" stroke="black" points="3677,-7 3677,-26 3799,-26 3799,-7 3677,-7"/>
<text text-anchor="start" x="3680.5" y="-13.4" font-family="Arial" font-size="12.00">cost_between: &#160;&#160;&#160;&#160;&#160;&#160;&#160;&#160;&#45;1</text>
<polygon fill="none" stroke="black" points="3674,-4.5 3674,-71.5 3944,-71.5 3944,-4.5 3674,-4.5"/>
</g>
<!-- 23&#45;&gt;8 -->
<g id="edge22" class="edge">
<title>23&#45;&gt;8</title>
<path fill="none" stroke="black" d="M3809,-112.48C3809,-104.88 3809,-95.52 3809,-86.05"/>
<polygon fill="black" stroke="black" points="3812.5,-85.82 3809,-75.82 3805.5,-85.82 3812.5,-85.82"/>
</g>
</g>
</svg>
