<?xml version="1.0" encoding="UTF-8" standalone="no"?>
<!DOCTYPE svg PUBLIC "-//W3C//DTD SVG 1.1//EN"
 "http://www.w3.org/Graphics/SVG/1.1/DTD/svg11.dtd">
<!-- Generated by graphviz version 2.43.0 (0)
 -->
<!-- Title: Merkle_tree Pages: 1 -->
<svg width="2012pt" height="303pt"
 viewBox="0.00 0.00 2011.50 303.00" xmlns="http://www.w3.org/2000/svg" xmlns:xlink="http://www.w3.org/1999/xlink">
<g id="graph0" class="graph" transform="scale(1 1) rotate(0) translate(4 299)">
<title>Merkle_tree</title>
<polygon fill="white" stroke="transparent" points="-4,4 -4,-299 2007.5,-299 2007.5,4 -4,4"/>
<!-- 5 -->
<g id="node1" class="node">
<title>5</title>
<polygon fill="none" stroke="black" points="755.5,-258.5 755.5,-294.5 1239.5,-294.5 1239.5,-258.5 755.5,-258.5"/>
<text text-anchor="middle" x="997.5" y="-273.4" font-family="Arial" font-size="12.00">8975BB401026876D7E79BC4D37583953D17DF8ECA131E9E0FB5218BDF67D8429</text>
</g>
<!-- 6 -->
<g id="node2" class="node">
<title>6</title>
<polygon fill="none" stroke="black" points="499.5,-185.5 499.5,-221.5 987.5,-221.5 987.5,-185.5 499.5,-185.5"/>
<text text-anchor="middle" x="743.5" y="-200.4" font-family="Arial" font-size="12.00">A3C9AB22B3F96F4DF4B66C2F7178B9F24DA30460AF15598141FC726DF9AD62CC</text>
</g>
<!-- 5&#45;&gt;6 -->
<g id="edge1" class="edge">
<title>5&#45;&gt;6</title>
<path fill="none" stroke="black" d="M936.66,-258.49C900.02,-248.25 853.17,-235.16 814.8,-224.43"/>
<polygon fill="black" stroke="black" points="815.3,-220.93 804.72,-221.61 813.41,-227.68 815.3,-220.93"/>
</g>
<!-- 9 -->
<g id="node3" class="node">
<title>9</title>
<polygon fill="none" stroke="black" points="1006,-185.5 1006,-221.5 1497,-221.5 1497,-185.5 1006,-185.5"/>
<text text-anchor="middle" x="1251.5" y="-200.4" font-family="Arial" font-size="12.00">95E3AFAB3D1B1B647C8995221EC07B0B12EE0C4303BB67BCA41C9D93BF703C73</text>
</g>
<!-- 5&#45;&gt;9 -->
<g id="edge2" class="edge">
<title>5&#45;&gt;9</title>
<path fill="none" stroke="black" d="M1058.34,-258.49C1094.98,-248.25 1141.83,-235.16 1180.2,-224.43"/>
<polygon fill="black" stroke="black" points="1181.59,-227.68 1190.28,-221.61 1179.7,-220.93 1181.59,-227.68"/>
</g>
<!-- 7 -->
<g id="node4" class="node">
<title>7</title>
<polygon fill="none" stroke="black" points="0,-112.5 0,-148.5 487,-148.5 487,-112.5 0,-112.5"/>
<text text-anchor="middle" x="243.5" y="-127.4" font-family="Arial" font-size="12.00">CDCED49A0041BB36FC6EB0F564B45225CEA2666825DAE0949242350C633C5857</text>
</g>
<!-- 6&#45;&gt;7 -->
<g id="edge3" class="edge">
<title>6&#45;&gt;7</title>
<path fill="none" stroke="black" d="M623.74,-185.49C548.39,-174.79 451.15,-160.99 373.87,-150.01"/>
<polygon fill="black" stroke="black" points="373.98,-146.49 363.58,-148.55 372.99,-153.42 373.98,-146.49"/>
</g>
<!-- 8 -->
<g id="node5" class="node">
<title>8</title>
<polygon fill="none" stroke="black" points="505.5,-112.5 505.5,-148.5 983.5,-148.5 983.5,-112.5 505.5,-112.5"/>
<text text-anchor="middle" x="744.5" y="-127.4" font-family="Arial" font-size="12.00">5BF039525076083973DFC8DBAB24BCE039DF99A9142F64397F77C1529123669B</text>
</g>
<!-- 6&#45;&gt;8 -->
<g id="edge4" class="edge">
<title>6&#45;&gt;8</title>
<path fill="none" stroke="black" d="M743.74,-185.31C743.86,-177.29 743.99,-167.55 744.12,-158.57"/>
<polygon fill="black" stroke="black" points="747.62,-158.58 744.26,-148.53 740.62,-158.48 747.62,-158.58"/>
</g>
<!-- 10 -->
<g id="node8" class="node">
<title>10</title>
<polygon fill="none" stroke="black" points="1003.5,-112.5 1003.5,-148.5 1497.5,-148.5 1497.5,-112.5 1003.5,-112.5"/>
<text text-anchor="middle" x="1250.5" y="-127.4" font-family="Arial" font-size="12.00">774AB759A5C98B1DCFC72E7DF69635D753C4F9E22A0AC8921FE204B3B1FC2CC6</text>
</g>
<!-- 9&#45;&gt;10 -->
<g id="edge7" class="edge">
<title>9&#45;&gt;10</title>
<path fill="none" stroke="black" d="M1251.26,-185.31C1251.14,-177.29 1251.01,-167.55 1250.88,-158.57"/>
<polygon fill="black" stroke="black" points="1254.38,-158.48 1250.74,-148.53 1247.38,-158.58 1254.38,-158.48"/>
</g>
<!-- 11 -->
<g id="node9" class="node">
<title>11</title>
<polygon fill="none" stroke="black" points="1515.5,-112.5 1515.5,-148.5 2003.5,-148.5 2003.5,-112.5 1515.5,-112.5"/>
<text text-anchor="middle" x="1759.5" y="-127.4" font-family="Arial" font-size="12.00">20A568617FE844C6EECB1B0CBB6F54E276BEA59FAF326831B98EFE00B9E136C5</text>
</g>
<!-- 9&#45;&gt;11 -->
<g id="edge8" class="edge">
<title>9&#45;&gt;11</title>
<path fill="none" stroke="black" d="M1373.18,-185.49C1449.88,-174.77 1548.93,-160.93 1627.53,-149.95"/>
<polygon fill="black" stroke="black" points="1628.08,-153.4 1637.49,-148.55 1627.11,-146.47 1628.08,-153.4"/>
</g>
<!-- 1 -->
<g id="node6" class="node">
<title>1</title>
<polygon fill="none" stroke="black" points="65,-0.5 65,-75.5 422,-75.5 422,-0.5 65,-0.5"/>
<polygon fill="none" stroke="black" points="76.5,-49 76.5,-68 204.5,-68 204.5,-49 76.5,-49"/>
<text text-anchor="start" x="97" y="-55.4" font-family="Arial" font-size="12.00">id_origin: &#160;&#160;&#160;&#160;&#160;&#160;&#160;&#160;&#160;1</text>
<polygon fill="none" stroke="black" points="206.5,-49 206.5,-68 411.5,-68 411.5,-49 206.5,-49"/>
<text text-anchor="start" x="225" y="-55.4" font-family="Arial" font-size="12.00">address_origin: Chimaltenango</text>
<polygon fill="none" stroke="black" points="76.5,-28 76.5,-47 204.5,-47 204.5,-28 76.5,-28"/>
<text text-anchor="start" x="83" y="-34.4" font-family="Arial" font-size="12.00">id_destination: &#160;&#160;&#160;&#160;&#160;&#160;&#160;&#160;&#160;2</text>
<polygon fill="none" stroke="black" points="206.5,-28 206.5,-47 411.5,-47 411.5,-28 206.5,-28"/>
<text text-anchor="start" x="209.5" y="-34.4" font-family="Arial" font-size="12.00">address_destination: Quetzaltenango</text>
<polygon fill="none" stroke="black" points="76.5,-7 76.5,-26 204.5,-26 204.5,-7 76.5,-7"/>
<text text-anchor="start" x="79.5" y="-13.4" font-family="Arial" font-size="12.00">cost_between: &#160;&#160;&#160;&#160;&#160;&#160;&#160;160</text>
<polygon fill="none" stroke="black" points="73,-4.5 73,-71.5 414,-71.5 414,-4.5 73,-4.5"/>
</g>
<!-- 7&#45;&gt;1 -->
<g id="edge5" class="edge">
<title>7&#45;&gt;1</title>
<path fill="none" stroke="black" d="M243.5,-112.48C243.5,-104.88 243.5,-95.52 243.5,-86.05"/>
<polygon fill="black" stroke="black" points="247,-85.82 243.5,-75.82 240,-85.82 247,-85.82"/>
</g>
<!-- 2 -->
<g id="node7" class="node">
<title>2</title>
<polygon fill="none" stroke="black" points="582,-0.5 582,-75.5 907,-75.5 907,-0.5 582,-0.5"/>
<polygon fill="none" stroke="black" points="593.5,-49 593.5,-68 717.5,-68 717.5,-49 593.5,-49"/>
<text text-anchor="start" x="612" y="-55.4" font-family="Arial" font-size="12.00">id_origin: &#160;&#160;&#160;&#160;&#160;&#160;&#160;&#160;&#160;2</text>
<polygon fill="none" stroke="black" points="719.5,-49 719.5,-68 896.5,-68 896.5,-49 719.5,-49"/>
<text text-anchor="start" x="722.5" y="-55.4" font-family="Arial" font-size="12.00">address_origin: Quetzaltenango</text>
<polygon fill="none" stroke="black" points="593.5,-28 593.5,-47 717.5,-47 717.5,-28 593.5,-28"/>
<text text-anchor="start" x="598" y="-34.4" font-family="Arial" font-size="12.00">id_destination: &#160;&#160;&#160;&#160;&#160;&#160;&#160;&#160;&#160;3</text>
<polygon fill="none" stroke="black" points="719.5,-28 719.5,-47 896.5,-47 896.5,-28 719.5,-28"/>
<text text-anchor="start" x="726" y="-34.4" font-family="Arial" font-size="12.00">address_destination: Escuintla</text>
<polygon fill="none" stroke="black" points="593.5,-7 593.5,-26 717.5,-26 717.5,-7 593.5,-7"/>
<text text-anchor="start" x="596.5" y="-13.4" font-family="Arial" font-size="12.00">cost_between: &#160;&#160;&#160;&#160;&#160;&#160;&#160;&#160;80</text>
<polygon fill="none" stroke="black" points="590,-4.5 590,-71.5 899,-71.5 899,-4.5 590,-4.5"/>
</g>
<!-- 8&#45;&gt;2 -->
<g id="edge6" class="edge">
<title>8&#45;&gt;2</title>
<path fill="none" stroke="black" d="M744.5,-112.48C744.5,-104.88 744.5,-95.52 744.5,-86.05"/>
<polygon fill="black" stroke="black" points="748,-85.82 744.5,-75.82 741,-85.82 748,-85.82"/>
</g>
<!-- 3 -->
<g id="node10" class="node">
<title>3</title>
<polygon fill="none" stroke="black" points="1100.5,-0.5 1100.5,-75.5 1400.5,-75.5 1400.5,-0.5 1100.5,-0.5"/>
<polygon fill="none" stroke="black" points="1111.5,-49 1111.5,-68 1235.5,-68 1235.5,-49 1111.5,-49"/>
<text text-anchor="start" x="1130" y="-55.4" font-family="Arial" font-size="12.00">id_origin: &#160;&#160;&#160;&#160;&#160;&#160;&#160;&#160;&#160;3</text>
<polygon fill="none" stroke="black" points="1237.5,-49 1237.5,-68 1389.5,-68 1389.5,-49 1237.5,-49"/>
<text text-anchor="start" x="1245.5" y="-55.4" font-family="Arial" font-size="12.00">address_origin: Escuintla</text>
<polygon fill="none" stroke="black" points="1111.5,-28 1111.5,-47 1235.5,-47 1235.5,-28 1111.5,-28"/>
<text text-anchor="start" x="1116" y="-34.4" font-family="Arial" font-size="12.00">id_destination: &#160;&#160;&#160;&#160;&#160;&#160;&#160;&#160;&#160;4</text>
<polygon fill="none" stroke="black" points="1237.5,-28 1237.5,-47 1389.5,-47 1389.5,-28 1237.5,-28"/>
<text text-anchor="start" x="1240.5" y="-34.4" font-family="Arial" font-size="12.00">address_destination: Peten</text>
<polygon fill="none" stroke="black" points="1111.5,-7 1111.5,-26 1235.5,-26 1235.5,-7 1111.5,-7"/>
<text text-anchor="start" x="1114.5" y="-13.4" font-family="Arial" font-size="12.00">cost_between: &#160;&#160;&#160;&#160;&#160;&#160;&#160;&#160;80</text>
<polygon fill="none" stroke="black" points="1108.5,-4.5 1108.5,-71.5 1392.5,-71.5 1392.5,-4.5 1108.5,-4.5"/>
</g>
<!-- 10&#45;&gt;3 -->
<g id="edge9" class="edge">
<title>10&#45;&gt;3</title>
<path fill="none" stroke="black" d="M1250.5,-112.48C1250.5,-104.88 1250.5,-95.52 1250.5,-86.05"/>
<polygon fill="black" stroke="black" points="1254,-85.82 1250.5,-75.82 1247,-85.82 1254,-85.82"/>
</g>
<!-- 4 -->
<g id="node11" class="node">
<title>4</title>
<polygon fill="none" stroke="black" points="1616.5,-0.5 1616.5,-75.5 1902.5,-75.5 1902.5,-0.5 1616.5,-0.5"/>
<polygon fill="none" stroke="black" points="1627.5,-49 1627.5,-68 1749.5,-68 1749.5,-49 1627.5,-49"/>
<text text-anchor="start" x="1644.5" y="-55.4" font-family="Arial" font-size="12.00">id_origin: &#160;&#160;&#160;&#160;&#160;&#160;&#160;&#160;&#45;1</text>
<polygon fill="none" stroke="black" points="1751.5,-49 1751.5,-68 1891.5,-68 1891.5,-49 1751.5,-49"/>
<text text-anchor="start" x="1768.5" y="-55.4" font-family="Arial" font-size="12.00">address_origin: null</text>
<polygon fill="none" stroke="black" points="1627.5,-28 1627.5,-47 1749.5,-47 1749.5,-28 1627.5,-28"/>
<text text-anchor="start" x="1630.5" y="-34.4" font-family="Arial" font-size="12.00">id_destination: &#160;&#160;&#160;&#160;&#160;&#160;&#160;&#160;&#45;1</text>
<polygon fill="none" stroke="black" points="1751.5,-28 1751.5,-47 1891.5,-47 1891.5,-28 1751.5,-28"/>
<text text-anchor="start" x="1754.5" y="-34.4" font-family="Arial" font-size="12.00">address_destination: null</text>
<polygon fill="none" stroke="black" points="1627.5,-7 1627.5,-26 1749.5,-26 1749.5,-7 1627.5,-7"/>
<text text-anchor="start" x="1631" y="-13.4" font-family="Arial" font-size="12.00">cost_between: &#160;&#160;&#160;&#160;&#160;&#160;&#160;&#160;&#45;1</text>
<polygon fill="none" stroke="black" points="1624.5,-4.5 1624.5,-71.5 1894.5,-71.5 1894.5,-4.5 1624.5,-4.5"/>
</g>
<!-- 11&#45;&gt;4 -->
<g id="edge10" class="edge">
<title>11&#45;&gt;4</title>
<path fill="none" stroke="black" d="M1759.5,-112.48C1759.5,-104.88 1759.5,-95.52 1759.5,-86.05"/>
<polygon fill="black" stroke="black" points="1763,-85.82 1759.5,-75.82 1756,-85.82 1763,-85.82"/>
</g>
</g>
</svg>
