<?xml version="1.0" encoding="UTF-8" standalone="no"?>
<!DOCTYPE svg PUBLIC "-//W3C//DTD SVG 1.1//EN"
 "http://www.w3.org/Graphics/SVG/1.1/DTD/svg11.dtd">
<!-- Generated by graphviz version 2.43.0 (0)
 -->
<!-- Title: Merkle_tree Pages: 1 -->
<svg width="2022pt" height="303pt"
 viewBox="0.00 0.00 2022.00 303.00" xmlns="http://www.w3.org/2000/svg" xmlns:xlink="http://www.w3.org/1999/xlink">
<g id="graph0" class="graph" transform="scale(1 1) rotate(0) translate(4 299)">
<title>Merkle_tree</title>
<polygon fill="white" stroke="transparent" points="-4,4 -4,-299 2018,-299 2018,4 -4,4"/>
<!-- 16 -->
<g id="node1" class="node">
<title>16</title>
<polygon fill="none" stroke="black" points="761,-258.5 761,-294.5 1251,-294.5 1251,-258.5 761,-258.5"/>
<text text-anchor="middle" x="1006" y="-273.4" font-family="Arial" font-size="12.00">A40842F69CDE33FF758D0EC8BE1AB9A35207B71EA1BABD8CE501185431F4E6B5</text>
</g>
<!-- 17 -->
<g id="node2" class="node">
<title>17</title>
<polygon fill="none" stroke="black" points="507,-185.5 507,-221.5 997,-221.5 997,-185.5 507,-185.5"/>
<text text-anchor="middle" x="752" y="-200.4" font-family="Arial" font-size="12.00">6EE4CBB160BA41CF15B8E2F2EAA2A50880F8EFE6113A68AA50E4C3E79AE87F19</text>
</g>
<!-- 16&#45;&gt;17 -->
<g id="edge1" class="edge">
<title>16&#45;&gt;17</title>
<path fill="none" stroke="black" d="M945.16,-258.49C908.52,-248.25 861.67,-235.16 823.3,-224.43"/>
<polygon fill="black" stroke="black" points="823.8,-220.93 813.22,-221.61 821.91,-227.68 823.8,-220.93"/>
</g>
<!-- 20 -->
<g id="node3" class="node">
<title>20</title>
<polygon fill="none" stroke="black" points="1017,-185.5 1017,-221.5 1505,-221.5 1505,-185.5 1017,-185.5"/>
<text text-anchor="middle" x="1261" y="-200.4" font-family="Arial" font-size="12.00">A88185009119800BEAC544D6F830C6B47B26A9169E41DC34B698F99ECACE17DC</text>
</g>
<!-- 16&#45;&gt;20 -->
<g id="edge2" class="edge">
<title>16&#45;&gt;20</title>
<path fill="none" stroke="black" d="M1067.08,-258.49C1103.87,-248.25 1150.89,-235.16 1189.42,-224.43"/>
<polygon fill="black" stroke="black" points="1190.84,-227.67 1199.54,-221.61 1188.96,-220.92 1190.84,-227.67"/>
</g>
<!-- 18 -->
<g id="node4" class="node">
<title>18</title>
<polygon fill="none" stroke="black" points="0,-112.5 0,-148.5 490,-148.5 490,-112.5 0,-112.5"/>
<text text-anchor="middle" x="245" y="-127.4" font-family="Arial" font-size="12.00">A3EADD31E6768AB02B94ADD54ADA38A34777AF245AE34A358E970083B3958AD4</text>
</g>
<!-- 17&#45;&gt;18 -->
<g id="edge3" class="edge">
<title>17&#45;&gt;18</title>
<path fill="none" stroke="black" d="M630.56,-185.49C554.01,-174.77 455.16,-160.93 376.71,-149.95"/>
<polygon fill="black" stroke="black" points="377.15,-146.47 366.77,-148.55 376.18,-153.41 377.15,-146.47"/>
</g>
<!-- 19 -->
<g id="node5" class="node">
<title>19</title>
<polygon fill="none" stroke="black" points="508,-112.5 508,-148.5 996,-148.5 996,-112.5 508,-112.5"/>
<text text-anchor="middle" x="752" y="-127.4" font-family="Arial" font-size="12.00">CDD3042DF77D37D7A606A34C1AE753B8FEF7F3E57B42E85303F7D4E77326E5E7</text>
</g>
<!-- 17&#45;&gt;19 -->
<g id="edge4" class="edge">
<title>17&#45;&gt;19</title>
<path fill="none" stroke="black" d="M752,-185.31C752,-177.29 752,-167.55 752,-158.57"/>
<polygon fill="black" stroke="black" points="755.5,-158.53 752,-148.53 748.5,-158.53 755.5,-158.53"/>
</g>
<!-- 21 -->
<g id="node8" class="node">
<title>21</title>
<polygon fill="none" stroke="black" points="1014.5,-112.5 1014.5,-148.5 1507.5,-148.5 1507.5,-112.5 1014.5,-112.5"/>
<text text-anchor="middle" x="1261" y="-127.4" font-family="Arial" font-size="12.00">C15B9BC81B08E5CFF7339DC31DD4A1187300AB4D92C5DF97454C600C16A9D0B3</text>
</g>
<!-- 20&#45;&gt;21 -->
<g id="edge7" class="edge">
<title>20&#45;&gt;21</title>
<path fill="none" stroke="black" d="M1261,-185.31C1261,-177.29 1261,-167.55 1261,-158.57"/>
<polygon fill="black" stroke="black" points="1264.5,-158.53 1261,-148.53 1257.5,-158.53 1264.5,-158.53"/>
</g>
<!-- 22 -->
<g id="node9" class="node">
<title>22</title>
<polygon fill="none" stroke="black" points="1526,-112.5 1526,-148.5 2014,-148.5 2014,-112.5 1526,-112.5"/>
<text text-anchor="middle" x="1770" y="-127.4" font-family="Arial" font-size="12.00">20A568617FE844C6EECB1B0CBB6F54E276BEA59FAF326831B98EFE00B9E136C5</text>
</g>
<!-- 20&#45;&gt;22 -->
<g id="edge8" class="edge">
<title>20&#45;&gt;22</title>
<path fill="none" stroke="black" d="M1382.92,-185.49C1459.78,-174.77 1559.01,-160.93 1637.77,-149.95"/>
<polygon fill="black" stroke="black" points="1638.33,-153.4 1647.75,-148.55 1637.37,-146.47 1638.33,-153.4"/>
</g>
<!-- 12 -->
<g id="node6" class="node">
<title>12</title>
<polygon fill="none" stroke="black" points="50,-0.5 50,-75.5 440,-75.5 440,-0.5 50,-0.5"/>
<polygon fill="none" stroke="black" points="61,-49 61,-68 189,-68 189,-49 61,-49"/>
<text text-anchor="start" x="81.5" y="-55.4" font-family="Arial" font-size="12.00">id_origin: &#160;&#160;&#160;&#160;&#160;&#160;&#160;&#160;&#160;0</text>
<polygon fill="none" stroke="black" points="191,-49 191,-68 429,-68 429,-49 191,-49"/>
<text text-anchor="start" x="198.5" y="-55.4" font-family="Arial" font-size="12.00">address_origin: San Pedro Sacatepequez</text>
<polygon fill="none" stroke="black" points="61,-28 61,-47 189,-47 189,-28 61,-28"/>
<text text-anchor="start" x="67.5" y="-34.4" font-family="Arial" font-size="12.00">id_destination: &#160;&#160;&#160;&#160;&#160;&#160;&#160;&#160;&#160;1</text>
<polygon fill="none" stroke="black" points="191,-28 191,-47 429,-47 429,-28 191,-28"/>
<text text-anchor="start" x="194" y="-34.4" font-family="Arial" font-size="12.00">address_destination: Ciudad de Guatemala</text>
<polygon fill="none" stroke="black" points="61,-7 61,-26 189,-26 189,-7 61,-7"/>
<text text-anchor="start" x="64" y="-13.4" font-family="Arial" font-size="12.00">cost_between: &#160;&#160;&#160;&#160;&#160;&#160;&#160;800</text>
<polygon fill="none" stroke="black" points="58,-4.5 58,-71.5 432,-71.5 432,-4.5 58,-4.5"/>
</g>
<!-- 18&#45;&gt;12 -->
<g id="edge5" class="edge">
<title>18&#45;&gt;12</title>
<path fill="none" stroke="black" d="M245,-112.48C245,-104.88 245,-95.52 245,-86.05"/>
<polygon fill="black" stroke="black" points="248.5,-85.82 245,-75.82 241.5,-85.82 248.5,-85.82"/>
</g>
<!-- 13 -->
<g id="node7" class="node">
<title>13</title>
<polygon fill="none" stroke="black" points="569.5,-0.5 569.5,-75.5 934.5,-75.5 934.5,-0.5 569.5,-0.5"/>
<polygon fill="none" stroke="black" points="581,-49 581,-68 713,-68 713,-49 581,-49"/>
<text text-anchor="start" x="603.5" y="-55.4" font-family="Arial" font-size="12.00">id_origin: &#160;&#160;&#160;&#160;&#160;&#160;&#160;&#160;&#160;1</text>
<polygon fill="none" stroke="black" points="715,-49 715,-68 924,-68 924,-49 715,-49"/>
<text text-anchor="start" x="718" y="-55.4" font-family="Arial" font-size="12.00">address_origin: Ciudad de Guatemala</text>
<polygon fill="none" stroke="black" points="581,-28 581,-47 713,-47 713,-28 581,-28"/>
<text text-anchor="start" x="589.5" y="-34.4" font-family="Arial" font-size="12.00">id_destination: &#160;&#160;&#160;&#160;&#160;&#160;&#160;&#160;&#160;2</text>
<polygon fill="none" stroke="black" points="715,-28 715,-47 924,-47 924,-28 715,-28"/>
<text text-anchor="start" x="721.5" y="-34.4" font-family="Arial" font-size="12.00">address_destination: Chimaltenango</text>
<polygon fill="none" stroke="black" points="581,-7 581,-26 713,-26 713,-7 581,-7"/>
<text text-anchor="start" x="584" y="-13.4" font-family="Arial" font-size="12.00">cost_between: &#160;&#160;&#160;&#160;&#160;&#160;1200</text>
<polygon fill="none" stroke="black" points="577.5,-4.5 577.5,-71.5 926.5,-71.5 926.5,-4.5 577.5,-4.5"/>
</g>
<!-- 19&#45;&gt;13 -->
<g id="edge6" class="edge">
<title>19&#45;&gt;13</title>
<path fill="none" stroke="black" d="M752,-112.48C752,-104.88 752,-95.52 752,-86.05"/>
<polygon fill="black" stroke="black" points="755.5,-85.82 752,-75.82 748.5,-85.82 755.5,-85.82"/>
</g>
<!-- 14 -->
<g id="node10" class="node">
<title>14</title>
<polygon fill="none" stroke="black" points="1054,-0.5 1054,-75.5 1468,-75.5 1468,-0.5 1054,-0.5"/>
<polygon fill="none" stroke="black" points="1065,-49 1065,-68 1197,-68 1197,-49 1065,-49"/>
<text text-anchor="start" x="1087.5" y="-55.4" font-family="Arial" font-size="12.00">id_origin: &#160;&#160;&#160;&#160;&#160;&#160;&#160;&#160;&#160;2</text>
<polygon fill="none" stroke="black" points="1199,-49 1199,-68 1457,-68 1457,-49 1199,-49"/>
<text text-anchor="start" x="1244" y="-55.4" font-family="Arial" font-size="12.00">address_origin: Chimaltenango</text>
<polygon fill="none" stroke="black" points="1065,-28 1065,-47 1197,-47 1197,-28 1065,-28"/>
<text text-anchor="start" x="1073.5" y="-34.4" font-family="Arial" font-size="12.00">id_destination: &#160;&#160;&#160;&#160;&#160;&#160;&#160;&#160;&#160;3</text>
<polygon fill="none" stroke="black" points="1199,-28 1199,-47 1457,-47 1457,-28 1199,-28"/>
<text text-anchor="start" x="1202" y="-34.4" font-family="Arial" font-size="12.00">address_destination: San Pedro Sacatepequez</text>
<polygon fill="none" stroke="black" points="1065,-7 1065,-26 1197,-26 1197,-7 1065,-7"/>
<text text-anchor="start" x="1068" y="-13.4" font-family="Arial" font-size="12.00">cost_between: &#160;&#160;&#160;&#160;&#160;&#160;1600</text>
<polygon fill="none" stroke="black" points="1062,-4.5 1062,-71.5 1460,-71.5 1460,-4.5 1062,-4.5"/>
</g>
<!-- 21&#45;&gt;14 -->
<g id="edge9" class="edge">
<title>21&#45;&gt;14</title>
<path fill="none" stroke="black" d="M1261,-112.48C1261,-104.88 1261,-95.52 1261,-86.05"/>
<polygon fill="black" stroke="black" points="1264.5,-85.82 1261,-75.82 1257.5,-85.82 1264.5,-85.82"/>
</g>
<!-- 15 -->
<g id="node11" class="node">
<title>15</title>
<polygon fill="none" stroke="black" points="1627,-0.5 1627,-75.5 1913,-75.5 1913,-0.5 1627,-0.5"/>
<polygon fill="none" stroke="black" points="1638,-49 1638,-68 1760,-68 1760,-49 1638,-49"/>
<text text-anchor="start" x="1655" y="-55.4" font-family="Arial" font-size="12.00">id_origin: &#160;&#160;&#160;&#160;&#160;&#160;&#160;&#160;&#45;1</text>
<polygon fill="none" stroke="black" points="1762,-49 1762,-68 1902,-68 1902,-49 1762,-49"/>
<text text-anchor="start" x="1779" y="-55.4" font-family="Arial" font-size="12.00">address_origin: null</text>
<polygon fill="none" stroke="black" points="1638,-28 1638,-47 1760,-47 1760,-28 1638,-28"/>
<text text-anchor="start" x="1641" y="-34.4" font-family="Arial" font-size="12.00">id_destination: &#160;&#160;&#160;&#160;&#160;&#160;&#160;&#160;&#45;1</text>
<polygon fill="none" stroke="black" points="1762,-28 1762,-47 1902,-47 1902,-28 1762,-28"/>
<text text-anchor="start" x="1765" y="-34.4" font-family="Arial" font-size="12.00">address_destination: null</text>
<polygon fill="none" stroke="black" points="1638,-7 1638,-26 1760,-26 1760,-7 1638,-7"/>
<text text-anchor="start" x="1641.5" y="-13.4" font-family="Arial" font-size="12.00">cost_between: &#160;&#160;&#160;&#160;&#160;&#160;&#160;&#160;&#45;1</text>
<polygon fill="none" stroke="black" points="1635,-4.5 1635,-71.5 1905,-71.5 1905,-4.5 1635,-4.5"/>
</g>
<!-- 22&#45;&gt;15 -->
<g id="edge10" class="edge">
<title>22&#45;&gt;15</title>
<path fill="none" stroke="black" d="M1770,-112.48C1770,-104.88 1770,-95.52 1770,-86.05"/>
<polygon fill="black" stroke="black" points="1773.5,-85.82 1770,-75.82 1766.5,-85.82 1773.5,-85.82"/>
</g>
</g>
</svg>
