<?xml version="1.0" encoding="UTF-8" standalone="no"?>
<!DOCTYPE svg PUBLIC "-//W3C//DTD SVG 1.1//EN"
 "http://www.w3.org/Graphics/SVG/1.1/DTD/svg11.dtd">
<!-- Generated by graphviz version 2.43.0 (0)
 -->
<!-- Title: Merkle_tree Pages: 1 -->
<svg width="2010pt" height="303pt"
 viewBox="0.00 0.00 2009.50 303.00" xmlns="http://www.w3.org/2000/svg" xmlns:xlink="http://www.w3.org/1999/xlink">
<g id="graph0" class="graph" transform="scale(1 1) rotate(0) translate(4 299)">
<title>Merkle_tree</title>
<polygon fill="white" stroke="transparent" points="-4,4 -4,-299 2005.5,-299 2005.5,4 -4,4"/>
<!-- 5 -->
<g id="node1" class="node">
<title>5</title>
<polygon fill="none" stroke="black" points="759,-258.5 759,-294.5 1238,-294.5 1238,-258.5 759,-258.5"/>
<text text-anchor="middle" x="998.5" y="-273.4" font-family="Arial" font-size="12.00">AF9D155FE433F539B13FB843B199704CC283054F1E60337D9F55CD59015A6FB2</text>
</g>
<!-- 6 -->
<g id="node2" class="node">
<title>6</title>
<polygon fill="none" stroke="black" points="506,-185.5 506,-221.5 983,-221.5 983,-185.5 506,-185.5"/>
<text text-anchor="middle" x="744.5" y="-200.4" font-family="Arial" font-size="12.00">56B2E1F3688F1FD656BA9E6972189F70801ED08A65FD3D91300949F1B20365DF</text>
</g>
<!-- 5&#45;&gt;6 -->
<g id="edge1" class="edge">
<title>5&#45;&gt;6</title>
<path fill="none" stroke="black" d="M937.66,-258.49C901.02,-248.25 854.17,-235.16 815.8,-224.43"/>
<polygon fill="black" stroke="black" points="816.3,-220.93 805.72,-221.61 814.41,-227.68 816.3,-220.93"/>
</g>
<!-- 9 -->
<g id="node3" class="node">
<title>9</title>
<polygon fill="none" stroke="black" points="1005,-185.5 1005,-221.5 1500,-221.5 1500,-185.5 1005,-185.5"/>
<text text-anchor="middle" x="1252.5" y="-200.4" font-family="Arial" font-size="12.00">CCBEA7C7E64805395552A06A3877AB1500EDA6C0EB21BCFBD73F47E53BCE364B</text>
</g>
<!-- 5&#45;&gt;9 -->
<g id="edge2" class="edge">
<title>5&#45;&gt;9</title>
<path fill="none" stroke="black" d="M1059.34,-258.49C1095.98,-248.25 1142.83,-235.16 1181.2,-224.43"/>
<polygon fill="black" stroke="black" points="1182.59,-227.68 1191.28,-221.61 1180.7,-220.93 1182.59,-227.68"/>
</g>
<!-- 7 -->
<g id="node4" class="node">
<title>7</title>
<polygon fill="none" stroke="black" points="0,-112.5 0,-148.5 479,-148.5 479,-112.5 0,-112.5"/>
<text text-anchor="middle" x="239.5" y="-127.4" font-family="Arial" font-size="12.00">100A1DFBE3324B732C44EF382799BB9E406FC983184685B52F11B31EFB66450C</text>
</g>
<!-- 6&#45;&gt;7 -->
<g id="edge3" class="edge">
<title>6&#45;&gt;7</title>
<path fill="none" stroke="black" d="M623.54,-185.49C547.29,-174.77 448.83,-160.93 370.7,-149.95"/>
<polygon fill="black" stroke="black" points="371.17,-146.48 360.79,-148.55 370.2,-153.41 371.17,-146.48"/>
</g>
<!-- 8 -->
<g id="node5" class="node">
<title>8</title>
<polygon fill="none" stroke="black" points="497.5,-112.5 497.5,-148.5 991.5,-148.5 991.5,-112.5 497.5,-112.5"/>
<text text-anchor="middle" x="744.5" y="-127.4" font-family="Arial" font-size="12.00">C487BE38EBC031D3AB48F3653F1DB0D36C5B07576597EE59FB5EE0CF32DD123D</text>
</g>
<!-- 6&#45;&gt;8 -->
<g id="edge4" class="edge">
<title>6&#45;&gt;8</title>
<path fill="none" stroke="black" d="M744.5,-185.31C744.5,-177.29 744.5,-167.55 744.5,-158.57"/>
<polygon fill="black" stroke="black" points="748,-158.53 744.5,-148.53 741,-158.53 748,-158.53"/>
</g>
<!-- 10 -->
<g id="node8" class="node">
<title>10</title>
<polygon fill="none" stroke="black" points="1010,-112.5 1010,-148.5 1495,-148.5 1495,-112.5 1010,-112.5"/>
<text text-anchor="middle" x="1252.5" y="-127.4" font-family="Arial" font-size="12.00">1622D9623713F40731C4525ED59D4B6DC5D24E6A925258E0D206D36EBE052D7F</text>
</g>
<!-- 9&#45;&gt;10 -->
<g id="edge7" class="edge">
<title>9&#45;&gt;10</title>
<path fill="none" stroke="black" d="M1252.5,-185.31C1252.5,-177.29 1252.5,-167.55 1252.5,-158.57"/>
<polygon fill="black" stroke="black" points="1256,-158.53 1252.5,-148.53 1249,-158.53 1256,-158.53"/>
</g>
<!-- 11 -->
<g id="node9" class="node">
<title>11</title>
<polygon fill="none" stroke="black" points="1513.5,-112.5 1513.5,-148.5 2001.5,-148.5 2001.5,-112.5 1513.5,-112.5"/>
<text text-anchor="middle" x="1757.5" y="-127.4" font-family="Arial" font-size="12.00">20A568617FE844C6EECB1B0CBB6F54E276BEA59FAF326831B98EFE00B9E136C5</text>
</g>
<!-- 9&#45;&gt;11 -->
<g id="edge8" class="edge">
<title>9&#45;&gt;11</title>
<path fill="none" stroke="black" d="M1373.46,-185.49C1449.71,-174.77 1548.17,-160.93 1626.3,-149.95"/>
<polygon fill="black" stroke="black" points="1626.8,-153.41 1636.21,-148.55 1625.83,-146.48 1626.8,-153.41"/>
</g>
<!-- 1 -->
<g id="node6" class="node">
<title>1</title>
<polygon fill="none" stroke="black" points="61,-0.5 61,-75.5 418,-75.5 418,-0.5 61,-0.5"/>
<polygon fill="none" stroke="black" points="72.5,-49 72.5,-68 200.5,-68 200.5,-49 72.5,-49"/>
<text text-anchor="start" x="93" y="-55.4" font-family="Arial" font-size="12.00">id_origin: &#160;&#160;&#160;&#160;&#160;&#160;&#160;&#160;&#160;1</text>
<polygon fill="none" stroke="black" points="202.5,-49 202.5,-68 407.5,-68 407.5,-49 202.5,-49"/>
<text text-anchor="start" x="221" y="-55.4" font-family="Arial" font-size="12.00">address_origin: Chimaltenango</text>
<polygon fill="none" stroke="black" points="72.5,-28 72.5,-47 200.5,-47 200.5,-28 72.5,-28"/>
<text text-anchor="start" x="79" y="-34.4" font-family="Arial" font-size="12.00">id_destination: &#160;&#160;&#160;&#160;&#160;&#160;&#160;&#160;&#160;2</text>
<polygon fill="none" stroke="black" points="202.5,-28 202.5,-47 407.5,-47 407.5,-28 202.5,-28"/>
<text text-anchor="start" x="205.5" y="-34.4" font-family="Arial" font-size="12.00">address_destination: Quetzaltenango</text>
<polygon fill="none" stroke="black" points="72.5,-7 72.5,-26 200.5,-26 200.5,-7 72.5,-7"/>
<text text-anchor="start" x="75.5" y="-13.4" font-family="Arial" font-size="12.00">cost_between: &#160;&#160;&#160;&#160;&#160;&#160;&#160;240</text>
<polygon fill="none" stroke="black" points="69,-4.5 69,-71.5 410,-71.5 410,-4.5 69,-4.5"/>
</g>
<!-- 7&#45;&gt;1 -->
<g id="edge5" class="edge">
<title>7&#45;&gt;1</title>
<path fill="none" stroke="black" d="M239.5,-112.48C239.5,-104.88 239.5,-95.52 239.5,-86.05"/>
<polygon fill="black" stroke="black" points="243,-85.82 239.5,-75.82 236,-85.82 243,-85.82"/>
</g>
<!-- 2 -->
<g id="node7" class="node">
<title>2</title>
<polygon fill="none" stroke="black" points="580,-0.5 580,-75.5 909,-75.5 909,-0.5 580,-0.5"/>
<polygon fill="none" stroke="black" points="591.5,-49 591.5,-68 719.5,-68 719.5,-49 591.5,-49"/>
<text text-anchor="start" x="612" y="-55.4" font-family="Arial" font-size="12.00">id_origin: &#160;&#160;&#160;&#160;&#160;&#160;&#160;&#160;&#160;2</text>
<polygon fill="none" stroke="black" points="721.5,-49 721.5,-68 898.5,-68 898.5,-49 721.5,-49"/>
<text text-anchor="start" x="724.5" y="-55.4" font-family="Arial" font-size="12.00">address_origin: Quetzaltenango</text>
<polygon fill="none" stroke="black" points="591.5,-28 591.5,-47 719.5,-47 719.5,-28 591.5,-28"/>
<text text-anchor="start" x="598" y="-34.4" font-family="Arial" font-size="12.00">id_destination: &#160;&#160;&#160;&#160;&#160;&#160;&#160;&#160;&#160;3</text>
<polygon fill="none" stroke="black" points="721.5,-28 721.5,-47 898.5,-47 898.5,-28 721.5,-28"/>
<text text-anchor="start" x="728" y="-34.4" font-family="Arial" font-size="12.00">address_destination: Escuintla</text>
<polygon fill="none" stroke="black" points="591.5,-7 591.5,-26 719.5,-26 719.5,-7 591.5,-7"/>
<text text-anchor="start" x="594.5" y="-13.4" font-family="Arial" font-size="12.00">cost_between: &#160;&#160;&#160;&#160;&#160;&#160;&#160;320</text>
<polygon fill="none" stroke="black" points="588,-4.5 588,-71.5 901,-71.5 901,-4.5 588,-4.5"/>
</g>
<!-- 8&#45;&gt;2 -->
<g id="edge6" class="edge">
<title>8&#45;&gt;2</title>
<path fill="none" stroke="black" d="M744.5,-112.48C744.5,-104.88 744.5,-95.52 744.5,-86.05"/>
<polygon fill="black" stroke="black" points="748,-85.82 744.5,-75.82 741,-85.82 748,-85.82"/>
</g>
<!-- 3 -->
<g id="node10" class="node">
<title>3</title>
<polygon fill="none" stroke="black" points="1100.5,-0.5 1100.5,-75.5 1404.5,-75.5 1404.5,-0.5 1100.5,-0.5"/>
<polygon fill="none" stroke="black" points="1111.5,-49 1111.5,-68 1239.5,-68 1239.5,-49 1111.5,-49"/>
<text text-anchor="start" x="1132" y="-55.4" font-family="Arial" font-size="12.00">id_origin: &#160;&#160;&#160;&#160;&#160;&#160;&#160;&#160;&#160;3</text>
<polygon fill="none" stroke="black" points="1241.5,-49 1241.5,-68 1393.5,-68 1393.5,-49 1241.5,-49"/>
<text text-anchor="start" x="1249.5" y="-55.4" font-family="Arial" font-size="12.00">address_origin: Escuintla</text>
<polygon fill="none" stroke="black" points="1111.5,-28 1111.5,-47 1239.5,-47 1239.5,-28 1111.5,-28"/>
<text text-anchor="start" x="1118" y="-34.4" font-family="Arial" font-size="12.00">id_destination: &#160;&#160;&#160;&#160;&#160;&#160;&#160;&#160;&#160;4</text>
<polygon fill="none" stroke="black" points="1241.5,-28 1241.5,-47 1393.5,-47 1393.5,-28 1241.5,-28"/>
<text text-anchor="start" x="1244.5" y="-34.4" font-family="Arial" font-size="12.00">address_destination: Peten</text>
<polygon fill="none" stroke="black" points="1111.5,-7 1111.5,-26 1239.5,-26 1239.5,-7 1111.5,-7"/>
<text text-anchor="start" x="1114.5" y="-13.4" font-family="Arial" font-size="12.00">cost_between: &#160;&#160;&#160;&#160;&#160;&#160;&#160;160</text>
<polygon fill="none" stroke="black" points="1108.5,-4.5 1108.5,-71.5 1396.5,-71.5 1396.5,-4.5 1108.5,-4.5"/>
</g>
<!-- 10&#45;&gt;3 -->
<g id="edge9" class="edge">
<title>10&#45;&gt;3</title>
<path fill="none" stroke="black" d="M1252.5,-112.48C1252.5,-104.88 1252.5,-95.52 1252.5,-86.05"/>
<polygon fill="black" stroke="black" points="1256,-85.82 1252.5,-75.82 1249,-85.82 1256,-85.82"/>
</g>
<!-- 4 -->
<g id="node11" class="node">
<title>4</title>
<polygon fill="none" stroke="black" points="1614.5,-0.5 1614.5,-75.5 1900.5,-75.5 1900.5,-0.5 1614.5,-0.5"/>
<polygon fill="none" stroke="black" points="1625.5,-49 1625.5,-68 1747.5,-68 1747.5,-49 1625.5,-49"/>
<text text-anchor="start" x="1642.5" y="-55.4" font-family="Arial" font-size="12.00">id_origin: &#160;&#160;&#160;&#160;&#160;&#160;&#160;&#160;&#45;1</text>
<polygon fill="none" stroke="black" points="1749.5,-49 1749.5,-68 1889.5,-68 1889.5,-49 1749.5,-49"/>
<text text-anchor="start" x="1766.5" y="-55.4" font-family="Arial" font-size="12.00">address_origin: null</text>
<polygon fill="none" stroke="black" points="1625.5,-28 1625.5,-47 1747.5,-47 1747.5,-28 1625.5,-28"/>
<text text-anchor="start" x="1628.5" y="-34.4" font-family="Arial" font-size="12.00">id_destination: &#160;&#160;&#160;&#160;&#160;&#160;&#160;&#160;&#45;1</text>
<polygon fill="none" stroke="black" points="1749.5,-28 1749.5,-47 1889.5,-47 1889.5,-28 1749.5,-28"/>
<text text-anchor="start" x="1752.5" y="-34.4" font-family="Arial" font-size="12.00">address_destination: null</text>
<polygon fill="none" stroke="black" points="1625.5,-7 1625.5,-26 1747.5,-26 1747.5,-7 1625.5,-7"/>
<text text-anchor="start" x="1629" y="-13.4" font-family="Arial" font-size="12.00">cost_between: &#160;&#160;&#160;&#160;&#160;&#160;&#160;&#160;&#45;1</text>
<polygon fill="none" stroke="black" points="1622.5,-4.5 1622.5,-71.5 1892.5,-71.5 1892.5,-4.5 1622.5,-4.5"/>
</g>
<!-- 11&#45;&gt;4 -->
<g id="edge10" class="edge">
<title>11&#45;&gt;4</title>
<path fill="none" stroke="black" d="M1757.5,-112.48C1757.5,-104.88 1757.5,-95.52 1757.5,-86.05"/>
<polygon fill="black" stroke="black" points="1761,-85.82 1757.5,-75.82 1754,-85.82 1761,-85.82"/>
</g>
</g>
</svg>
