<?xml version="1.0" encoding="UTF-8" standalone="no"?>
<!DOCTYPE svg PUBLIC "-//W3C//DTD SVG 1.1//EN"
 "http://www.w3.org/Graphics/SVG/1.1/DTD/svg11.dtd">
<!-- Generated by graphviz version 2.43.0 (0)
 -->
<!-- Title: Merkle_tree Pages: 1 -->
<svg width="2020pt" height="303pt"
 viewBox="0.00 0.00 2019.50 303.00" xmlns="http://www.w3.org/2000/svg" xmlns:xlink="http://www.w3.org/1999/xlink">
<g id="graph0" class="graph" transform="scale(1 1) rotate(0) translate(4 299)">
<title>Merkle_tree</title>
<polygon fill="white" stroke="transparent" points="-4,4 -4,-299 2015.5,-299 2015.5,4 -4,4"/>
<!-- 5 -->
<g id="node1" class="node">
<title>5</title>
<polygon fill="none" stroke="black" points="758,-258.5 758,-294.5 1249,-294.5 1249,-258.5 758,-258.5"/>
<text text-anchor="middle" x="1003.5" y="-273.4" font-family="Arial" font-size="12.00">F28CD4867CEEF0E957C6D5B20F7F0EF21A58E82D12826FD2370CD504BB2A586D</text>
</g>
<!-- 6 -->
<g id="node2" class="node">
<title>6</title>
<polygon fill="none" stroke="black" points="509,-185.5 509,-221.5 990,-221.5 990,-185.5 509,-185.5"/>
<text text-anchor="middle" x="749.5" y="-200.4" font-family="Arial" font-size="12.00">8D53E946341FA05A7DF3B9EC7E112F84826E9D76086C9222C51287DF89D8C926</text>
</g>
<!-- 5&#45;&gt;6 -->
<g id="edge1" class="edge">
<title>5&#45;&gt;6</title>
<path fill="none" stroke="black" d="M942.66,-258.49C906.02,-248.25 859.17,-235.16 820.8,-224.43"/>
<polygon fill="black" stroke="black" points="821.3,-220.93 810.72,-221.61 819.41,-227.68 821.3,-220.93"/>
</g>
<!-- 9 -->
<g id="node3" class="node">
<title>9</title>
<polygon fill="none" stroke="black" points="1016,-185.5 1016,-221.5 1501,-221.5 1501,-185.5 1016,-185.5"/>
<text text-anchor="middle" x="1258.5" y="-200.4" font-family="Arial" font-size="12.00">0D07E4DF49DC964031436B47D29F5551A4A7D0A847D321F305DF40DDAF5A3963</text>
</g>
<!-- 5&#45;&gt;9 -->
<g id="edge2" class="edge">
<title>5&#45;&gt;9</title>
<path fill="none" stroke="black" d="M1064.58,-258.49C1101.37,-248.25 1148.39,-235.16 1186.92,-224.43"/>
<polygon fill="black" stroke="black" points="1188.34,-227.67 1197.04,-221.61 1186.46,-220.92 1188.34,-227.67"/>
</g>
<!-- 7 -->
<g id="node4" class="node">
<title>7</title>
<polygon fill="none" stroke="black" points="0,-112.5 0,-148.5 487,-148.5 487,-112.5 0,-112.5"/>
<text text-anchor="middle" x="243.5" y="-127.4" font-family="Arial" font-size="12.00">CDCED49A0041BB36FC6EB0F564B45225CEA2666825DAE0949242350C633C5857</text>
</g>
<!-- 6&#45;&gt;7 -->
<g id="edge3" class="edge">
<title>6&#45;&gt;7</title>
<path fill="none" stroke="black" d="M628.3,-185.49C551.9,-174.77 453.24,-160.93 374.96,-149.95"/>
<polygon fill="black" stroke="black" points="375.41,-146.48 365.03,-148.55 374.44,-153.41 375.41,-146.48"/>
</g>
<!-- 8 -->
<g id="node5" class="node">
<title>8</title>
<polygon fill="none" stroke="black" points="505.5,-112.5 505.5,-148.5 993.5,-148.5 993.5,-112.5 505.5,-112.5"/>
<text text-anchor="middle" x="749.5" y="-127.4" font-family="Arial" font-size="12.00">BCFA4718263C927EC64911B10F1661A18776EEEFCBAE9001446FBBD086BCC2E6</text>
</g>
<!-- 6&#45;&gt;8 -->
<g id="edge4" class="edge">
<title>6&#45;&gt;8</title>
<path fill="none" stroke="black" d="M749.5,-185.31C749.5,-177.29 749.5,-167.55 749.5,-158.57"/>
<polygon fill="black" stroke="black" points="753,-158.53 749.5,-148.53 746,-158.53 753,-158.53"/>
</g>
<!-- 10 -->
<g id="node8" class="node">
<title>10</title>
<polygon fill="none" stroke="black" points="1012,-112.5 1012,-148.5 1505,-148.5 1505,-112.5 1012,-112.5"/>
<text text-anchor="middle" x="1258.5" y="-127.4" font-family="Arial" font-size="12.00">3348CCF06CFC033DBCF2CE395289E5B99D99B0C8C27670FF33B691C952486CCC</text>
</g>
<!-- 9&#45;&gt;10 -->
<g id="edge7" class="edge">
<title>9&#45;&gt;10</title>
<path fill="none" stroke="black" d="M1258.5,-185.31C1258.5,-177.29 1258.5,-167.55 1258.5,-158.57"/>
<polygon fill="black" stroke="black" points="1262,-158.53 1258.5,-148.53 1255,-158.53 1262,-158.53"/>
</g>
<!-- 11 -->
<g id="node9" class="node">
<title>11</title>
<polygon fill="none" stroke="black" points="1523.5,-112.5 1523.5,-148.5 2011.5,-148.5 2011.5,-112.5 1523.5,-112.5"/>
<text text-anchor="middle" x="1767.5" y="-127.4" font-family="Arial" font-size="12.00">20A568617FE844C6EECB1B0CBB6F54E276BEA59FAF326831B98EFE00B9E136C5</text>
</g>
<!-- 9&#45;&gt;11 -->
<g id="edge8" class="edge">
<title>9&#45;&gt;11</title>
<path fill="none" stroke="black" d="M1380.42,-185.49C1457.28,-174.77 1556.51,-160.93 1635.27,-149.95"/>
<polygon fill="black" stroke="black" points="1635.83,-153.4 1645.25,-148.55 1634.87,-146.47 1635.83,-153.4"/>
</g>
<!-- 1 -->
<g id="node6" class="node">
<title>1</title>
<polygon fill="none" stroke="black" points="65,-0.5 65,-75.5 422,-75.5 422,-0.5 65,-0.5"/>
<polygon fill="none" stroke="black" points="76.5,-49 76.5,-68 204.5,-68 204.5,-49 76.5,-49"/>
<text text-anchor="start" x="97" y="-55.4" font-family="Arial" font-size="12.00">id_origin: &#160;&#160;&#160;&#160;&#160;&#160;&#160;&#160;&#160;1</text>
<polygon fill="none" stroke="black" points="206.5,-49 206.5,-68 411.5,-68 411.5,-49 206.5,-49"/>
<text text-anchor="start" x="225" y="-55.4" font-family="Arial" font-size="12.00">address_origin: Chimaltenango</text>
<polygon fill="none" stroke="black" points="76.5,-28 76.5,-47 204.5,-47 204.5,-28 76.5,-28"/>
<text text-anchor="start" x="83" y="-34.4" font-family="Arial" font-size="12.00">id_destination: &#160;&#160;&#160;&#160;&#160;&#160;&#160;&#160;&#160;2</text>
<polygon fill="none" stroke="black" points="206.5,-28 206.5,-47 411.5,-47 411.5,-28 206.5,-28"/>
<text text-anchor="start" x="209.5" y="-34.4" font-family="Arial" font-size="12.00">address_destination: Quetzaltenango</text>
<polygon fill="none" stroke="black" points="76.5,-7 76.5,-26 204.5,-26 204.5,-7 76.5,-7"/>
<text text-anchor="start" x="79.5" y="-13.4" font-family="Arial" font-size="12.00">cost_between: &#160;&#160;&#160;&#160;&#160;&#160;&#160;160</text>
<polygon fill="none" stroke="black" points="73,-4.5 73,-71.5 414,-71.5 414,-4.5 73,-4.5"/>
</g>
<!-- 7&#45;&gt;1 -->
<g id="edge5" class="edge">
<title>7&#45;&gt;1</title>
<path fill="none" stroke="black" d="M243.5,-112.48C243.5,-104.88 243.5,-95.52 243.5,-86.05"/>
<polygon fill="black" stroke="black" points="247,-85.82 243.5,-75.82 240,-85.82 247,-85.82"/>
</g>
<!-- 2 -->
<g id="node7" class="node">
<title>2</title>
<polygon fill="none" stroke="black" points="585,-0.5 585,-75.5 914,-75.5 914,-0.5 585,-0.5"/>
<polygon fill="none" stroke="black" points="596.5,-49 596.5,-68 724.5,-68 724.5,-49 596.5,-49"/>
<text text-anchor="start" x="617" y="-55.4" font-family="Arial" font-size="12.00">id_origin: &#160;&#160;&#160;&#160;&#160;&#160;&#160;&#160;&#160;2</text>
<polygon fill="none" stroke="black" points="726.5,-49 726.5,-68 903.5,-68 903.5,-49 726.5,-49"/>
<text text-anchor="start" x="729.5" y="-55.4" font-family="Arial" font-size="12.00">address_origin: Quetzaltenango</text>
<polygon fill="none" stroke="black" points="596.5,-28 596.5,-47 724.5,-47 724.5,-28 596.5,-28"/>
<text text-anchor="start" x="603" y="-34.4" font-family="Arial" font-size="12.00">id_destination: &#160;&#160;&#160;&#160;&#160;&#160;&#160;&#160;&#160;3</text>
<polygon fill="none" stroke="black" points="726.5,-28 726.5,-47 903.5,-47 903.5,-28 726.5,-28"/>
<text text-anchor="start" x="733" y="-34.4" font-family="Arial" font-size="12.00">address_destination: Escuintla</text>
<polygon fill="none" stroke="black" points="596.5,-7 596.5,-26 724.5,-26 724.5,-7 596.5,-7"/>
<text text-anchor="start" x="599.5" y="-13.4" font-family="Arial" font-size="12.00">cost_between: &#160;&#160;&#160;&#160;&#160;&#160;&#160;240</text>
<polygon fill="none" stroke="black" points="593,-4.5 593,-71.5 906,-71.5 906,-4.5 593,-4.5"/>
</g>
<!-- 8&#45;&gt;2 -->
<g id="edge6" class="edge">
<title>8&#45;&gt;2</title>
<path fill="none" stroke="black" d="M749.5,-112.48C749.5,-104.88 749.5,-95.52 749.5,-86.05"/>
<polygon fill="black" stroke="black" points="753,-85.82 749.5,-75.82 746,-85.82 753,-85.82"/>
</g>
<!-- 3 -->
<g id="node10" class="node">
<title>3</title>
<polygon fill="none" stroke="black" points="1106.5,-0.5 1106.5,-75.5 1410.5,-75.5 1410.5,-0.5 1106.5,-0.5"/>
<polygon fill="none" stroke="black" points="1117.5,-49 1117.5,-68 1245.5,-68 1245.5,-49 1117.5,-49"/>
<text text-anchor="start" x="1138" y="-55.4" font-family="Arial" font-size="12.00">id_origin: &#160;&#160;&#160;&#160;&#160;&#160;&#160;&#160;&#160;3</text>
<polygon fill="none" stroke="black" points="1247.5,-49 1247.5,-68 1399.5,-68 1399.5,-49 1247.5,-49"/>
<text text-anchor="start" x="1255.5" y="-55.4" font-family="Arial" font-size="12.00">address_origin: Escuintla</text>
<polygon fill="none" stroke="black" points="1117.5,-28 1117.5,-47 1245.5,-47 1245.5,-28 1117.5,-28"/>
<text text-anchor="start" x="1124" y="-34.4" font-family="Arial" font-size="12.00">id_destination: &#160;&#160;&#160;&#160;&#160;&#160;&#160;&#160;&#160;4</text>
<polygon fill="none" stroke="black" points="1247.5,-28 1247.5,-47 1399.5,-47 1399.5,-28 1247.5,-28"/>
<text text-anchor="start" x="1250.5" y="-34.4" font-family="Arial" font-size="12.00">address_destination: Peten</text>
<polygon fill="none" stroke="black" points="1117.5,-7 1117.5,-26 1245.5,-26 1245.5,-7 1117.5,-7"/>
<text text-anchor="start" x="1120.5" y="-13.4" font-family="Arial" font-size="12.00">cost_between: &#160;&#160;&#160;&#160;&#160;&#160;&#160;320</text>
<polygon fill="none" stroke="black" points="1114.5,-4.5 1114.5,-71.5 1402.5,-71.5 1402.5,-4.5 1114.5,-4.5"/>
</g>
<!-- 10&#45;&gt;3 -->
<g id="edge9" class="edge">
<title>10&#45;&gt;3</title>
<path fill="none" stroke="black" d="M1258.5,-112.48C1258.5,-104.88 1258.5,-95.52 1258.5,-86.05"/>
<polygon fill="black" stroke="black" points="1262,-85.82 1258.5,-75.82 1255,-85.82 1262,-85.82"/>
</g>
<!-- 4 -->
<g id="node11" class="node">
<title>4</title>
<polygon fill="none" stroke="black" points="1624.5,-0.5 1624.5,-75.5 1910.5,-75.5 1910.5,-0.5 1624.5,-0.5"/>
<polygon fill="none" stroke="black" points="1635.5,-49 1635.5,-68 1757.5,-68 1757.5,-49 1635.5,-49"/>
<text text-anchor="start" x="1652.5" y="-55.4" font-family="Arial" font-size="12.00">id_origin: &#160;&#160;&#160;&#160;&#160;&#160;&#160;&#160;&#45;1</text>
<polygon fill="none" stroke="black" points="1759.5,-49 1759.5,-68 1899.5,-68 1899.5,-49 1759.5,-49"/>
<text text-anchor="start" x="1776.5" y="-55.4" font-family="Arial" font-size="12.00">address_origin: null</text>
<polygon fill="none" stroke="black" points="1635.5,-28 1635.5,-47 1757.5,-47 1757.5,-28 1635.5,-28"/>
<text text-anchor="start" x="1638.5" y="-34.4" font-family="Arial" font-size="12.00">id_destination: &#160;&#160;&#160;&#160;&#160;&#160;&#160;&#160;&#45;1</text>
<polygon fill="none" stroke="black" points="1759.5,-28 1759.5,-47 1899.5,-47 1899.5,-28 1759.5,-28"/>
<text text-anchor="start" x="1762.5" y="-34.4" font-family="Arial" font-size="12.00">address_destination: null</text>
<polygon fill="none" stroke="black" points="1635.5,-7 1635.5,-26 1757.5,-26 1757.5,-7 1635.5,-7"/>
<text text-anchor="start" x="1639" y="-13.4" font-family="Arial" font-size="12.00">cost_between: &#160;&#160;&#160;&#160;&#160;&#160;&#160;&#160;&#45;1</text>
<polygon fill="none" stroke="black" points="1632.5,-4.5 1632.5,-71.5 1902.5,-71.5 1902.5,-4.5 1632.5,-4.5"/>
</g>
<!-- 11&#45;&gt;4 -->
<g id="edge10" class="edge">
<title>11&#45;&gt;4</title>
<path fill="none" stroke="black" d="M1767.5,-112.48C1767.5,-104.88 1767.5,-95.52 1767.5,-86.05"/>
<polygon fill="black" stroke="black" points="1771,-85.82 1767.5,-75.82 1764,-85.82 1771,-85.82"/>
</g>
</g>
</svg>
