<?xml version="1.0" encoding="UTF-8" standalone="no"?>
<!DOCTYPE svg PUBLIC "-//W3C//DTD SVG 1.1//EN"
 "http://www.w3.org/Graphics/SVG/1.1/DTD/svg11.dtd">
<!-- Generated by graphviz version 2.43.0 (0)
 -->
<!-- Title: albums_graph Pages: 1 -->
<svg width="366pt" height="374pt"
 viewBox="0.00 0.00 366.00 374.28" xmlns="http://www.w3.org/2000/svg" xmlns:xlink="http://www.w3.org/1999/xlink">
<g id="graph0" class="graph" transform="scale(1 1) rotate(0) translate(4 370.28)">
<title>albums_graph</title>
<polygon fill="white" stroke="transparent" points="-4,4 -4,-370.28 362,-370.28 362,4 -4,4"/>
<!-- album_0 -->
<g id="node1" class="node">
<title>album_0</title>
<polygon fill="none" stroke="black" points="76,-366.28 0,-366.28 0,-330.28 76,-330.28 76,-366.28"/>
<text text-anchor="middle" x="38" y="-344.58" font-family="Times,serif" font-size="14.00">Album 1</text>
</g>
<!-- img_1 -->
<g id="node2" class="node">
<title>img_1</title>
<ellipse fill="none" stroke="black" cx="38" cy="-257.23" rx="37.09" ry="37.09"/>
<text text-anchor="middle" x="38" y="-253.53" font-family="Times,serif" font-size="14.00">img 1</text>
</g>
<!-- album_0&#45;&gt;img_1 -->
<g id="edge1" class="edge">
<title>album_0&#45;&gt;img_1</title>
<path fill="none" stroke="black" d="M38,-330.11C38,-322.77 38,-313.8 38,-304.73"/>
<polygon fill="black" stroke="black" points="41.5,-304.52 38,-294.52 34.5,-304.52 41.5,-304.52"/>
</g>
<!-- album_1 -->
<g id="node5" class="node">
<title>album_1</title>
<polygon fill="none" stroke="black" points="170,-366.28 94,-366.28 94,-330.28 170,-330.28 170,-366.28"/>
<text text-anchor="middle" x="132" y="-344.58" font-family="Times,serif" font-size="14.00">Album 2</text>
</g>
<!-- album_0&#45;&gt;album_1 -->
<g id="edge7" class="edge">
<title>album_0&#45;&gt;album_1</title>
<path fill="none" stroke="black" d="M76.19,-335.25C78.64,-334.99 81.09,-334.84 83.55,-334.79"/>
<polygon fill="black" stroke="black" points="83.49,-338.29 93.63,-335.24 83.79,-331.3 83.49,-338.29"/>
</g>
<!-- img_3 -->
<g id="node3" class="node">
<title>img_3</title>
<ellipse fill="none" stroke="black" cx="38" cy="-147.14" rx="37.09" ry="37.09"/>
<text text-anchor="middle" x="38" y="-143.44" font-family="Times,serif" font-size="14.00">img 3</text>
</g>
<!-- img_1&#45;&gt;img_3 -->
<g id="edge2" class="edge">
<title>img_1&#45;&gt;img_3</title>
<path fill="none" stroke="black" d="M38,-219.94C38,-211.83 38,-203.12 38,-194.66"/>
<polygon fill="black" stroke="black" points="41.5,-194.52 38,-184.52 34.5,-194.52 41.5,-194.52"/>
</g>
<!-- img_5 -->
<g id="node4" class="node">
<title>img_5</title>
<ellipse fill="none" stroke="black" cx="38" cy="-37.05" rx="37.09" ry="37.09"/>
<text text-anchor="middle" x="38" y="-33.35" font-family="Times,serif" font-size="14.00">img 5</text>
</g>
<!-- img_3&#45;&gt;img_5 -->
<g id="edge3" class="edge">
<title>img_3&#45;&gt;img_5</title>
<path fill="none" stroke="black" d="M38,-109.85C38,-101.74 38,-93.03 38,-84.57"/>
<polygon fill="black" stroke="black" points="41.5,-84.43 38,-74.43 34.5,-84.43 41.5,-84.43"/>
</g>
<!-- album_1&#45;&gt;album_0 -->
<g id="edge9" class="edge">
<title>album_1&#45;&gt;album_0</title>
<path fill="none" stroke="black" d="M93.63,-361.33C91.18,-361.58 88.72,-361.73 86.27,-361.77"/>
<polygon fill="black" stroke="black" points="86.34,-358.27 76.19,-361.31 86.02,-365.26 86.34,-358.27"/>
</g>
<!-- img_2 -->
<g id="node6" class="node">
<title>img_2</title>
<ellipse fill="none" stroke="black" cx="132" cy="-257.23" rx="37.09" ry="37.09"/>
<text text-anchor="middle" x="132" y="-253.53" font-family="Times,serif" font-size="14.00">img 2</text>
</g>
<!-- album_1&#45;&gt;img_2 -->
<g id="edge4" class="edge">
<title>album_1&#45;&gt;img_2</title>
<path fill="none" stroke="black" d="M132,-330.11C132,-322.77 132,-313.8 132,-304.73"/>
<polygon fill="black" stroke="black" points="135.5,-304.52 132,-294.52 128.5,-304.52 135.5,-304.52"/>
</g>
<!-- album_2 -->
<g id="node7" class="node">
<title>album_2</title>
<polygon fill="none" stroke="black" points="264,-366.28 188,-366.28 188,-330.28 264,-330.28 264,-366.28"/>
<text text-anchor="middle" x="226" y="-344.58" font-family="Times,serif" font-size="14.00">Album 3</text>
</g>
<!-- album_1&#45;&gt;album_2 -->
<g id="edge8" class="edge">
<title>album_1&#45;&gt;album_2</title>
<path fill="none" stroke="black" d="M170.19,-335.25C172.64,-334.99 175.09,-334.84 177.55,-334.79"/>
<polygon fill="black" stroke="black" points="177.49,-338.29 187.63,-335.24 177.79,-331.3 177.49,-338.29"/>
</g>
<!-- album_2&#45;&gt;album_1 -->
<g id="edge11" class="edge">
<title>album_2&#45;&gt;album_1</title>
<path fill="none" stroke="black" d="M187.63,-361.33C185.18,-361.58 182.72,-361.73 180.27,-361.77"/>
<polygon fill="black" stroke="black" points="180.34,-358.27 170.19,-361.31 180.02,-365.26 180.34,-358.27"/>
</g>
<!-- album_3 -->
<g id="node8" class="node">
<title>album_3</title>
<polygon fill="none" stroke="black" points="358,-366.28 282,-366.28 282,-330.28 358,-330.28 358,-366.28"/>
<text text-anchor="middle" x="320" y="-344.58" font-family="Times,serif" font-size="14.00">Album 4</text>
</g>
<!-- album_2&#45;&gt;album_3 -->
<g id="edge10" class="edge">
<title>album_2&#45;&gt;album_3</title>
<path fill="none" stroke="black" d="M264.19,-335.25C266.64,-334.99 269.09,-334.84 271.55,-334.79"/>
<polygon fill="black" stroke="black" points="271.49,-338.29 281.63,-335.24 271.79,-331.3 271.49,-338.29"/>
</g>
<!-- album_3&#45;&gt;album_2 -->
<g id="edge12" class="edge">
<title>album_3&#45;&gt;album_2</title>
<path fill="none" stroke="black" d="M281.63,-361.33C279.18,-361.58 276.72,-361.73 274.27,-361.77"/>
<polygon fill="black" stroke="black" points="274.34,-358.27 264.19,-361.31 274.02,-365.26 274.34,-358.27"/>
</g>
<!-- img_4 -->
<g id="node9" class="node">
<title>img_4</title>
<ellipse fill="none" stroke="black" cx="320" cy="-257.23" rx="37.09" ry="37.09"/>
<text text-anchor="middle" x="320" y="-253.53" font-family="Times,serif" font-size="14.00">img 4</text>
</g>
<!-- album_3&#45;&gt;img_4 -->
<g id="edge5" class="edge">
<title>album_3&#45;&gt;img_4</title>
<path fill="none" stroke="black" d="M320,-330.11C320,-322.77 320,-313.8 320,-304.73"/>
<polygon fill="black" stroke="black" points="323.5,-304.52 320,-294.52 316.5,-304.52 323.5,-304.52"/>
</g>
<!-- img_6 -->
<g id="node10" class="node">
<title>img_6</title>
<ellipse fill="none" stroke="black" cx="320" cy="-147.14" rx="37.09" ry="37.09"/>
<text text-anchor="middle" x="320" y="-143.44" font-family="Times,serif" font-size="14.00">img 6</text>
</g>
<!-- img_4&#45;&gt;img_6 -->
<g id="edge6" class="edge">
<title>img_4&#45;&gt;img_6</title>
<path fill="none" stroke="black" d="M320,-219.94C320,-211.83 320,-203.12 320,-194.66"/>
<polygon fill="black" stroke="black" points="323.5,-194.52 320,-184.52 316.5,-194.52 323.5,-194.52"/>
</g>
</g>
</svg>
