<?xml version="1.0" encoding="UTF-8" standalone="no"?>
<!DOCTYPE svg PUBLIC "-//W3C//DTD SVG 1.1//EN"
 "http://www.w3.org/Graphics/SVG/1.1/DTD/svg11.dtd">
<!-- Generated by graphviz version 2.43.0 (0)
 -->
<!-- Title: image_avl Pages: 1 -->
<svg width="275pt" height="260pt"
 viewBox="0.00 0.00 274.69 260.00" xmlns="http://www.w3.org/2000/svg" xmlns:xlink="http://www.w3.org/1999/xlink">
<g id="graph0" class="graph" transform="scale(1 1) rotate(0) translate(4 256)">
<title>image_avl</title>
<polygon fill="white" stroke="transparent" points="-4,4 -4,-256 270.69,-256 270.69,4 -4,4"/>
<!-- node_3 -->
<g id="node1" class="node">
<title>node_3</title>
<ellipse fill="none" stroke="black" cx="85.35" cy="-234" rx="38.19" ry="18"/>
<text text-anchor="middle" x="85.35" y="-230.3" font-family="Times,serif" font-size="14.00">img_3</text>
</g>
<!-- node_2 -->
<g id="node2" class="node">
<title>node_2</title>
<ellipse fill="none" stroke="black" cx="38.35" cy="-162" rx="38.19" ry="18"/>
<text text-anchor="middle" x="38.35" y="-158.3" font-family="Times,serif" font-size="14.00">img_2</text>
</g>
<!-- node_3&#45;&gt;node_2 -->
<g id="edge1" class="edge">
<title>node_3&#45;&gt;node_2</title>
<path fill="none" stroke="black" d="M74.21,-216.41C68.47,-207.87 61.36,-197.28 54.99,-187.79"/>
<polygon fill="black" stroke="black" points="57.89,-185.82 49.4,-179.47 52.07,-189.72 57.89,-185.82"/>
</g>
<!-- node_5 -->
<g id="node3" class="node">
<title>node_5</title>
<ellipse fill="none" stroke="black" cx="133.35" cy="-162" rx="38.19" ry="18"/>
<text text-anchor="middle" x="133.35" y="-158.3" font-family="Times,serif" font-size="14.00">img_5</text>
</g>
<!-- node_3&#45;&gt;node_5 -->
<g id="edge2" class="edge">
<title>node_3&#45;&gt;node_5</title>
<path fill="none" stroke="black" d="M96.48,-216.76C102.33,-208.23 109.63,-197.58 116.19,-188.02"/>
<polygon fill="black" stroke="black" points="119.17,-189.86 121.94,-179.63 113.4,-185.9 119.17,-189.86"/>
</g>
<!-- node_1 -->
<g id="node4" class="node">
<title>node_1</title>
<ellipse fill="none" stroke="black" cx="38.35" cy="-90" rx="38.19" ry="18"/>
<text text-anchor="middle" x="38.35" y="-86.3" font-family="Times,serif" font-size="14.00">img_1</text>
</g>
<!-- node_2&#45;&gt;node_1 -->
<g id="edge3" class="edge">
<title>node_2&#45;&gt;node_1</title>
<path fill="none" stroke="black" d="M38.35,-143.7C38.35,-135.98 38.35,-126.71 38.35,-118.11"/>
<polygon fill="black" stroke="black" points="41.85,-118.1 38.35,-108.1 34.85,-118.1 41.85,-118.1"/>
</g>
<!-- node_4 -->
<g id="node5" class="node">
<title>node_4</title>
<ellipse fill="none" stroke="black" cx="133.35" cy="-90" rx="38.19" ry="18"/>
<text text-anchor="middle" x="133.35" y="-86.3" font-family="Times,serif" font-size="14.00">img_4</text>
</g>
<!-- node_5&#45;&gt;node_4 -->
<g id="edge4" class="edge">
<title>node_5&#45;&gt;node_4</title>
<path fill="none" stroke="black" d="M133.35,-143.7C133.35,-135.98 133.35,-126.71 133.35,-118.11"/>
<polygon fill="black" stroke="black" points="136.85,-118.1 133.35,-108.1 129.85,-118.1 136.85,-118.1"/>
</g>
<!-- node_6 -->
<g id="node6" class="node">
<title>node_6</title>
<ellipse fill="none" stroke="black" cx="228.35" cy="-90" rx="38.19" ry="18"/>
<text text-anchor="middle" x="228.35" y="-86.3" font-family="Times,serif" font-size="14.00">img_6</text>
</g>
<!-- node_5&#45;&gt;node_6 -->
<g id="edge5" class="edge">
<title>node_5&#45;&gt;node_6</title>
<path fill="none" stroke="black" d="M153.03,-146.5C166.79,-136.36 185.35,-122.68 200.6,-111.44"/>
<polygon fill="black" stroke="black" points="202.71,-114.24 208.69,-105.49 198.56,-108.6 202.71,-114.24"/>
</g>
<!-- node_7 -->
<g id="node7" class="node">
<title>node_7</title>
<ellipse fill="none" stroke="black" cx="228.35" cy="-18" rx="38.19" ry="18"/>
<text text-anchor="middle" x="228.35" y="-14.3" font-family="Times,serif" font-size="14.00">img_7</text>
</g>
<!-- node_6&#45;&gt;node_7 -->
<g id="edge6" class="edge">
<title>node_6&#45;&gt;node_7</title>
<path fill="none" stroke="black" d="M228.35,-71.7C228.35,-63.98 228.35,-54.71 228.35,-46.11"/>
<polygon fill="black" stroke="black" points="231.85,-46.1 228.35,-36.1 224.85,-46.1 231.85,-46.1"/>
</g>
</g>
</svg>
