<?xml version="1.0" encoding="UTF-8" standalone="no"?>
<!DOCTYPE svg PUBLIC "-//W3C//DTD SVG 1.1//EN"
 "http://www.w3.org/Graphics/SVG/1.1/DTD/svg11.dtd">
<!-- Generated by graphviz version 2.43.0 (0)
 -->
<!-- Title: layers_tree Pages: 1 -->
<svg width="105pt" height="908pt"
 viewBox="0.00 0.00 105.49 908.00" xmlns="http://www.w3.org/2000/svg" xmlns:xlink="http://www.w3.org/1999/xlink">
<g id="graph0" class="graph" transform="scale(1 1) rotate(0) translate(4 904)">
<title>layers_tree</title>
<polygon fill="white" stroke="transparent" points="-4,4 -4,-904 101.49,-904 101.49,4 -4,4"/>
<!-- node_0 -->
<g id="node1" class="node">
<title>node_0</title>
<ellipse fill="none" stroke="black" cx="48.75" cy="-882" rx="42.79" ry="18"/>
<text text-anchor="middle" x="48.75" y="-878.3" font-family="Times,serif" font-size="14.00">Capa 0</text>
</g>
<!-- node_1 -->
<g id="node2" class="node">
<title>node_1</title>
<ellipse fill="none" stroke="black" cx="48.75" cy="-810" rx="42.79" ry="18"/>
<text text-anchor="middle" x="48.75" y="-806.3" font-family="Times,serif" font-size="14.00">Capa 1</text>
</g>
<!-- node_0&#45;&gt;node_1 -->
<g id="edge1" class="edge">
<title>node_0&#45;&gt;node_1</title>
<path fill="none" stroke="black" d="M48.75,-863.7C48.75,-855.98 48.75,-846.71 48.75,-838.11"/>
<polygon fill="black" stroke="black" points="52.25,-838.1 48.75,-828.1 45.25,-838.1 52.25,-838.1"/>
</g>
<!-- node_2 -->
<g id="node3" class="node">
<title>node_2</title>
<ellipse fill="none" stroke="black" cx="48.75" cy="-738" rx="42.79" ry="18"/>
<text text-anchor="middle" x="48.75" y="-734.3" font-family="Times,serif" font-size="14.00">Capa 2</text>
</g>
<!-- node_1&#45;&gt;node_2 -->
<g id="edge2" class="edge">
<title>node_1&#45;&gt;node_2</title>
<path fill="none" stroke="black" d="M48.75,-791.7C48.75,-783.98 48.75,-774.71 48.75,-766.11"/>
<polygon fill="black" stroke="black" points="52.25,-766.1 48.75,-756.1 45.25,-766.1 52.25,-766.1"/>
</g>
<!-- node_3 -->
<g id="node4" class="node">
<title>node_3</title>
<ellipse fill="none" stroke="black" cx="48.75" cy="-666" rx="42.79" ry="18"/>
<text text-anchor="middle" x="48.75" y="-662.3" font-family="Times,serif" font-size="14.00">Capa 3</text>
</g>
<!-- node_2&#45;&gt;node_3 -->
<g id="edge3" class="edge">
<title>node_2&#45;&gt;node_3</title>
<path fill="none" stroke="black" d="M48.75,-719.7C48.75,-711.98 48.75,-702.71 48.75,-694.11"/>
<polygon fill="black" stroke="black" points="52.25,-694.1 48.75,-684.1 45.25,-694.1 52.25,-694.1"/>
</g>
<!-- node_4 -->
<g id="node5" class="node">
<title>node_4</title>
<ellipse fill="none" stroke="black" cx="48.75" cy="-594" rx="42.79" ry="18"/>
<text text-anchor="middle" x="48.75" y="-590.3" font-family="Times,serif" font-size="14.00">Capa 4</text>
</g>
<!-- node_3&#45;&gt;node_4 -->
<g id="edge4" class="edge">
<title>node_3&#45;&gt;node_4</title>
<path fill="none" stroke="black" d="M48.75,-647.7C48.75,-639.98 48.75,-630.71 48.75,-622.11"/>
<polygon fill="black" stroke="black" points="52.25,-622.1 48.75,-612.1 45.25,-622.1 52.25,-622.1"/>
</g>
<!-- node_5 -->
<g id="node6" class="node">
<title>node_5</title>
<ellipse fill="none" stroke="black" cx="48.75" cy="-522" rx="42.79" ry="18"/>
<text text-anchor="middle" x="48.75" y="-518.3" font-family="Times,serif" font-size="14.00">Capa 5</text>
</g>
<!-- node_4&#45;&gt;node_5 -->
<g id="edge5" class="edge">
<title>node_4&#45;&gt;node_5</title>
<path fill="none" stroke="black" d="M48.75,-575.7C48.75,-567.98 48.75,-558.71 48.75,-550.11"/>
<polygon fill="black" stroke="black" points="52.25,-550.1 48.75,-540.1 45.25,-550.1 52.25,-550.1"/>
</g>
<!-- node_6 -->
<g id="node7" class="node">
<title>node_6</title>
<ellipse fill="none" stroke="black" cx="48.75" cy="-450" rx="42.79" ry="18"/>
<text text-anchor="middle" x="48.75" y="-446.3" font-family="Times,serif" font-size="14.00">Capa 6</text>
</g>
<!-- node_5&#45;&gt;node_6 -->
<g id="edge6" class="edge">
<title>node_5&#45;&gt;node_6</title>
<path fill="none" stroke="black" d="M48.75,-503.7C48.75,-495.98 48.75,-486.71 48.75,-478.11"/>
<polygon fill="black" stroke="black" points="52.25,-478.1 48.75,-468.1 45.25,-478.1 52.25,-478.1"/>
</g>
<!-- node_7 -->
<g id="node8" class="node">
<title>node_7</title>
<ellipse fill="none" stroke="black" cx="48.75" cy="-378" rx="42.79" ry="18"/>
<text text-anchor="middle" x="48.75" y="-374.3" font-family="Times,serif" font-size="14.00">Capa 7</text>
</g>
<!-- node_6&#45;&gt;node_7 -->
<g id="edge7" class="edge">
<title>node_6&#45;&gt;node_7</title>
<path fill="none" stroke="black" d="M48.75,-431.7C48.75,-423.98 48.75,-414.71 48.75,-406.11"/>
<polygon fill="black" stroke="black" points="52.25,-406.1 48.75,-396.1 45.25,-406.1 52.25,-406.1"/>
</g>
<!-- node_8 -->
<g id="node9" class="node">
<title>node_8</title>
<ellipse fill="none" stroke="black" cx="48.75" cy="-306" rx="42.79" ry="18"/>
<text text-anchor="middle" x="48.75" y="-302.3" font-family="Times,serif" font-size="14.00">Capa 8</text>
</g>
<!-- node_7&#45;&gt;node_8 -->
<g id="edge8" class="edge">
<title>node_7&#45;&gt;node_8</title>
<path fill="none" stroke="black" d="M48.75,-359.7C48.75,-351.98 48.75,-342.71 48.75,-334.11"/>
<polygon fill="black" stroke="black" points="52.25,-334.1 48.75,-324.1 45.25,-334.1 52.25,-334.1"/>
</g>
<!-- node_9 -->
<g id="node10" class="node">
<title>node_9</title>
<ellipse fill="none" stroke="black" cx="48.75" cy="-234" rx="42.79" ry="18"/>
<text text-anchor="middle" x="48.75" y="-230.3" font-family="Times,serif" font-size="14.00">Capa 9</text>
</g>
<!-- node_8&#45;&gt;node_9 -->
<g id="edge9" class="edge">
<title>node_8&#45;&gt;node_9</title>
<path fill="none" stroke="black" d="M48.75,-287.7C48.75,-279.98 48.75,-270.71 48.75,-262.11"/>
<polygon fill="black" stroke="black" points="52.25,-262.1 48.75,-252.1 45.25,-262.1 52.25,-262.1"/>
</g>
<!-- node_10 -->
<g id="node11" class="node">
<title>node_10</title>
<ellipse fill="none" stroke="black" cx="48.75" cy="-162" rx="48.99" ry="18"/>
<text text-anchor="middle" x="48.75" y="-158.3" font-family="Times,serif" font-size="14.00">Capa 10</text>
</g>
<!-- node_9&#45;&gt;node_10 -->
<g id="edge10" class="edge">
<title>node_9&#45;&gt;node_10</title>
<path fill="none" stroke="black" d="M48.75,-215.7C48.75,-207.98 48.75,-198.71 48.75,-190.11"/>
<polygon fill="black" stroke="black" points="52.25,-190.1 48.75,-180.1 45.25,-190.1 52.25,-190.1"/>
</g>
<!-- node_11 -->
<g id="node12" class="node">
<title>node_11</title>
<ellipse fill="none" stroke="black" cx="48.75" cy="-90" rx="48.99" ry="18"/>
<text text-anchor="middle" x="48.75" y="-86.3" font-family="Times,serif" font-size="14.00">Capa 11</text>
</g>
<!-- node_10&#45;&gt;node_11 -->
<g id="edge11" class="edge">
<title>node_10&#45;&gt;node_11</title>
<path fill="none" stroke="black" d="M48.75,-143.7C48.75,-135.98 48.75,-126.71 48.75,-118.11"/>
<polygon fill="black" stroke="black" points="52.25,-118.1 48.75,-108.1 45.25,-118.1 52.25,-118.1"/>
</g>
<!-- node_12 -->
<g id="node13" class="node">
<title>node_12</title>
<ellipse fill="none" stroke="black" cx="48.75" cy="-18" rx="48.99" ry="18"/>
<text text-anchor="middle" x="48.75" y="-14.3" font-family="Times,serif" font-size="14.00">Capa 12</text>
</g>
<!-- node_11&#45;&gt;node_12 -->
<g id="edge12" class="edge">
<title>node_11&#45;&gt;node_12</title>
<path fill="none" stroke="black" d="M48.75,-71.7C48.75,-63.98 48.75,-54.71 48.75,-46.11"/>
<polygon fill="black" stroke="black" points="52.25,-46.1 48.75,-36.1 45.25,-46.1 52.25,-46.1"/>
</g>
</g>
</svg>
