<?xml version="1.0" encoding="UTF-8" standalone="no"?>
<!DOCTYPE svg PUBLIC "-//W3C//DTD SVG 1.1//EN"
 "http://www.w3.org/Graphics/SVG/1.1/DTD/svg11.dtd">
<!-- Generated by graphviz version 2.43.0 (0)
 -->
<!-- Title: clients Pages: 1 -->
<svg width="1696pt" height="191pt"
 viewBox="0.00 0.00 1695.50 191.00" xmlns="http://www.w3.org/2000/svg" xmlns:xlink="http://www.w3.org/1999/xlink">
<g id="graph0" class="graph" transform="scale(1 1) rotate(0) translate(4 187)">
<title>clients</title>
<polygon fill="white" stroke="transparent" points="-4,4 -4,-187 1691.5,-187 1691.5,4 -4,4"/>
<!-- node_81 -->
<g id="node1" class="node">
<title>node_81</title>
<polygon fill="none" stroke="black" points="592,-146.5 592,-182.5 743,-182.5 743,-146.5 592,-146.5"/>
<polygon fill="none" stroke="black" points="603.5,-153.5 603.5,-174.5 732.5,-174.5 732.5,-153.5 603.5,-153.5"/>
<text text-anchor="start" x="606.5" y="-160.3" font-family="Times,serif" font-size="14.00">Fernando Andres</text>
<polygon fill="none" stroke="black" points="600,-151 600,-178 735,-178 735,-151 600,-151"/>
</g>
<!-- node_16 -->
<g id="node2" class="node">
<title>node_16</title>
<polygon fill="none" stroke="black" points="360.5,-73.5 360.5,-109.5 562.5,-109.5 562.5,-73.5 360.5,-73.5"/>
<polygon fill="none" stroke="black" points="371.5,-80.5 371.5,-101.5 453.5,-101.5 453.5,-80.5 371.5,-80.5"/>
<text text-anchor="start" x="374.5" y="-87.3" font-family="Times,serif" font-size="14.00">Maria Jose</text>
<polygon fill="none" stroke="black" points="455.5,-80.5 455.5,-101.5 551.5,-101.5 551.5,-80.5 455.5,-80.5"/>
<text text-anchor="start" x="458.5" y="-87.3" font-family="Times,serif" font-size="14.00">Diego Felipe</text>
<polygon fill="none" stroke="black" points="368.5,-78 368.5,-105 554.5,-105 554.5,-78 368.5,-78"/>
</g>
<!-- node_81&#45;&gt;node_16 -->
<g id="edge3" class="edge">
<title>node_81&#45;&gt;node_16</title>
<path fill="none" stroke="black" d="M618.16,-146.49C588.94,-136.42 551.74,-123.6 520.92,-112.98"/>
<polygon fill="black" stroke="black" points="521.75,-109.56 511.15,-109.61 519.47,-116.18 521.75,-109.56"/>
</g>
<!-- node_78 -->
<g id="node5" class="node">
<title>node_78</title>
<polygon fill="none" stroke="black" points="955.5,-73.5 955.5,-109.5 1193.5,-109.5 1193.5,-73.5 955.5,-73.5"/>
<polygon fill="none" stroke="black" points="966.5,-80.5 966.5,-101.5 1057.5,-101.5 1057.5,-80.5 966.5,-80.5"/>
<text text-anchor="start" x="969.5" y="-87.3" font-family="Times,serif" font-size="14.00">Luisa Maria</text>
<polygon fill="none" stroke="black" points="1059.5,-80.5 1059.5,-101.5 1182.5,-101.5 1182.5,-80.5 1059.5,-80.5"/>
<text text-anchor="start" x="1062.5" y="-87.3" font-family="Times,serif" font-size="14.00">Andrew Garfield</text>
<polygon fill="none" stroke="black" points="963.5,-78 963.5,-105 1185.5,-105 1185.5,-78 963.5,-78"/>
</g>
<!-- node_81&#45;&gt;node_78 -->
<g id="edge7" class="edge">
<title>node_81&#45;&gt;node_78</title>
<path fill="none" stroke="black" d="M743.1,-150.31C805.98,-139.34 896.27,-123.59 966.73,-111.3"/>
<polygon fill="black" stroke="black" points="967.73,-114.68 976.97,-109.51 966.52,-107.78 967.73,-114.68"/>
</g>
<!-- node_79 -->
<g id="node3" class="node">
<title>node_79</title>
<polygon fill="none" stroke="black" points="0,-0.5 0,-36.5 275,-36.5 275,-0.5 0,-0.5"/>
<polygon fill="none" stroke="black" points="11.5,-7.5 11.5,-28.5 93.5,-28.5 93.5,-7.5 11.5,-7.5"/>
<text text-anchor="start" x="14.5" y="-14.3" font-family="Times,serif" font-size="14.00">Maria Jose</text>
<polygon fill="none" stroke="black" points="95.5,-7.5 95.5,-28.5 174.5,-28.5 174.5,-7.5 95.5,-7.5"/>
<text text-anchor="start" x="98.5" y="-14.3" font-family="Times,serif" font-size="14.00">Jorge Luis</text>
<polygon fill="none" stroke="black" points="176.5,-7.5 176.5,-28.5 264.5,-28.5 264.5,-7.5 176.5,-7.5"/>
<text text-anchor="start" x="179.5" y="-14.3" font-family="Times,serif" font-size="14.00">Juan Carlos</text>
<polygon fill="none" stroke="black" points="8,-5 8,-32 267,-32 267,-5 8,-5"/>
</g>
<!-- node_16&#45;&gt;node_79 -->
<g id="edge1" class="edge">
<title>node_16&#45;&gt;node_79</title>
<path fill="none" stroke="black" d="M383.89,-73.49C336.17,-63.03 274.88,-49.61 225.37,-38.76"/>
<polygon fill="black" stroke="black" points="225.83,-35.27 215.31,-36.55 224.33,-42.11 225.83,-35.27"/>
</g>
<!-- node_14 -->
<g id="node4" class="node">
<title>node_14</title>
<polygon fill="none" stroke="black" points="293.5,-0.5 293.5,-36.5 629.5,-36.5 629.5,-0.5 293.5,-0.5"/>
<polygon fill="none" stroke="black" points="304.5,-7.5 304.5,-28.5 407.5,-28.5 407.5,-7.5 304.5,-7.5"/>
<text text-anchor="start" x="307.5" y="-14.3" font-family="Times,serif" font-size="14.00">Sofia Vergara</text>
<polygon fill="none" stroke="black" points="409.5,-7.5 409.5,-28.5 495.5,-28.5 495.5,-7.5 409.5,-7.5"/>
<text text-anchor="start" x="412.5" y="-14.3" font-family="Times,serif" font-size="14.00">Jose Carlos</text>
<polygon fill="none" stroke="black" points="497.5,-7.5 497.5,-28.5 618.5,-28.5 618.5,-7.5 497.5,-7.5"/>
<text text-anchor="start" x="500.5" y="-14.3" font-family="Times,serif" font-size="14.00">Maria Fernanda</text>
<polygon fill="none" stroke="black" points="301.5,-5 301.5,-32 621.5,-32 621.5,-5 301.5,-5"/>
</g>
<!-- node_16&#45;&gt;node_14 -->
<g id="edge2" class="edge">
<title>node_16&#45;&gt;node_14</title>
<path fill="none" stroke="black" d="M461.5,-73.31C461.5,-65.29 461.5,-55.55 461.5,-46.57"/>
<polygon fill="black" stroke="black" points="465,-46.53 461.5,-36.53 458,-46.53 465,-46.53"/>
</g>
<!-- node_43 -->
<g id="node6" class="node">
<title>node_43</title>
<polygon fill="none" stroke="black" points="647.5,-0.5 647.5,-36.5 1099.5,-36.5 1099.5,-0.5 647.5,-0.5"/>
<polygon fill="none" stroke="black" points="658.5,-7.5 658.5,-28.5 785.5,-28.5 785.5,-7.5 658.5,-7.5"/>
<text text-anchor="start" x="661.5" y="-14.3" font-family="Times,serif" font-size="14.00">Carolina Lucidna</text>
<polygon fill="none" stroke="black" points="787.5,-7.5 787.5,-28.5 894.5,-28.5 894.5,-7.5 787.5,-7.5"/>
<text text-anchor="start" x="790.5" y="-14.3" font-family="Times,serif" font-size="14.00">Carlos Andres</text>
<polygon fill="none" stroke="black" points="896.5,-7.5 896.5,-28.5 995.5,-28.5 995.5,-7.5 896.5,-7.5"/>
<text text-anchor="start" x="899.5" y="-14.3" font-family="Times,serif" font-size="14.00">Gilberto Jose</text>
<polygon fill="none" stroke="black" points="997.5,-7.5 997.5,-28.5 1088.5,-28.5 1088.5,-7.5 997.5,-7.5"/>
<text text-anchor="start" x="1000.5" y="-14.3" font-family="Times,serif" font-size="14.00">Jesus Maria</text>
<polygon fill="none" stroke="black" points="655.5,-5 655.5,-32 1091.5,-32 1091.5,-5 655.5,-5"/>
</g>
<!-- node_78&#45;&gt;node_43 -->
<g id="edge4" class="edge">
<title>node_78&#45;&gt;node_43</title>
<path fill="none" stroke="black" d="M1026.36,-73.49C997.85,-63.42 961.55,-50.6 931.48,-39.98"/>
<polygon fill="black" stroke="black" points="932.54,-36.64 921.95,-36.61 930.21,-43.24 932.54,-36.64"/>
</g>
<!-- node_27 -->
<g id="node7" class="node">
<title>node_27</title>
<polygon fill="none" stroke="black" points="1117.5,-0.5 1117.5,-36.5 1435.5,-36.5 1435.5,-0.5 1117.5,-0.5"/>
<polygon fill="none" stroke="black" points="1128.5,-7.5 1128.5,-28.5 1228.5,-28.5 1228.5,-7.5 1128.5,-7.5"/>
<text text-anchor="start" x="1131.5" y="-14.3" font-family="Times,serif" font-size="14.00">Uriel Bartolo</text>
<polygon fill="none" stroke="black" points="1230.5,-7.5 1230.5,-28.5 1331.5,-28.5 1331.5,-7.5 1230.5,-7.5"/>
<text text-anchor="start" x="1233.5" y="-14.3" font-family="Times,serif" font-size="14.00">Juanito Perez</text>
<polygon fill="none" stroke="black" points="1333.5,-7.5 1333.5,-28.5 1424.5,-28.5 1424.5,-7.5 1333.5,-7.5"/>
<text text-anchor="start" x="1336.5" y="-14.3" font-family="Times,serif" font-size="14.00">Luisa Maria</text>
<polygon fill="none" stroke="black" points="1125.5,-5 1125.5,-32 1427.5,-32 1427.5,-5 1125.5,-5"/>
</g>
<!-- node_78&#45;&gt;node_27 -->
<g id="edge5" class="edge">
<title>node_78&#45;&gt;node_27</title>
<path fill="none" stroke="black" d="M1122.88,-73.49C1151.53,-63.42 1188.01,-50.6 1218.24,-39.98"/>
<polygon fill="black" stroke="black" points="1219.54,-43.23 1227.81,-36.61 1217.22,-36.63 1219.54,-43.23"/>
</g>
<!-- node_55 -->
<g id="node8" class="node">
<title>node_55</title>
<polygon fill="none" stroke="black" points="1453.5,-0.5 1453.5,-36.5 1687.5,-36.5 1687.5,-0.5 1453.5,-0.5"/>
<polygon fill="none" stroke="black" points="1464.5,-7.5 1464.5,-28.5 1569.5,-28.5 1569.5,-7.5 1464.5,-7.5"/>
<text text-anchor="start" x="1467.5" y="-14.3" font-family="Times,serif" font-size="14.00">Andres Felipe</text>
<polygon fill="none" stroke="black" points="1571.5,-7.5 1571.5,-28.5 1676.5,-28.5 1676.5,-7.5 1571.5,-7.5"/>
<text text-anchor="start" x="1574.5" y="-14.3" font-family="Times,serif" font-size="14.00">Pablo Ricardo</text>
<polygon fill="none" stroke="black" points="1461.5,-5 1461.5,-32 1679.5,-32 1679.5,-5 1461.5,-5"/>
</g>
<!-- node_78&#45;&gt;node_55 -->
<g id="edge6" class="edge">
<title>node_78&#45;&gt;node_55</title>
<path fill="none" stroke="black" d="M1193.3,-73.49C1268.59,-62.72 1365.93,-48.78 1442.86,-37.77"/>
<polygon fill="black" stroke="black" points="1443.69,-41.19 1453.09,-36.31 1442.7,-34.26 1443.69,-41.19"/>
</g>
</g>
</svg>
