<?xml version="1.0" encoding="UTF-8" standalone="no"?>
<!DOCTYPE svg PUBLIC "-//W3C//DTD SVG 1.1//EN"
 "http://www.w3.org/Graphics/SVG/1.1/DTD/svg11.dtd">
<!-- Generated by graphviz version 2.43.0 (0)
 -->
<!-- Title: clients Pages: 1 -->
<svg width="1830pt" height="191pt"
 viewBox="0.00 0.00 1830.00 191.00" xmlns="http://www.w3.org/2000/svg" xmlns:xlink="http://www.w3.org/1999/xlink">
<g id="graph0" class="graph" transform="scale(1 1) rotate(0) translate(4 187)">
<title>clients</title>
<polygon fill="white" stroke="transparent" points="-4,4 -4,-187 1826,-187 1826,4 -4,4"/>
<!-- node_81 -->
<g id="node1" class="node">
<title>node_81</title>
<polygon fill="none" stroke="black" points="585.5,-146.5 585.5,-182.5 736.5,-182.5 736.5,-146.5 585.5,-146.5"/>
<polygon fill="none" stroke="black" points="597,-153.5 597,-174.5 726,-174.5 726,-153.5 597,-153.5"/>
<text text-anchor="start" x="600" y="-160.3" font-family="Times,serif" font-size="14.00">Fernando Andres</text>
<polygon fill="none" stroke="black" points="593.5,-151 593.5,-178 728.5,-178 728.5,-151 593.5,-151"/>
</g>
<!-- node_16 -->
<g id="node2" class="node">
<title>node_16</title>
<polygon fill="none" stroke="black" points="354,-73.5 354,-109.5 556,-109.5 556,-73.5 354,-73.5"/>
<polygon fill="none" stroke="black" points="365,-80.5 365,-101.5 447,-101.5 447,-80.5 365,-80.5"/>
<text text-anchor="start" x="368" y="-87.3" font-family="Times,serif" font-size="14.00">Maria Jose</text>
<polygon fill="none" stroke="black" points="449,-80.5 449,-101.5 545,-101.5 545,-80.5 449,-80.5"/>
<text text-anchor="start" x="452" y="-87.3" font-family="Times,serif" font-size="14.00">Diego Felipe</text>
<polygon fill="none" stroke="black" points="362,-78 362,-105 548,-105 548,-78 362,-78"/>
</g>
<!-- node_81&#45;&gt;node_16 -->
<g id="edge4" class="edge">
<title>node_81&#45;&gt;node_16</title>
<path fill="none" stroke="black" d="M611.66,-146.49C582.44,-136.42 545.24,-123.6 514.42,-112.98"/>
<polygon fill="black" stroke="black" points="515.25,-109.56 504.65,-109.61 512.97,-116.18 515.25,-109.56"/>
</g>
<!-- node_78 -->
<g id="node6" class="node">
<title>node_78</title>
<polygon fill="none" stroke="black" points="1090,-73.5 1090,-109.5 1328,-109.5 1328,-73.5 1090,-73.5"/>
<polygon fill="none" stroke="black" points="1101,-80.5 1101,-101.5 1192,-101.5 1192,-80.5 1101,-80.5"/>
<text text-anchor="start" x="1104" y="-87.3" font-family="Times,serif" font-size="14.00">Luisa Maria</text>
<polygon fill="none" stroke="black" points="1194,-80.5 1194,-101.5 1317,-101.5 1317,-80.5 1194,-80.5"/>
<text text-anchor="start" x="1197" y="-87.3" font-family="Times,serif" font-size="14.00">Andrew Garfield</text>
<polygon fill="none" stroke="black" points="1098,-78 1098,-105 1320,-105 1320,-78 1098,-78"/>
</g>
<!-- node_81&#45;&gt;node_78 -->
<g id="edge8" class="edge">
<title>node_81&#45;&gt;node_78</title>
<path fill="none" stroke="black" d="M736.62,-153.7C825.08,-142.24 973,-123.08 1079.77,-109.24"/>
<polygon fill="black" stroke="black" points="1080.51,-112.68 1089.97,-107.92 1079.61,-105.74 1080.51,-112.68"/>
</g>
<!-- node_3 -->
<g id="node3" class="node">
<title>node_3</title>
<polygon fill="none" stroke="black" points="0,-0.5 0,-36.5 200,-36.5 200,-0.5 0,-0.5"/>
<polygon fill="none" stroke="black" points="11,-7.5 11,-28.5 93,-28.5 93,-7.5 11,-7.5"/>
<text text-anchor="start" x="14" y="-14.3" font-family="Times,serif" font-size="14.00">Maria Jose</text>
<polygon fill="none" stroke="black" points="95,-7.5 95,-28.5 189,-28.5 189,-7.5 95,-7.5"/>
<text text-anchor="start" x="98" y="-14.3" font-family="Times,serif" font-size="14.00">Oscar Maria</text>
<polygon fill="none" stroke="black" points="8,-5 8,-32 192,-32 192,-5 8,-5"/>
</g>
<!-- node_16&#45;&gt;node_3 -->
<g id="edge1" class="edge">
<title>node_16&#45;&gt;node_3</title>
<path fill="none" stroke="black" d="M369.97,-73.49C317.35,-62.97 249.68,-49.44 195.26,-38.55"/>
<polygon fill="black" stroke="black" points="195.75,-35.08 185.26,-36.55 194.38,-41.95 195.75,-35.08"/>
</g>
<!-- node_79 -->
<g id="node4" class="node">
<title>node_79</title>
<polygon fill="none" stroke="black" points="218.5,-0.5 218.5,-36.5 409.5,-36.5 409.5,-0.5 218.5,-0.5"/>
<polygon fill="none" stroke="black" points="230,-7.5 230,-28.5 309,-28.5 309,-7.5 230,-7.5"/>
<text text-anchor="start" x="233" y="-14.3" font-family="Times,serif" font-size="14.00">Jorge Luis</text>
<polygon fill="none" stroke="black" points="311,-7.5 311,-28.5 399,-28.5 399,-7.5 311,-7.5"/>
<text text-anchor="start" x="314" y="-14.3" font-family="Times,serif" font-size="14.00">Juan Carlos</text>
<polygon fill="none" stroke="black" points="226.5,-5 226.5,-32 401.5,-32 401.5,-5 226.5,-5"/>
</g>
<!-- node_16&#45;&gt;node_79 -->
<g id="edge2" class="edge">
<title>node_16&#45;&gt;node_79</title>
<path fill="none" stroke="black" d="M421.23,-73.49C402.01,-63.82 377.74,-51.6 357.15,-41.23"/>
<polygon fill="black" stroke="black" points="358.49,-37.99 347.99,-36.61 355.34,-44.24 358.49,-37.99"/>
</g>
<!-- node_14 -->
<g id="node5" class="node">
<title>node_14</title>
<polygon fill="none" stroke="black" points="428,-0.5 428,-36.5 764,-36.5 764,-0.5 428,-0.5"/>
<polygon fill="none" stroke="black" points="439,-7.5 439,-28.5 542,-28.5 542,-7.5 439,-7.5"/>
<text text-anchor="start" x="442" y="-14.3" font-family="Times,serif" font-size="14.00">Sofia Vergara</text>
<polygon fill="none" stroke="black" points="544,-7.5 544,-28.5 630,-28.5 630,-7.5 544,-7.5"/>
<text text-anchor="start" x="547" y="-14.3" font-family="Times,serif" font-size="14.00">Jose Carlos</text>
<polygon fill="none" stroke="black" points="632,-7.5 632,-28.5 753,-28.5 753,-7.5 632,-7.5"/>
<text text-anchor="start" x="635" y="-14.3" font-family="Times,serif" font-size="14.00">Maria Fernanda</text>
<polygon fill="none" stroke="black" points="436,-5 436,-32 756,-32 756,-5 436,-5"/>
</g>
<!-- node_16&#45;&gt;node_14 -->
<g id="edge3" class="edge">
<title>node_16&#45;&gt;node_14</title>
<path fill="none" stroke="black" d="M488.77,-73.49C507.99,-63.82 532.26,-51.6 552.85,-41.23"/>
<polygon fill="black" stroke="black" points="554.66,-44.24 562.01,-36.61 551.51,-37.99 554.66,-44.24"/>
</g>
<!-- node_43 -->
<g id="node7" class="node">
<title>node_43</title>
<polygon fill="none" stroke="black" points="782,-0.5 782,-36.5 1234,-36.5 1234,-0.5 782,-0.5"/>
<polygon fill="none" stroke="black" points="793,-7.5 793,-28.5 920,-28.5 920,-7.5 793,-7.5"/>
<text text-anchor="start" x="796" y="-14.3" font-family="Times,serif" font-size="14.00">Carolina Lucidna</text>
<polygon fill="none" stroke="black" points="922,-7.5 922,-28.5 1029,-28.5 1029,-7.5 922,-7.5"/>
<text text-anchor="start" x="925" y="-14.3" font-family="Times,serif" font-size="14.00">Carlos Andres</text>
<polygon fill="none" stroke="black" points="1031,-7.5 1031,-28.5 1130,-28.5 1130,-7.5 1031,-7.5"/>
<text text-anchor="start" x="1034" y="-14.3" font-family="Times,serif" font-size="14.00">Gilberto Jose</text>
<polygon fill="none" stroke="black" points="1132,-7.5 1132,-28.5 1223,-28.5 1223,-7.5 1132,-7.5"/>
<text text-anchor="start" x="1135" y="-14.3" font-family="Times,serif" font-size="14.00">Jesus Maria</text>
<polygon fill="none" stroke="black" points="790,-5 790,-32 1226,-32 1226,-5 790,-5"/>
</g>
<!-- node_78&#45;&gt;node_43 -->
<g id="edge5" class="edge">
<title>node_78&#45;&gt;node_43</title>
<path fill="none" stroke="black" d="M1160.86,-73.49C1132.35,-63.42 1096.05,-50.6 1065.98,-39.98"/>
<polygon fill="black" stroke="black" points="1067.04,-36.64 1056.45,-36.61 1064.71,-43.24 1067.04,-36.64"/>
</g>
<!-- node_27 -->
<g id="node8" class="node">
<title>node_27</title>
<polygon fill="none" stroke="black" points="1252,-0.5 1252,-36.5 1570,-36.5 1570,-0.5 1252,-0.5"/>
<polygon fill="none" stroke="black" points="1263,-7.5 1263,-28.5 1363,-28.5 1363,-7.5 1263,-7.5"/>
<text text-anchor="start" x="1266" y="-14.3" font-family="Times,serif" font-size="14.00">Uriel Bartolo</text>
<polygon fill="none" stroke="black" points="1365,-7.5 1365,-28.5 1466,-28.5 1466,-7.5 1365,-7.5"/>
<text text-anchor="start" x="1368" y="-14.3" font-family="Times,serif" font-size="14.00">Juanito Perez</text>
<polygon fill="none" stroke="black" points="1468,-7.5 1468,-28.5 1559,-28.5 1559,-7.5 1468,-7.5"/>
<text text-anchor="start" x="1471" y="-14.3" font-family="Times,serif" font-size="14.00">Luisa Maria</text>
<polygon fill="none" stroke="black" points="1260,-5 1260,-32 1562,-32 1562,-5 1260,-5"/>
</g>
<!-- node_78&#45;&gt;node_27 -->
<g id="edge6" class="edge">
<title>node_78&#45;&gt;node_27</title>
<path fill="none" stroke="black" d="M1257.38,-73.49C1286.03,-63.42 1322.51,-50.6 1352.74,-39.98"/>
<polygon fill="black" stroke="black" points="1354.04,-43.23 1362.31,-36.61 1351.72,-36.63 1354.04,-43.23"/>
</g>
<!-- node_55 -->
<g id="node9" class="node">
<title>node_55</title>
<polygon fill="none" stroke="black" points="1588,-0.5 1588,-36.5 1822,-36.5 1822,-0.5 1588,-0.5"/>
<polygon fill="none" stroke="black" points="1599,-7.5 1599,-28.5 1704,-28.5 1704,-7.5 1599,-7.5"/>
<text text-anchor="start" x="1602" y="-14.3" font-family="Times,serif" font-size="14.00">Andres Felipe</text>
<polygon fill="none" stroke="black" points="1706,-7.5 1706,-28.5 1811,-28.5 1811,-7.5 1706,-7.5"/>
<text text-anchor="start" x="1709" y="-14.3" font-family="Times,serif" font-size="14.00">Pablo Ricardo</text>
<polygon fill="none" stroke="black" points="1596,-5 1596,-32 1814,-32 1814,-5 1596,-5"/>
</g>
<!-- node_78&#45;&gt;node_55 -->
<g id="edge7" class="edge">
<title>node_78&#45;&gt;node_55</title>
<path fill="none" stroke="black" d="M1327.8,-73.49C1403.09,-62.72 1500.43,-48.78 1577.36,-37.77"/>
<polygon fill="black" stroke="black" points="1578.19,-41.19 1587.59,-36.31 1577.2,-34.26 1578.19,-41.19"/>
</g>
</g>
</svg>
