<?xml version="1.0" encoding="UTF-8" standalone="no"?>
<!DOCTYPE svg PUBLIC "-//W3C//DTD SVG 1.1//EN"
 "http://www.w3.org/Graphics/SVG/1.1/DTD/svg11.dtd">
<!-- Generated by graphviz version 2.43.0 (0)
 -->
<!-- Title: image_tree_and_subtree Pages: 1 -->
<svg width="345pt" height="692pt"
 viewBox="0.00 0.00 345.39 692.00" xmlns="http://www.w3.org/2000/svg" xmlns:xlink="http://www.w3.org/1999/xlink">
<g id="graph0" class="graph" transform="scale(1 1) rotate(0) translate(4 688)">
<title>image_tree_and_subtree</title>
<polygon fill="white" stroke="transparent" points="-4,4 -4,-688 341.39,-688 341.39,4 -4,4"/>
<!-- img_node_3 -->
<g id="node1" class="node">
<title>img_node_3</title>
<ellipse fill="none" stroke="black" cx="85.35" cy="-666" rx="38.19" ry="18"/>
<text text-anchor="middle" x="85.35" y="-662.3" font-family="Times,serif" font-size="14.00">img_3</text>
</g>
<!-- img_node_2 -->
<g id="node2" class="node">
<title>img_node_2</title>
<ellipse fill="none" stroke="black" cx="38.35" cy="-594" rx="38.19" ry="18"/>
<text text-anchor="middle" x="38.35" y="-590.3" font-family="Times,serif" font-size="14.00">img_2</text>
</g>
<!-- img_node_3&#45;&gt;img_node_2 -->
<g id="edge1" class="edge">
<title>img_node_3&#45;&gt;img_node_2</title>
<path fill="none" stroke="black" d="M74.21,-648.41C68.47,-639.87 61.36,-629.28 54.99,-619.79"/>
<polygon fill="black" stroke="black" points="57.89,-617.82 49.4,-611.47 52.07,-621.72 57.89,-617.82"/>
</g>
<!-- img_node_5 -->
<g id="node3" class="node">
<title>img_node_5</title>
<ellipse fill="none" stroke="black" cx="133.35" cy="-594" rx="38.19" ry="18"/>
<text text-anchor="middle" x="133.35" y="-590.3" font-family="Times,serif" font-size="14.00">img_5</text>
</g>
<!-- img_node_3&#45;&gt;img_node_5 -->
<g id="edge2" class="edge">
<title>img_node_3&#45;&gt;img_node_5</title>
<path fill="none" stroke="black" d="M96.48,-648.76C102.33,-640.23 109.63,-629.58 116.19,-620.02"/>
<polygon fill="black" stroke="black" points="119.17,-621.86 121.94,-611.63 113.4,-617.9 119.17,-621.86"/>
</g>
<!-- img_node_4 -->
<g id="node4" class="node">
<title>img_node_4</title>
<ellipse fill="none" stroke="black" cx="86.35" cy="-522" rx="38.19" ry="18"/>
<text text-anchor="middle" x="86.35" y="-518.3" font-family="Times,serif" font-size="14.00">img_4</text>
</g>
<!-- img_node_5&#45;&gt;img_node_4 -->
<g id="edge3" class="edge">
<title>img_node_5&#45;&gt;img_node_4</title>
<path fill="none" stroke="black" d="M122.21,-576.41C116.47,-567.87 109.36,-557.28 102.99,-547.79"/>
<polygon fill="black" stroke="black" points="105.89,-545.82 97.4,-539.47 100.07,-549.72 105.89,-545.82"/>
</g>
<!-- img_node_6 -->
<g id="node5" class="node">
<title>img_node_6</title>
<ellipse fill="none" stroke="black" cx="181.35" cy="-522" rx="38.19" ry="18"/>
<text text-anchor="middle" x="181.35" y="-518.3" font-family="Times,serif" font-size="14.00">img_6</text>
</g>
<!-- img_node_5&#45;&gt;img_node_6 -->
<g id="edge4" class="edge">
<title>img_node_5&#45;&gt;img_node_6</title>
<path fill="none" stroke="black" d="M144.48,-576.76C150.33,-568.23 157.63,-557.58 164.19,-548.02"/>
<polygon fill="black" stroke="black" points="167.17,-549.86 169.94,-539.63 161.4,-545.9 167.17,-549.86"/>
</g>
<!-- img_node_7 -->
<g id="node6" class="node">
<title>img_node_7</title>
<ellipse fill="none" stroke="black" cx="131.35" cy="-450" rx="38.19" ry="18"/>
<text text-anchor="middle" x="131.35" y="-446.3" font-family="Times,serif" font-size="14.00">img_7</text>
</g>
<!-- img_node_6&#45;&gt;img_node_7 -->
<g id="edge5" class="edge">
<title>img_node_6&#45;&gt;img_node_7</title>
<path fill="none" stroke="black" d="M169.75,-504.76C163.65,-496.23 156.05,-485.58 149.22,-476.02"/>
<polygon fill="black" stroke="black" points="151.89,-473.74 143.23,-467.63 146.19,-477.81 151.89,-473.74"/>
</g>
<!-- layer_6 -->
<g id="node7" class="node">
<title>layer_6</title>
<ellipse fill="none" stroke="black" cx="232.35" cy="-450" rx="44.39" ry="18"/>
<text text-anchor="middle" x="232.35" y="-446.3" font-family="Times,serif" font-size="14.00">layer_6</text>
</g>
<!-- img_node_6&#45;&gt;layer_6 -->
<g id="edge6" class="edge">
<title>img_node_6&#45;&gt;layer_6</title>
<path fill="none" stroke="black" d="M193.18,-504.76C199.46,-496.14 207.31,-485.36 214.33,-475.73"/>
<polygon fill="black" stroke="black" points="217.17,-477.78 220.23,-467.63 211.51,-473.65 217.17,-477.78"/>
</g>
<!-- layer_5 -->
<g id="node8" class="node">
<title>layer_5</title>
<ellipse fill="none" stroke="black" cx="179.35" cy="-378" rx="44.39" ry="18"/>
<text text-anchor="middle" x="179.35" y="-374.3" font-family="Times,serif" font-size="14.00">layer_5</text>
</g>
<!-- layer_6&#45;&gt;layer_5 -->
<g id="edge7" class="edge">
<title>layer_6&#45;&gt;layer_5</title>
<path fill="none" stroke="black" d="M219.79,-432.41C213.25,-423.78 205.14,-413.06 197.89,-403.5"/>
<polygon fill="black" stroke="black" points="200.64,-401.33 191.82,-395.47 195.06,-405.56 200.64,-401.33"/>
</g>
<!-- layer_7 -->
<g id="node14" class="node">
<title>layer_7</title>
<ellipse fill="none" stroke="black" cx="285.35" cy="-378" rx="44.39" ry="18"/>
<text text-anchor="middle" x="285.35" y="-374.3" font-family="Times,serif" font-size="14.00">layer_7</text>
</g>
<!-- layer_6&#45;&gt;layer_7 -->
<g id="edge13" class="edge">
<title>layer_6&#45;&gt;layer_7</title>
<path fill="none" stroke="black" d="M244.91,-432.41C251.44,-423.78 259.56,-413.06 266.8,-403.5"/>
<polygon fill="black" stroke="black" points="269.63,-405.56 272.88,-395.47 264.05,-401.33 269.63,-405.56"/>
</g>
<!-- layer_4 -->
<g id="node9" class="node">
<title>layer_4</title>
<ellipse fill="none" stroke="black" cx="179.35" cy="-306" rx="44.39" ry="18"/>
<text text-anchor="middle" x="179.35" y="-302.3" font-family="Times,serif" font-size="14.00">layer_4</text>
</g>
<!-- layer_5&#45;&gt;layer_4 -->
<g id="edge8" class="edge">
<title>layer_5&#45;&gt;layer_4</title>
<path fill="none" stroke="black" d="M179.35,-359.7C179.35,-351.98 179.35,-342.71 179.35,-334.11"/>
<polygon fill="black" stroke="black" points="182.85,-334.1 179.35,-324.1 175.85,-334.1 182.85,-334.1"/>
</g>
<!-- layer_3 -->
<g id="node10" class="node">
<title>layer_3</title>
<ellipse fill="none" stroke="black" cx="178.35" cy="-234" rx="44.39" ry="18"/>
<text text-anchor="middle" x="178.35" y="-230.3" font-family="Times,serif" font-size="14.00">layer_3</text>
</g>
<!-- layer_4&#45;&gt;layer_3 -->
<g id="edge9" class="edge">
<title>layer_4&#45;&gt;layer_3</title>
<path fill="none" stroke="black" d="M179.1,-287.7C178.99,-279.98 178.86,-270.71 178.73,-262.11"/>
<polygon fill="black" stroke="black" points="182.23,-262.05 178.59,-252.1 175.23,-262.15 182.23,-262.05"/>
</g>
<!-- layer_2 -->
<g id="node11" class="node">
<title>layer_2</title>
<ellipse fill="none" stroke="black" cx="175.35" cy="-162" rx="44.39" ry="18"/>
<text text-anchor="middle" x="175.35" y="-158.3" font-family="Times,serif" font-size="14.00">layer_2</text>
</g>
<!-- layer_3&#45;&gt;layer_2 -->
<g id="edge10" class="edge">
<title>layer_3&#45;&gt;layer_2</title>
<path fill="none" stroke="black" d="M177.61,-215.7C177.27,-207.98 176.88,-198.71 176.51,-190.11"/>
<polygon fill="black" stroke="black" points="180,-189.95 176.08,-180.1 173.01,-190.25 180,-189.95"/>
</g>
<!-- layer_1 -->
<g id="node12" class="node">
<title>layer_1</title>
<ellipse fill="none" stroke="black" cx="175.35" cy="-90" rx="44.39" ry="18"/>
<text text-anchor="middle" x="175.35" y="-86.3" font-family="Times,serif" font-size="14.00">layer_1</text>
</g>
<!-- layer_2&#45;&gt;layer_1 -->
<g id="edge11" class="edge">
<title>layer_2&#45;&gt;layer_1</title>
<path fill="none" stroke="black" d="M175.35,-143.7C175.35,-135.98 175.35,-126.71 175.35,-118.11"/>
<polygon fill="black" stroke="black" points="178.85,-118.1 175.35,-108.1 171.85,-118.1 178.85,-118.1"/>
</g>
<!-- layer_0 -->
<g id="node13" class="node">
<title>layer_0</title>
<ellipse fill="none" stroke="black" cx="175.35" cy="-18" rx="44.39" ry="18"/>
<text text-anchor="middle" x="175.35" y="-14.3" font-family="Times,serif" font-size="14.00">layer_0</text>
</g>
<!-- layer_1&#45;&gt;layer_0 -->
<g id="edge12" class="edge">
<title>layer_1&#45;&gt;layer_0</title>
<path fill="none" stroke="black" d="M175.35,-71.7C175.35,-63.98 175.35,-54.71 175.35,-46.11"/>
<polygon fill="black" stroke="black" points="178.85,-46.1 175.35,-36.1 171.85,-46.1 178.85,-46.1"/>
</g>
<!-- layer_8 -->
<g id="node15" class="node">
<title>layer_8</title>
<ellipse fill="none" stroke="black" cx="286.35" cy="-306" rx="44.39" ry="18"/>
<text text-anchor="middle" x="286.35" y="-302.3" font-family="Times,serif" font-size="14.00">layer_8</text>
</g>
<!-- layer_7&#45;&gt;layer_8 -->
<g id="edge14" class="edge">
<title>layer_7&#45;&gt;layer_8</title>
<path fill="none" stroke="black" d="M285.59,-359.7C285.7,-351.98 285.84,-342.71 285.96,-334.11"/>
<polygon fill="black" stroke="black" points="289.46,-334.15 286.1,-324.1 282.46,-334.05 289.46,-334.15"/>
</g>
<!-- layer_9 -->
<g id="node16" class="node">
<title>layer_9</title>
<ellipse fill="none" stroke="black" cx="286.35" cy="-234" rx="44.39" ry="18"/>
<text text-anchor="middle" x="286.35" y="-230.3" font-family="Times,serif" font-size="14.00">layer_9</text>
</g>
<!-- layer_8&#45;&gt;layer_9 -->
<g id="edge15" class="edge">
<title>layer_8&#45;&gt;layer_9</title>
<path fill="none" stroke="black" d="M286.35,-287.7C286.35,-279.98 286.35,-270.71 286.35,-262.11"/>
<polygon fill="black" stroke="black" points="289.85,-262.1 286.35,-252.1 282.85,-262.1 289.85,-262.1"/>
</g>
<!-- layer_10 -->
<g id="node17" class="node">
<title>layer_10</title>
<ellipse fill="none" stroke="black" cx="287.35" cy="-162" rx="50.09" ry="18"/>
<text text-anchor="middle" x="287.35" y="-158.3" font-family="Times,serif" font-size="14.00">layer_10</text>
</g>
<!-- layer_9&#45;&gt;layer_10 -->
<g id="edge16" class="edge">
<title>layer_9&#45;&gt;layer_10</title>
<path fill="none" stroke="black" d="M286.59,-215.7C286.7,-207.98 286.84,-198.71 286.96,-190.11"/>
<polygon fill="black" stroke="black" points="290.46,-190.15 287.1,-180.1 283.46,-190.05 290.46,-190.15"/>
</g>
<!-- layer_11 -->
<g id="node18" class="node">
<title>layer_11</title>
<ellipse fill="none" stroke="black" cx="287.35" cy="-90" rx="50.09" ry="18"/>
<text text-anchor="middle" x="287.35" y="-86.3" font-family="Times,serif" font-size="14.00">layer_11</text>
</g>
<!-- layer_10&#45;&gt;layer_11 -->
<g id="edge17" class="edge">
<title>layer_10&#45;&gt;layer_11</title>
<path fill="none" stroke="black" d="M287.35,-143.7C287.35,-135.98 287.35,-126.71 287.35,-118.11"/>
<polygon fill="black" stroke="black" points="290.85,-118.1 287.35,-108.1 283.85,-118.1 290.85,-118.1"/>
</g>
<!-- layer_12 -->
<g id="node19" class="node">
<title>layer_12</title>
<ellipse fill="none" stroke="black" cx="287.35" cy="-18" rx="50.09" ry="18"/>
<text text-anchor="middle" x="287.35" y="-14.3" font-family="Times,serif" font-size="14.00">layer_12</text>
</g>
<!-- layer_11&#45;&gt;layer_12 -->
<g id="edge18" class="edge">
<title>layer_11&#45;&gt;layer_12</title>
<path fill="none" stroke="black" d="M287.35,-71.7C287.35,-63.98 287.35,-54.71 287.35,-46.11"/>
<polygon fill="black" stroke="black" points="290.85,-46.1 287.35,-36.1 283.85,-46.1 290.85,-46.1"/>
</g>
</g>
</svg>
