<?xml version="1.0" encoding="UTF-8" standalone="no"?>
<!DOCTYPE svg PUBLIC "-//W3C//DTD SVG 1.1//EN"
 "http://www.w3.org/Graphics/SVG/1.1/DTD/svg11.dtd">
<!-- Generated by graphviz version 2.43.0 (0)
 -->
<!-- Title: image Pages: 1 -->
<svg width="368pt" height="564pt"
 viewBox="0.00 0.00 368.00 564.00" xmlns="http://www.w3.org/2000/svg" xmlns:xlink="http://www.w3.org/1999/xlink">
<g id="graph0" class="graph" transform="scale(1 1) rotate(0) translate(4 560)">
<title>image</title>
<polygon fill="white" stroke="transparent" points="-4,4 -4,-560 364,-560 364,4 -4,4"/>
<!-- table -->
<g id="node1" class="node">
<title>table</title>
<polygon fill="#424242" stroke="transparent" points="240,-496 240,-500 244,-500 244,-496 240,-496"/>
<polygon fill="#424242" stroke="transparent" points="244,-496 244,-500 248,-500 248,-496 244,-496"/>
<polygon fill="#424242" stroke="transparent" points="248,-496 248,-500 252,-500 252,-496 248,-496"/>
<polygon fill="#424242" stroke="transparent" points="252,-496 252,-500 256,-500 256,-496 252,-496"/>
<polygon fill="#424242" stroke="transparent" points="256,-496 256,-500 260,-500 260,-496 256,-496"/>
<polygon fill="#424242" stroke="transparent" points="240,-492 240,-496 244,-496 244,-492 240,-492"/>
<polygon fill="#424242" stroke="transparent" points="244,-492 244,-496 248,-496 248,-492 244,-492"/>
<polygon fill="#424242" stroke="transparent" points="248,-492 248,-496 252,-496 252,-492 248,-492"/>
<polygon fill="#424242" stroke="transparent" points="252,-492 252,-496 256,-496 256,-492 252,-492"/>
<polygon fill="#424242" stroke="transparent" points="256,-492 256,-496 260,-496 260,-492 256,-492"/>
<polygon fill="#424242" stroke="transparent" points="240,-488 240,-492 244,-492 244,-488 240,-488"/>
<polygon fill="#424242" stroke="transparent" points="244,-488 244,-492 248,-492 248,-488 244,-488"/>
<polygon fill="#424242" stroke="transparent" points="248,-488 248,-492 252,-492 252,-488 248,-488"/>
<polygon fill="#424242" stroke="transparent" points="252,-488 252,-492 256,-492 256,-488 252,-488"/>
<polygon fill="#424242" stroke="transparent" points="256,-488 256,-492 260,-492 260,-488 256,-488"/>
<polygon fill="#424242" stroke="transparent" points="240,-484 240,-488 244,-488 244,-484 240,-484"/>
<polygon fill="#424242" stroke="transparent" points="244,-484 244,-488 248,-488 248,-484 244,-484"/>
<polygon fill="#424242" stroke="transparent" points="248,-484 248,-488 252,-488 252,-484 248,-484"/>
<polygon fill="#424242" stroke="transparent" points="252,-484 252,-488 256,-488 256,-484 252,-484"/>
<polygon fill="#424242" stroke="transparent" points="224,-480 224,-484 228,-484 228,-480 224,-480"/>
<polygon fill="#424242" stroke="transparent" points="228,-480 228,-484 232,-484 232,-480 228,-480"/>
<polygon fill="#424242" stroke="transparent" points="232,-480 232,-484 236,-484 236,-480 232,-480"/>
<polygon fill="#424242" stroke="transparent" points="236,-480 236,-484 240,-484 240,-480 236,-480"/>
<polygon fill="#424242" stroke="transparent" points="224,-476 224,-480 228,-480 228,-476 224,-476"/>
<polygon fill="#424242" stroke="transparent" points="228,-476 228,-480 232,-480 232,-476 228,-476"/>
<polygon fill="#424242" stroke="transparent" points="232,-476 232,-480 236,-480 236,-476 232,-476"/>
<polygon fill="#424242" stroke="transparent" points="236,-476 236,-480 240,-480 240,-476 236,-476"/>
<polygon fill="#424242" stroke="transparent" points="224,-472 224,-476 228,-476 228,-472 224,-472"/>
<polygon fill="#424242" stroke="transparent" points="228,-472 228,-476 232,-476 232,-472 228,-472"/>
<polygon fill="#424242" stroke="transparent" points="232,-472 232,-476 236,-476 236,-472 232,-472"/>
<polygon fill="#424242" stroke="transparent" points="236,-472 236,-476 240,-476 240,-472 236,-472"/>
<polygon fill="#424242" stroke="transparent" points="224,-468 224,-472 228,-472 228,-468 224,-468"/>
<polygon fill="#424242" stroke="transparent" points="228,-468 228,-472 232,-472 232,-468 228,-468"/>
<polygon fill="#424242" stroke="transparent" points="232,-468 232,-472 236,-472 236,-468 232,-468"/>
<polygon fill="#424242" stroke="transparent" points="236,-468 236,-472 240,-472 240,-468 236,-468"/>
<polygon fill="#424242" stroke="transparent" points="224,-464 224,-468 228,-468 228,-464 224,-464"/>
<polygon fill="#424242" stroke="transparent" points="228,-464 228,-468 232,-468 232,-464 228,-464"/>
<polygon fill="#424242" stroke="transparent" points="232,-464 232,-468 236,-468 236,-464 232,-464"/>
<polygon fill="#424242" stroke="transparent" points="236,-464 236,-468 240,-468 240,-464 236,-464"/>
<polygon fill="#424242" stroke="transparent" points="224,-460 224,-464 228,-464 228,-460 224,-460"/>
<polygon fill="#424242" stroke="transparent" points="228,-460 228,-464 232,-464 232,-460 228,-460"/>
<polygon fill="#424242" stroke="transparent" points="232,-460 232,-464 236,-464 236,-460 232,-460"/>
<polygon fill="#424242" stroke="transparent" points="236,-460 236,-464 240,-464 240,-460 236,-460"/>
<polygon fill="#424242" stroke="transparent" points="224,-456 224,-460 228,-460 228,-456 224,-456"/>
<polygon fill="#424242" stroke="transparent" points="228,-456 228,-460 232,-460 232,-456 228,-456"/>
<polygon fill="#424242" stroke="transparent" points="232,-456 232,-460 236,-460 236,-456 232,-456"/>
<polygon fill="#424242" stroke="transparent" points="236,-456 236,-460 240,-460 240,-456 236,-456"/>
<polygon fill="#424242" stroke="transparent" points="92,-112 92,-116 96,-116 96,-112 92,-112"/>
<polygon fill="#424242" stroke="transparent" points="96,-112 96,-116 100,-116 100,-112 96,-112"/>
<polygon fill="#424242" stroke="transparent" points="100,-112 100,-116 104,-116 104,-112 100,-112"/>
<polygon fill="#424242" stroke="transparent" points="104,-112 104,-116 108,-116 108,-112 104,-112"/>
<polygon fill="#ffeb00" stroke="transparent" points="224,-112 224,-116 228,-116 228,-112 224,-112"/>
<polygon fill="#ffeb00" stroke="transparent" points="228,-112 228,-116 232,-116 232,-112 228,-112"/>
<polygon fill="#ffeb00" stroke="transparent" points="232,-112 232,-116 236,-116 236,-112 232,-112"/>
<polygon fill="#ffeb00" stroke="transparent" points="236,-112 236,-116 240,-116 240,-112 236,-112"/>
<polygon fill="#ffeb00" stroke="transparent" points="240,-112 240,-116 244,-116 244,-112 240,-112"/>
<polygon fill="#ffeb00" stroke="transparent" points="244,-112 244,-116 248,-116 248,-112 244,-112"/>
<polygon fill="#ffeb00" stroke="transparent" points="248,-112 248,-116 252,-116 252,-112 248,-112"/>
<polygon fill="#ffeb00" stroke="transparent" points="252,-112 252,-116 256,-116 256,-112 252,-112"/>
<polygon fill="#ffeb00" stroke="transparent" points="328,-112 328,-116 332,-116 332,-112 328,-112"/>
<polygon fill="#ffeb00" stroke="transparent" points="332,-112 332,-116 336,-116 336,-112 332,-112"/>
<polygon fill="#424242" stroke="transparent" points="92,-108 92,-112 96,-112 96,-108 92,-108"/>
<polygon fill="#424242" stroke="transparent" points="96,-108 96,-112 100,-112 100,-108 96,-108"/>
<polygon fill="#424242" stroke="transparent" points="100,-108 100,-112 104,-112 104,-108 100,-108"/>
<polygon fill="#424242" stroke="transparent" points="104,-108 104,-112 108,-112 108,-108 104,-108"/>
<polygon fill="#ffeb00" stroke="transparent" points="224,-108 224,-112 228,-112 228,-108 224,-108"/>
<polygon fill="#ffeb00" stroke="transparent" points="228,-108 228,-112 232,-112 232,-108 228,-108"/>
<polygon fill="#ffeb00" stroke="transparent" points="232,-108 232,-112 236,-112 236,-108 232,-108"/>
<polygon fill="#ffeb00" stroke="transparent" points="236,-108 236,-112 240,-112 240,-108 236,-108"/>
<polygon fill="#ffeb00" stroke="transparent" points="240,-108 240,-112 244,-112 244,-108 240,-108"/>
<polygon fill="#ffeb00" stroke="transparent" points="244,-108 244,-112 248,-112 248,-108 244,-108"/>
<polygon fill="#ffeb00" stroke="transparent" points="248,-108 248,-112 252,-112 252,-108 248,-108"/>
<polygon fill="#ffeb00" stroke="transparent" points="252,-108 252,-112 256,-112 256,-108 252,-108"/>
<polygon fill="#ffeb00" stroke="transparent" points="328,-108 328,-112 332,-112 332,-108 328,-108"/>
<polygon fill="#ffeb00" stroke="transparent" points="332,-108 332,-112 336,-112 336,-108 332,-108"/>
<polygon fill="#424242" stroke="transparent" points="92,-104 92,-108 96,-108 96,-104 92,-104"/>
<polygon fill="#424242" stroke="transparent" points="96,-104 96,-108 100,-108 100,-104 96,-104"/>
<polygon fill="#424242" stroke="transparent" points="100,-104 100,-108 104,-108 104,-104 100,-104"/>
<polygon fill="#424242" stroke="transparent" points="104,-104 104,-108 108,-108 108,-104 104,-104"/>
<polygon fill="#ffeb00" stroke="transparent" points="224,-104 224,-108 228,-108 228,-104 224,-104"/>
<polygon fill="#ffeb00" stroke="transparent" points="228,-104 228,-108 232,-108 232,-104 228,-104"/>
<polygon fill="#ffeb00" stroke="transparent" points="232,-104 232,-108 236,-108 236,-104 232,-104"/>
<polygon fill="#ffeb00" stroke="transparent" points="236,-104 236,-108 240,-108 240,-104 236,-104"/>
<polygon fill="#ffeb00" stroke="transparent" points="240,-104 240,-108 244,-108 244,-104 240,-104"/>
<polygon fill="#ffeb00" stroke="transparent" points="244,-104 244,-108 248,-108 248,-104 244,-104"/>
<polygon fill="#ffeb00" stroke="transparent" points="248,-104 248,-108 252,-108 252,-104 248,-104"/>
<polygon fill="#ffeb00" stroke="transparent" points="252,-104 252,-108 256,-108 256,-104 252,-104"/>
<polygon fill="#ffeb00" stroke="transparent" points="328,-104 328,-108 332,-108 332,-104 328,-104"/>
<polygon fill="#ffeb00" stroke="transparent" points="332,-104 332,-108 336,-108 336,-104 332,-104"/>
<polygon fill="#424242" stroke="transparent" points="92,-100 92,-104 96,-104 96,-100 92,-100"/>
<polygon fill="#424242" stroke="transparent" points="96,-100 96,-104 100,-104 100,-100 96,-100"/>
<polygon fill="#424242" stroke="transparent" points="100,-100 100,-104 104,-104 104,-100 100,-100"/>
<polygon fill="#424242" stroke="transparent" points="104,-100 104,-104 108,-104 108,-100 104,-100"/>
<polygon fill="#ffeb00" stroke="transparent" points="224,-100 224,-104 228,-104 228,-100 224,-100"/>
<polygon fill="#ffeb00" stroke="transparent" points="228,-100 228,-104 232,-104 232,-100 228,-100"/>
<polygon fill="#ffeb00" stroke="transparent" points="232,-100 232,-104 236,-104 236,-100 232,-100"/>
<polygon fill="#ffeb00" stroke="transparent" points="236,-100 236,-104 240,-104 240,-100 236,-100"/>
<polygon fill="#ffeb00" stroke="transparent" points="240,-100 240,-104 244,-104 244,-100 240,-100"/>
<polygon fill="#ffeb00" stroke="transparent" points="244,-100 244,-104 248,-104 248,-100 244,-100"/>
<polygon fill="#ffeb00" stroke="transparent" points="248,-100 248,-104 252,-104 252,-100 248,-100"/>
<polygon fill="#ffeb00" stroke="transparent" points="252,-100 252,-104 256,-104 256,-100 252,-100"/>
<polygon fill="#ffeb00" stroke="transparent" points="328,-100 328,-104 332,-104 332,-100 328,-100"/>
<polygon fill="#ffeb00" stroke="transparent" points="332,-100 332,-104 336,-104 336,-100 332,-100"/>
<polygon fill="#424242" stroke="transparent" points="76,-96 76,-100 80,-100 80,-96 76,-96"/>
<polygon fill="#424242" stroke="transparent" points="80,-96 80,-100 84,-100 84,-96 80,-96"/>
<polygon fill="#424242" stroke="transparent" points="84,-96 84,-100 88,-100 88,-96 84,-96"/>
<polygon fill="#424242" stroke="transparent" points="88,-96 88,-100 92,-100 92,-96 88,-96"/>
<polygon fill="#424242" stroke="transparent" points="136,-96 136,-100 140,-100 140,-96 136,-96"/>
<polygon fill="#424242" stroke="transparent" points="140,-96 140,-100 144,-100 144,-96 140,-96"/>
<polygon fill="#424242" stroke="transparent" points="144,-96 144,-100 148,-100 148,-96 144,-96"/>
<polygon fill="#424242" stroke="transparent" points="148,-96 148,-100 152,-100 152,-96 148,-96"/>
<polygon fill="#ff8b00" stroke="transparent" points="224,-96 224,-100 228,-100 228,-96 224,-96"/>
<polygon fill="#ff8b00" stroke="transparent" points="228,-96 228,-100 232,-100 232,-96 228,-96"/>
<polygon fill="#ff8b00" stroke="transparent" points="232,-96 232,-100 236,-100 236,-96 232,-96"/>
<polygon fill="#ff8b00" stroke="transparent" points="236,-96 236,-100 240,-100 240,-96 236,-96"/>
<polygon fill="#ffeb00" stroke="transparent" points="240,-96 240,-100 244,-100 244,-96 240,-96"/>
<polygon fill="#ffeb00" stroke="transparent" points="244,-96 244,-100 248,-100 248,-96 244,-96"/>
<polygon fill="#ffeb00" stroke="transparent" points="248,-96 248,-100 252,-100 252,-96 248,-96"/>
<polygon fill="#ffeb00" stroke="transparent" points="252,-96 252,-100 256,-100 256,-96 252,-96"/>
<polygon fill="#ff8b00" stroke="transparent" points="328,-96 328,-100 332,-100 332,-96 328,-96"/>
<polygon fill="#ff8b00" stroke="transparent" points="332,-96 332,-100 336,-100 336,-96 332,-96"/>
<polygon fill="#424242" stroke="transparent" points="76,-92 76,-96 80,-96 80,-92 76,-92"/>
<polygon fill="#424242" stroke="transparent" points="80,-92 80,-96 84,-96 84,-92 80,-92"/>
<polygon fill="#424242" stroke="transparent" points="84,-92 84,-96 88,-96 88,-92 84,-92"/>
<polygon fill="#424242" stroke="transparent" points="88,-92 88,-96 92,-96 92,-92 88,-92"/>
<polygon fill="#424242" stroke="transparent" points="136,-92 136,-96 140,-96 140,-92 136,-92"/>
<polygon fill="#424242" stroke="transparent" points="140,-92 140,-96 144,-96 144,-92 140,-92"/>
<polygon fill="#424242" stroke="transparent" points="144,-92 144,-96 148,-96 148,-92 144,-92"/>
<polygon fill="#424242" stroke="transparent" points="148,-92 148,-96 152,-96 152,-92 148,-92"/>
<polygon fill="#ff8b00" stroke="transparent" points="224,-92 224,-96 228,-96 228,-92 224,-92"/>
<polygon fill="#ff8b00" stroke="transparent" points="228,-92 228,-96 232,-96 232,-92 228,-92"/>
<polygon fill="#ff8b00" stroke="transparent" points="232,-92 232,-96 236,-96 236,-92 232,-92"/>
<polygon fill="#ff8b00" stroke="transparent" points="236,-92 236,-96 240,-96 240,-92 236,-92"/>
<polygon fill="#ffeb00" stroke="transparent" points="240,-92 240,-96 244,-96 244,-92 240,-92"/>
<polygon fill="#ffeb00" stroke="transparent" points="244,-92 244,-96 248,-96 248,-92 244,-92"/>
<polygon fill="#ffeb00" stroke="transparent" points="248,-92 248,-96 252,-96 252,-92 248,-92"/>
<polygon fill="#ffeb00" stroke="transparent" points="252,-92 252,-96 256,-96 256,-92 252,-92"/>
<polygon fill="#ff8b00" stroke="transparent" points="328,-92 328,-96 332,-96 332,-92 328,-92"/>
<polygon fill="#ff8b00" stroke="transparent" points="332,-92 332,-96 336,-96 336,-92 332,-92"/>
<polygon fill="#424242" stroke="transparent" points="76,-88 76,-92 80,-92 80,-88 76,-88"/>
<polygon fill="#424242" stroke="transparent" points="80,-88 80,-92 84,-92 84,-88 80,-88"/>
<polygon fill="#424242" stroke="transparent" points="84,-88 84,-92 88,-92 88,-88 84,-88"/>
<polygon fill="#424242" stroke="transparent" points="88,-88 88,-92 92,-92 92,-88 88,-88"/>
<polygon fill="#424242" stroke="transparent" points="136,-88 136,-92 140,-92 140,-88 136,-88"/>
<polygon fill="#424242" stroke="transparent" points="140,-88 140,-92 144,-92 144,-88 140,-88"/>
<polygon fill="#424242" stroke="transparent" points="144,-88 144,-92 148,-92 148,-88 144,-88"/>
<polygon fill="#424242" stroke="transparent" points="148,-88 148,-92 152,-92 152,-88 148,-88"/>
<polygon fill="#ff8b00" stroke="transparent" points="224,-88 224,-92 228,-92 228,-88 224,-88"/>
<polygon fill="#ff8b00" stroke="transparent" points="228,-88 228,-92 232,-92 232,-88 228,-88"/>
<polygon fill="#ff8b00" stroke="transparent" points="232,-88 232,-92 236,-92 236,-88 232,-88"/>
<polygon fill="#ff8b00" stroke="transparent" points="236,-88 236,-92 240,-92 240,-88 236,-88"/>
<polygon fill="#ffeb00" stroke="transparent" points="240,-88 240,-92 244,-92 244,-88 240,-88"/>
<polygon fill="#ffeb00" stroke="transparent" points="244,-88 244,-92 248,-92 248,-88 244,-88"/>
<polygon fill="#ffeb00" stroke="transparent" points="248,-88 248,-92 252,-92 252,-88 248,-88"/>
<polygon fill="#ffeb00" stroke="transparent" points="252,-88 252,-92 256,-92 256,-88 252,-88"/>
<polygon fill="#ff8b00" stroke="transparent" points="328,-88 328,-92 332,-92 332,-88 328,-88"/>
<polygon fill="#ff8b00" stroke="transparent" points="332,-88 332,-92 336,-92 336,-88 332,-88"/>
<polygon fill="#424242" stroke="transparent" points="76,-84 76,-88 80,-88 80,-84 76,-84"/>
<polygon fill="#424242" stroke="transparent" points="80,-84 80,-88 84,-88 84,-84 80,-84"/>
<polygon fill="#424242" stroke="transparent" points="84,-84 84,-88 88,-88 88,-84 84,-84"/>
<polygon fill="#424242" stroke="transparent" points="88,-84 88,-88 92,-88 92,-84 88,-84"/>
<polygon fill="#424242" stroke="transparent" points="136,-84 136,-88 140,-88 140,-84 136,-84"/>
<polygon fill="#424242" stroke="transparent" points="140,-84 140,-88 144,-88 144,-84 140,-84"/>
<polygon fill="#424242" stroke="transparent" points="144,-84 144,-88 148,-88 148,-84 144,-84"/>
<polygon fill="#424242" stroke="transparent" points="148,-84 148,-88 152,-88 152,-84 148,-84"/>
<polygon fill="#424242" stroke="transparent" points="60,-80 60,-84 64,-84 64,-80 60,-80"/>
<polygon fill="#424242" stroke="transparent" points="64,-80 64,-84 68,-84 68,-80 64,-80"/>
<polygon fill="#424242" stroke="transparent" points="68,-80 68,-84 72,-84 72,-80 68,-80"/>
<polygon fill="#424242" stroke="transparent" points="72,-80 72,-84 76,-84 76,-80 72,-80"/>
<polygon fill="#424242" stroke="transparent" points="60,-76 60,-80 64,-80 64,-76 60,-76"/>
<polygon fill="#424242" stroke="transparent" points="64,-76 64,-80 68,-80 68,-76 64,-76"/>
<polygon fill="#424242" stroke="transparent" points="68,-76 68,-80 72,-80 72,-76 68,-76"/>
<polygon fill="#424242" stroke="transparent" points="72,-76 72,-80 76,-80 76,-76 72,-76"/>
<polygon fill="#424242" stroke="transparent" points="60,-72 60,-76 64,-76 64,-72 60,-72"/>
<polygon fill="#424242" stroke="transparent" points="64,-72 64,-76 68,-76 68,-72 64,-72"/>
<polygon fill="#424242" stroke="transparent" points="68,-72 68,-76 72,-76 72,-72 68,-72"/>
<polygon fill="#424242" stroke="transparent" points="72,-72 72,-76 76,-76 76,-72 72,-72"/>
<polygon fill="#424242" stroke="transparent" points="60,-68 60,-72 64,-72 64,-68 60,-68"/>
<polygon fill="#424242" stroke="transparent" points="64,-68 64,-72 68,-72 68,-68 64,-68"/>
<polygon fill="#424242" stroke="transparent" points="68,-68 68,-72 72,-72 72,-68 68,-68"/>
<polygon fill="#424242" stroke="transparent" points="72,-68 72,-72 76,-72 76,-68 72,-68"/>
<polygon fill="#424242" stroke="transparent" points="60,-64 60,-68 64,-68 64,-64 60,-64"/>
<polygon fill="#424242" stroke="transparent" points="64,-64 64,-68 68,-68 68,-64 64,-64"/>
<polygon fill="#424242" stroke="transparent" points="68,-64 68,-68 72,-68 72,-64 68,-64"/>
<polygon fill="#424242" stroke="transparent" points="72,-64 72,-68 76,-68 76,-64 72,-64"/>
<polygon fill="#424242" stroke="transparent" points="152,-64 152,-68 156,-68 156,-64 152,-64"/>
<polygon fill="#424242" stroke="transparent" points="156,-64 156,-68 160,-68 160,-64 156,-64"/>
<polygon fill="#424242" stroke="transparent" points="160,-64 160,-68 164,-68 164,-64 160,-64"/>
<polygon fill="#424242" stroke="transparent" points="164,-64 164,-68 168,-68 168,-64 164,-64"/>
<polygon fill="#424242" stroke="transparent" points="168,-64 168,-68 172,-68 172,-64 168,-64"/>
<polygon fill="#424242" stroke="transparent" points="344,-64 344,-68 348,-68 348,-64 344,-64"/>
<polygon fill="#424242" stroke="transparent" points="348,-64 348,-68 352,-68 352,-64 348,-64"/>
<polygon fill="#424242" stroke="transparent" points="60,-60 60,-64 64,-64 64,-60 60,-60"/>
<polygon fill="#424242" stroke="transparent" points="64,-60 64,-64 68,-64 68,-60 64,-60"/>
<polygon fill="#424242" stroke="transparent" points="68,-60 68,-64 72,-64 72,-60 68,-60"/>
<polygon fill="#424242" stroke="transparent" points="72,-60 72,-64 76,-64 76,-60 72,-60"/>
<polygon fill="#424242" stroke="transparent" points="152,-60 152,-64 156,-64 156,-60 152,-60"/>
<polygon fill="#424242" stroke="transparent" points="156,-60 156,-64 160,-64 160,-60 156,-60"/>
<polygon fill="#424242" stroke="transparent" points="160,-60 160,-64 164,-64 164,-60 160,-60"/>
<polygon fill="#424242" stroke="transparent" points="164,-60 164,-64 168,-64 168,-60 164,-60"/>
<polygon fill="#424242" stroke="transparent" points="168,-60 168,-64 172,-64 172,-60 168,-60"/>
<polygon fill="#424242" stroke="transparent" points="344,-60 344,-64 348,-64 348,-60 344,-60"/>
<polygon fill="#424242" stroke="transparent" points="348,-60 348,-64 352,-64 352,-60 348,-60"/>
<polygon fill="#424242" stroke="transparent" points="60,-56 60,-60 64,-60 64,-56 60,-56"/>
<polygon fill="#424242" stroke="transparent" points="64,-56 64,-60 68,-60 68,-56 64,-56"/>
<polygon fill="#424242" stroke="transparent" points="68,-56 68,-60 72,-60 72,-56 68,-56"/>
<polygon fill="#424242" stroke="transparent" points="72,-56 72,-60 76,-60 76,-56 72,-56"/>
<polygon fill="#424242" stroke="transparent" points="152,-56 152,-60 156,-60 156,-56 152,-56"/>
<polygon fill="#424242" stroke="transparent" points="156,-56 156,-60 160,-60 160,-56 156,-56"/>
<polygon fill="#424242" stroke="transparent" points="160,-56 160,-60 164,-60 164,-56 160,-56"/>
<polygon fill="#424242" stroke="transparent" points="164,-56 164,-60 168,-60 168,-56 164,-56"/>
<polygon fill="#424242" stroke="transparent" points="168,-56 168,-60 172,-60 172,-56 168,-56"/>
<polygon fill="#424242" stroke="transparent" points="344,-56 344,-60 348,-60 348,-56 344,-56"/>
<polygon fill="#424242" stroke="transparent" points="348,-56 348,-60 352,-60 352,-56 348,-56"/>
<polygon fill="#424242" stroke="transparent" points="60,-52 60,-56 64,-56 64,-52 60,-52"/>
<polygon fill="#424242" stroke="transparent" points="64,-52 64,-56 68,-56 68,-52 64,-52"/>
<polygon fill="#424242" stroke="transparent" points="68,-52 68,-56 72,-56 72,-52 68,-52"/>
<polygon fill="#424242" stroke="transparent" points="72,-52 72,-56 76,-56 76,-52 72,-52"/>
<polygon fill="#424242" stroke="transparent" points="152,-52 152,-56 156,-56 156,-52 152,-52"/>
<polygon fill="#424242" stroke="transparent" points="156,-52 156,-56 160,-56 160,-52 156,-52"/>
<polygon fill="#424242" stroke="transparent" points="160,-52 160,-56 164,-56 164,-52 160,-52"/>
<polygon fill="#424242" stroke="transparent" points="164,-52 164,-56 168,-56 168,-52 164,-52"/>
<polygon fill="#424242" stroke="transparent" points="168,-52 168,-56 172,-56 172,-52 168,-52"/>
<polygon fill="#424242" stroke="transparent" points="344,-52 344,-56 348,-56 348,-52 344,-52"/>
<polygon fill="#424242" stroke="transparent" points="348,-52 348,-56 352,-56 352,-52 348,-52"/>
<polygon fill="#424242" stroke="transparent" points="60,-48 60,-52 64,-52 64,-48 60,-48"/>
<polygon fill="#424242" stroke="transparent" points="64,-48 64,-52 68,-52 68,-48 64,-48"/>
<polygon fill="#424242" stroke="transparent" points="68,-48 68,-52 72,-52 72,-48 68,-48"/>
<polygon fill="#424242" stroke="transparent" points="72,-48 72,-52 76,-52 76,-48 72,-48"/>
<polygon fill="#424242" stroke="transparent" points="60,-44 60,-48 64,-48 64,-44 60,-44"/>
<polygon fill="#424242" stroke="transparent" points="64,-44 64,-48 68,-48 68,-44 64,-44"/>
<polygon fill="#424242" stroke="transparent" points="68,-44 68,-48 72,-48 72,-44 68,-44"/>
<polygon fill="#424242" stroke="transparent" points="72,-44 72,-48 76,-48 76,-44 72,-44"/>
<polygon fill="#424242" stroke="transparent" points="60,-40 60,-44 64,-44 64,-40 60,-40"/>
<polygon fill="#424242" stroke="transparent" points="64,-40 64,-44 68,-44 68,-40 64,-40"/>
<polygon fill="#424242" stroke="transparent" points="68,-40 68,-44 72,-44 72,-40 68,-40"/>
<polygon fill="#424242" stroke="transparent" points="72,-40 72,-44 76,-44 76,-40 72,-40"/>
<polygon fill="#424242" stroke="transparent" points="60,-36 60,-40 64,-40 64,-36 60,-36"/>
<polygon fill="#424242" stroke="transparent" points="64,-36 64,-40 68,-40 68,-36 64,-36"/>
<polygon fill="#424242" stroke="transparent" points="68,-36 68,-40 72,-40 72,-36 68,-36"/>
<polygon fill="#424242" stroke="transparent" points="72,-36 72,-40 76,-40 76,-36 72,-36"/>
<polygon fill="#424242" stroke="transparent" points="60,-32 60,-36 64,-36 64,-32 60,-32"/>
<polygon fill="#424242" stroke="transparent" points="64,-32 64,-36 68,-36 68,-32 64,-32"/>
<polygon fill="#424242" stroke="transparent" points="68,-32 68,-36 72,-36 72,-32 68,-32"/>
<polygon fill="#424242" stroke="transparent" points="72,-32 72,-36 76,-36 76,-32 72,-32"/>
<polygon fill="#424242" stroke="transparent" points="76,-32 76,-36 80,-36 80,-32 76,-32"/>
<polygon fill="#424242" stroke="transparent" points="80,-32 80,-36 84,-36 84,-32 80,-32"/>
<polygon fill="#424242" stroke="transparent" points="84,-32 84,-36 88,-36 88,-32 84,-32"/>
<polygon fill="#424242" stroke="transparent" points="88,-32 88,-36 92,-36 92,-32 88,-32"/>
<polygon fill="#424242" stroke="transparent" points="60,-28 60,-32 64,-32 64,-28 60,-28"/>
<polygon fill="#424242" stroke="transparent" points="64,-28 64,-32 68,-32 68,-28 64,-28"/>
<polygon fill="#424242" stroke="transparent" points="68,-28 68,-32 72,-32 72,-28 68,-28"/>
<polygon fill="#424242" stroke="transparent" points="72,-28 72,-32 76,-32 76,-28 72,-28"/>
<polygon fill="#424242" stroke="transparent" points="76,-28 76,-32 80,-32 80,-28 76,-28"/>
<polygon fill="#424242" stroke="transparent" points="80,-28 80,-32 84,-32 84,-28 80,-28"/>
<polygon fill="#424242" stroke="transparent" points="84,-28 84,-32 88,-32 88,-28 84,-28"/>
<polygon fill="#424242" stroke="transparent" points="88,-28 88,-32 92,-32 92,-28 88,-28"/>
<polygon fill="#424242" stroke="transparent" points="344,-28 344,-32 348,-32 348,-28 344,-28"/>
<polygon fill="#424242" stroke="transparent" points="348,-28 348,-32 352,-32 352,-28 348,-28"/>
<polygon fill="#424242" stroke="transparent" points="60,-24 60,-28 64,-28 64,-24 60,-24"/>
<polygon fill="#424242" stroke="transparent" points="64,-24 64,-28 68,-28 68,-24 64,-24"/>
<polygon fill="#424242" stroke="transparent" points="68,-24 68,-28 72,-28 72,-24 68,-24"/>
<polygon fill="#424242" stroke="transparent" points="72,-24 72,-28 76,-28 76,-24 72,-24"/>
<polygon fill="#424242" stroke="transparent" points="76,-24 76,-28 80,-28 80,-24 76,-24"/>
<polygon fill="#424242" stroke="transparent" points="80,-24 80,-28 84,-28 84,-24 80,-24"/>
<polygon fill="#424242" stroke="transparent" points="84,-24 84,-28 88,-28 88,-24 84,-24"/>
<polygon fill="#424242" stroke="transparent" points="88,-24 88,-28 92,-28 92,-24 88,-24"/>
<polygon fill="#424242" stroke="transparent" points="344,-24 344,-28 348,-28 348,-24 344,-24"/>
<polygon fill="#424242" stroke="transparent" points="348,-24 348,-28 352,-28 352,-24 348,-24"/>
<polygon fill="#424242" stroke="transparent" points="60,-20 60,-24 64,-24 64,-20 60,-20"/>
<polygon fill="#424242" stroke="transparent" points="64,-20 64,-24 68,-24 68,-20 64,-20"/>
<polygon fill="#424242" stroke="transparent" points="68,-20 68,-24 72,-24 72,-20 68,-20"/>
<polygon fill="#424242" stroke="transparent" points="72,-20 72,-24 76,-24 76,-20 72,-20"/>
<polygon fill="#424242" stroke="transparent" points="76,-20 76,-24 80,-24 80,-20 76,-20"/>
<polygon fill="#424242" stroke="transparent" points="80,-20 80,-24 84,-24 84,-20 80,-20"/>
<polygon fill="#424242" stroke="transparent" points="84,-20 84,-24 88,-24 88,-20 84,-20"/>
<polygon fill="#424242" stroke="transparent" points="88,-20 88,-24 92,-24 92,-20 88,-20"/>
<polygon fill="#424242" stroke="transparent" points="344,-20 344,-24 348,-24 348,-20 344,-20"/>
<polygon fill="#424242" stroke="transparent" points="348,-20 348,-24 352,-24 352,-20 348,-20"/>
<polygon fill="#424242" stroke="transparent" points="76,-16 76,-20 80,-20 80,-16 76,-16"/>
<polygon fill="#424242" stroke="transparent" points="80,-16 80,-20 84,-20 84,-16 80,-16"/>
<polygon fill="#424242" stroke="transparent" points="84,-16 84,-20 88,-20 88,-16 84,-16"/>
<polygon fill="#424242" stroke="transparent" points="88,-16 88,-20 92,-20 92,-16 88,-16"/>
<polygon fill="#424242" stroke="transparent" points="92,-16 92,-20 96,-20 96,-16 92,-16"/>
<polygon fill="#424242" stroke="transparent" points="96,-16 96,-20 100,-20 100,-16 96,-16"/>
<polygon fill="#424242" stroke="transparent" points="100,-16 100,-20 104,-20 104,-16 100,-16"/>
<polygon fill="#424242" stroke="transparent" points="104,-16 104,-20 108,-20 108,-16 104,-16"/>
<polygon fill="#424242" stroke="transparent" points="108,-16 108,-20 112,-20 112,-16 108,-16"/>
<polygon fill="#424242" stroke="transparent" points="112,-16 112,-20 116,-20 116,-16 112,-16"/>
<polygon fill="#424242" stroke="transparent" points="116,-16 116,-20 120,-20 120,-16 116,-16"/>
<polygon fill="#424242" stroke="transparent" points="120,-16 120,-20 124,-20 124,-16 120,-16"/>
<polygon fill="#424242" stroke="transparent" points="124,-16 124,-20 128,-20 128,-16 124,-16"/>
<polygon fill="#424242" stroke="transparent" points="128,-16 128,-20 132,-20 132,-16 128,-16"/>
<polygon fill="#424242" stroke="transparent" points="132,-16 132,-20 136,-20 136,-16 132,-16"/>
<polygon fill="#424242" stroke="transparent" points="136,-16 136,-20 140,-20 140,-16 136,-16"/>
<polygon fill="#424242" stroke="transparent" points="140,-16 140,-20 144,-20 144,-16 140,-16"/>
<polygon fill="#424242" stroke="transparent" points="144,-16 144,-20 148,-20 148,-16 144,-16"/>
<polygon fill="#424242" stroke="transparent" points="148,-16 148,-20 152,-20 152,-16 148,-16"/>
<polygon fill="#424242" stroke="transparent" points="76,-12 76,-16 80,-16 80,-12 76,-12"/>
<polygon fill="#424242" stroke="transparent" points="80,-12 80,-16 84,-16 84,-12 80,-12"/>
<polygon fill="#424242" stroke="transparent" points="84,-12 84,-16 88,-16 88,-12 84,-12"/>
<polygon fill="#424242" stroke="transparent" points="88,-12 88,-16 92,-16 92,-12 88,-12"/>
<polygon fill="#424242" stroke="transparent" points="92,-12 92,-16 96,-16 96,-12 92,-12"/>
<polygon fill="#424242" stroke="transparent" points="96,-12 96,-16 100,-16 100,-12 96,-12"/>
<polygon fill="#424242" stroke="transparent" points="100,-12 100,-16 104,-16 104,-12 100,-12"/>
<polygon fill="#424242" stroke="transparent" points="104,-12 104,-16 108,-16 108,-12 104,-12"/>
<polygon fill="#424242" stroke="transparent" points="108,-12 108,-16 112,-16 112,-12 108,-12"/>
<polygon fill="#424242" stroke="transparent" points="112,-12 112,-16 116,-16 116,-12 112,-12"/>
<polygon fill="#424242" stroke="transparent" points="116,-12 116,-16 120,-16 120,-12 116,-12"/>
<polygon fill="#424242" stroke="transparent" points="120,-12 120,-16 124,-16 124,-12 120,-12"/>
<polygon fill="#424242" stroke="transparent" points="124,-12 124,-16 128,-16 128,-12 124,-12"/>
<polygon fill="#424242" stroke="transparent" points="128,-12 128,-16 132,-16 132,-12 128,-12"/>
<polygon fill="#424242" stroke="transparent" points="132,-12 132,-16 136,-16 136,-12 132,-12"/>
<polygon fill="#424242" stroke="transparent" points="136,-12 136,-16 140,-16 140,-12 136,-12"/>
<polygon fill="#424242" stroke="transparent" points="140,-12 140,-16 144,-16 144,-12 140,-12"/>
<polygon fill="#424242" stroke="transparent" points="144,-12 144,-16 148,-16 148,-12 144,-12"/>
<polygon fill="#424242" stroke="transparent" points="148,-12 148,-16 152,-16 152,-12 148,-12"/>
<polygon fill="#424242" stroke="transparent" points="76,-8 76,-12 80,-12 80,-8 76,-8"/>
<polygon fill="#424242" stroke="transparent" points="80,-8 80,-12 84,-12 84,-8 80,-8"/>
<polygon fill="#424242" stroke="transparent" points="84,-8 84,-12 88,-12 88,-8 84,-8"/>
<polygon fill="#424242" stroke="transparent" points="88,-8 88,-12 92,-12 92,-8 88,-8"/>
<polygon fill="#424242" stroke="transparent" points="92,-8 92,-12 96,-12 96,-8 92,-8"/>
<polygon fill="#424242" stroke="transparent" points="96,-8 96,-12 100,-12 100,-8 96,-8"/>
<polygon fill="#424242" stroke="transparent" points="100,-8 100,-12 104,-12 104,-8 100,-8"/>
<polygon fill="#424242" stroke="transparent" points="104,-8 104,-12 108,-12 108,-8 104,-8"/>
<polygon fill="#424242" stroke="transparent" points="108,-8 108,-12 112,-12 112,-8 108,-8"/>
<polygon fill="#424242" stroke="transparent" points="112,-8 112,-12 116,-12 116,-8 112,-8"/>
<polygon fill="#424242" stroke="transparent" points="116,-8 116,-12 120,-12 120,-8 116,-8"/>
<polygon fill="#424242" stroke="transparent" points="120,-8 120,-12 124,-12 124,-8 120,-8"/>
<polygon fill="#424242" stroke="transparent" points="124,-8 124,-12 128,-12 128,-8 124,-8"/>
<polygon fill="#424242" stroke="transparent" points="128,-8 128,-12 132,-12 132,-8 128,-8"/>
<polygon fill="#424242" stroke="transparent" points="132,-8 132,-12 136,-12 136,-8 132,-8"/>
<polygon fill="#424242" stroke="transparent" points="136,-8 136,-12 140,-12 140,-8 136,-8"/>
<polygon fill="#424242" stroke="transparent" points="140,-8 140,-12 144,-12 144,-8 140,-8"/>
<polygon fill="#424242" stroke="transparent" points="144,-8 144,-12 148,-12 148,-8 144,-8"/>
<polygon fill="#424242" stroke="transparent" points="148,-8 148,-12 152,-12 152,-8 148,-8"/>
<polygon fill="#424242" stroke="transparent" points="76,-4 76,-8 80,-8 80,-4 76,-4"/>
<polygon fill="#424242" stroke="transparent" points="80,-4 80,-8 84,-8 84,-4 80,-4"/>
<polygon fill="#424242" stroke="transparent" points="84,-4 84,-8 88,-8 88,-4 84,-4"/>
<polygon fill="#424242" stroke="transparent" points="88,-4 88,-8 92,-8 92,-4 88,-4"/>
<polygon fill="#424242" stroke="transparent" points="92,-4 92,-8 96,-8 96,-4 92,-4"/>
<polygon fill="#424242" stroke="transparent" points="96,-4 96,-8 100,-8 100,-4 96,-4"/>
<polygon fill="#424242" stroke="transparent" points="100,-4 100,-8 104,-8 104,-4 100,-4"/>
<polygon fill="#424242" stroke="transparent" points="104,-4 104,-8 108,-8 108,-4 104,-4"/>
<polygon fill="#424242" stroke="transparent" points="108,-4 108,-8 112,-8 112,-4 108,-4"/>
<polygon fill="#424242" stroke="transparent" points="112,-4 112,-8 116,-8 116,-4 112,-4"/>
<polygon fill="#424242" stroke="transparent" points="116,-4 116,-8 120,-8 120,-4 116,-4"/>
<polygon fill="#424242" stroke="transparent" points="120,-4 120,-8 124,-8 124,-4 120,-4"/>
<polygon fill="#424242" stroke="transparent" points="124,-4 124,-8 128,-8 128,-4 124,-4"/>
<polygon fill="#424242" stroke="transparent" points="128,-4 128,-8 132,-8 132,-4 128,-4"/>
<polygon fill="#424242" stroke="transparent" points="132,-4 132,-8 136,-8 136,-4 132,-4"/>
<polygon fill="#424242" stroke="transparent" points="136,-4 136,-8 140,-8 140,-4 136,-4"/>
<polygon fill="#424242" stroke="transparent" points="140,-4 140,-8 144,-8 144,-4 140,-4"/>
<polygon fill="#424242" stroke="transparent" points="144,-4 144,-8 148,-8 148,-4 144,-4"/>
<polygon fill="#424242" stroke="transparent" points="148,-4 148,-8 152,-8 152,-4 148,-4"/>
</g>
</g>
</svg>
