<?xml version="1.0" encoding="UTF-8" standalone="no"?>
<!DOCTYPE svg PUBLIC "-//W3C//DTD SVG 1.1//EN"
 "http://www.w3.org/Graphics/SVG/1.1/DTD/svg11.dtd">
<!-- Generated by graphviz version 2.43.0 (0)
 -->
<!-- Title: image_avl Pages: 1 -->
<svg width="275pt" height="188pt"
 viewBox="0.00 0.00 274.69 188.00" xmlns="http://www.w3.org/2000/svg" xmlns:xlink="http://www.w3.org/1999/xlink">
<g id="graph0" class="graph" transform="scale(1 1) rotate(0) translate(4 184)">
<title>image_avl</title>
<polygon fill="white" stroke="transparent" points="-4,4 -4,-184 270.69,-184 270.69,4 -4,4"/>
<!-- node_4 -->
<g id="node1" class="node">
<title>node_4</title>
<ellipse fill="none" stroke="black" cx="85.35" cy="-162" rx="38.19" ry="18"/>
<text text-anchor="middle" x="85.35" y="-158.3" font-family="Times,serif" font-size="14.00">img_4</text>
</g>
<!-- node_2 -->
<g id="node2" class="node">
<title>node_2</title>
<ellipse fill="none" stroke="black" cx="38.35" cy="-90" rx="38.19" ry="18"/>
<text text-anchor="middle" x="38.35" y="-86.3" font-family="Times,serif" font-size="14.00">img_2</text>
</g>
<!-- node_4&#45;&gt;node_2 -->
<g id="edge1" class="edge">
<title>node_4&#45;&gt;node_2</title>
<path fill="none" stroke="black" d="M74.21,-144.41C68.47,-135.87 61.36,-125.28 54.99,-115.79"/>
<polygon fill="black" stroke="black" points="57.89,-113.82 49.4,-107.47 52.07,-117.72 57.89,-113.82"/>
</g>
<!-- node_6 -->
<g id="node3" class="node">
<title>node_6</title>
<ellipse fill="none" stroke="black" cx="133.35" cy="-90" rx="38.19" ry="18"/>
<text text-anchor="middle" x="133.35" y="-86.3" font-family="Times,serif" font-size="14.00">img_6</text>
</g>
<!-- node_4&#45;&gt;node_6 -->
<g id="edge2" class="edge">
<title>node_4&#45;&gt;node_6</title>
<path fill="none" stroke="black" d="M96.48,-144.76C102.33,-136.23 109.63,-125.58 116.19,-116.02"/>
<polygon fill="black" stroke="black" points="119.17,-117.86 121.94,-107.63 113.4,-113.9 119.17,-117.86"/>
</g>
<!-- node_1 -->
<g id="node4" class="node">
<title>node_1</title>
<ellipse fill="none" stroke="black" cx="38.35" cy="-18" rx="38.19" ry="18"/>
<text text-anchor="middle" x="38.35" y="-14.3" font-family="Times,serif" font-size="14.00">img_1</text>
</g>
<!-- node_2&#45;&gt;node_1 -->
<g id="edge3" class="edge">
<title>node_2&#45;&gt;node_1</title>
<path fill="none" stroke="black" d="M38.35,-71.7C38.35,-63.98 38.35,-54.71 38.35,-46.11"/>
<polygon fill="black" stroke="black" points="41.85,-46.1 38.35,-36.1 34.85,-46.1 41.85,-46.1"/>
</g>
<!-- node_5 -->
<g id="node5" class="node">
<title>node_5</title>
<ellipse fill="none" stroke="black" cx="133.35" cy="-18" rx="38.19" ry="18"/>
<text text-anchor="middle" x="133.35" y="-14.3" font-family="Times,serif" font-size="14.00">img_5</text>
</g>
<!-- node_6&#45;&gt;node_5 -->
<g id="edge4" class="edge">
<title>node_6&#45;&gt;node_5</title>
<path fill="none" stroke="black" d="M133.35,-71.7C133.35,-63.98 133.35,-54.71 133.35,-46.11"/>
<polygon fill="black" stroke="black" points="136.85,-46.1 133.35,-36.1 129.85,-46.1 136.85,-46.1"/>
</g>
<!-- node_7 -->
<g id="node6" class="node">
<title>node_7</title>
<ellipse fill="none" stroke="black" cx="228.35" cy="-18" rx="38.19" ry="18"/>
<text text-anchor="middle" x="228.35" y="-14.3" font-family="Times,serif" font-size="14.00">img_7</text>
</g>
<!-- node_6&#45;&gt;node_7 -->
<g id="edge5" class="edge">
<title>node_6&#45;&gt;node_7</title>
<path fill="none" stroke="black" d="M153.03,-74.5C166.79,-64.36 185.35,-50.68 200.6,-39.44"/>
<polygon fill="black" stroke="black" points="202.71,-42.24 208.69,-33.49 198.56,-36.6 202.71,-42.24"/>
</g>
</g>
</svg>
