<?xml version="1.0" encoding="UTF-8" standalone="no"?>
<!DOCTYPE svg PUBLIC "-//W3C//DTD SVG 1.1//EN"
 "http://www.w3.org/Graphics/SVG/1.1/DTD/svg11.dtd">
<!-- Generated by graphviz version 2.43.0 (0)
 -->
<!-- Title: image_tree_and_subtree Pages: 1 -->
<svg width="342pt" height="620pt"
 viewBox="0.00 0.00 342.39 620.00" xmlns="http://www.w3.org/2000/svg" xmlns:xlink="http://www.w3.org/1999/xlink">
<g id="graph0" class="graph" transform="scale(1 1) rotate(0) translate(4 616)">
<title>image_tree_and_subtree</title>
<polygon fill="white" stroke="transparent" points="-4,4 -4,-616 338.39,-616 338.39,4 -4,4"/>
<!-- img_node_3 -->
<g id="node1" class="node">
<title>img_node_3</title>
<ellipse fill="none" stroke="black" cx="85.35" cy="-594" rx="38.19" ry="18"/>
<text text-anchor="middle" x="85.35" y="-590.3" font-family="Times,serif" font-size="14.00">img_3</text>
</g>
<!-- img_node_2 -->
<g id="node2" class="node">
<title>img_node_2</title>
<ellipse fill="none" stroke="black" cx="38.35" cy="-522" rx="38.19" ry="18"/>
<text text-anchor="middle" x="38.35" y="-518.3" font-family="Times,serif" font-size="14.00">img_2</text>
</g>
<!-- img_node_3&#45;&gt;img_node_2 -->
<g id="edge1" class="edge">
<title>img_node_3&#45;&gt;img_node_2</title>
<path fill="none" stroke="black" d="M74.21,-576.41C68.47,-567.87 61.36,-557.28 54.99,-547.79"/>
<polygon fill="black" stroke="black" points="57.89,-545.82 49.4,-539.47 52.07,-549.72 57.89,-545.82"/>
</g>
<!-- img_node_5 -->
<g id="node3" class="node">
<title>img_node_5</title>
<ellipse fill="none" stroke="black" cx="133.35" cy="-522" rx="38.19" ry="18"/>
<text text-anchor="middle" x="133.35" y="-518.3" font-family="Times,serif" font-size="14.00">img_5</text>
</g>
<!-- img_node_3&#45;&gt;img_node_5 -->
<g id="edge2" class="edge">
<title>img_node_3&#45;&gt;img_node_5</title>
<path fill="none" stroke="black" d="M96.48,-576.76C102.33,-568.23 109.63,-557.58 116.19,-548.02"/>
<polygon fill="black" stroke="black" points="119.17,-549.86 121.94,-539.63 113.4,-545.9 119.17,-549.86"/>
</g>
<!-- img_node_4 -->
<g id="node4" class="node">
<title>img_node_4</title>
<ellipse fill="none" stroke="black" cx="86.35" cy="-450" rx="38.19" ry="18"/>
<text text-anchor="middle" x="86.35" y="-446.3" font-family="Times,serif" font-size="14.00">img_4</text>
</g>
<!-- img_node_5&#45;&gt;img_node_4 -->
<g id="edge3" class="edge">
<title>img_node_5&#45;&gt;img_node_4</title>
<path fill="none" stroke="black" d="M122.21,-504.41C116.47,-495.87 109.36,-485.28 102.99,-475.79"/>
<polygon fill="black" stroke="black" points="105.89,-473.82 97.4,-467.47 100.07,-477.72 105.89,-473.82"/>
</g>
<!-- img_node_6 -->
<g id="node5" class="node">
<title>img_node_6</title>
<ellipse fill="none" stroke="black" cx="181.35" cy="-450" rx="38.19" ry="18"/>
<text text-anchor="middle" x="181.35" y="-446.3" font-family="Times,serif" font-size="14.00">img_6</text>
</g>
<!-- img_node_5&#45;&gt;img_node_6 -->
<g id="edge4" class="edge">
<title>img_node_5&#45;&gt;img_node_6</title>
<path fill="none" stroke="black" d="M144.48,-504.76C150.33,-496.23 157.63,-485.58 164.19,-476.02"/>
<polygon fill="black" stroke="black" points="167.17,-477.86 169.94,-467.63 161.4,-473.9 167.17,-477.86"/>
</g>
<!-- img_node_7 -->
<g id="node6" class="node">
<title>img_node_7</title>
<ellipse fill="none" stroke="black" cx="130.35" cy="-378" rx="38.19" ry="18"/>
<text text-anchor="middle" x="130.35" y="-374.3" font-family="Times,serif" font-size="14.00">img_7</text>
</g>
<!-- img_node_6&#45;&gt;img_node_7 -->
<g id="edge5" class="edge">
<title>img_node_6&#45;&gt;img_node_7</title>
<path fill="none" stroke="black" d="M169.52,-432.76C163.15,-424.02 155.16,-413.05 148.06,-403.31"/>
<polygon fill="black" stroke="black" points="150.83,-401.17 142.11,-395.15 145.17,-405.29 150.83,-401.17"/>
</g>
<!-- layer_0 -->
<g id="node7" class="node">
<title>layer_0</title>
<ellipse fill="none" stroke="black" cx="231.35" cy="-378" rx="44.39" ry="18"/>
<text text-anchor="middle" x="231.35" y="-374.3" font-family="Times,serif" font-size="14.00">layer_0</text>
</g>
<!-- img_node_6&#45;&gt;layer_0 -->
<g id="edge6" class="edge">
<title>img_node_6&#45;&gt;layer_0</title>
<path fill="none" stroke="black" d="M192.94,-432.76C199.04,-424.23 206.65,-413.58 213.48,-404.02"/>
<polygon fill="black" stroke="black" points="216.5,-405.81 219.47,-395.63 210.81,-401.74 216.5,-405.81"/>
</g>
<!-- layer_8 -->
<g id="node8" class="node">
<title>layer_8</title>
<ellipse fill="none" stroke="black" cx="231.35" cy="-306" rx="44.39" ry="18"/>
<text text-anchor="middle" x="231.35" y="-302.3" font-family="Times,serif" font-size="14.00">layer_8</text>
</g>
<!-- layer_0&#45;&gt;layer_8 -->
<g id="edge7" class="edge">
<title>layer_0&#45;&gt;layer_8</title>
<path fill="none" stroke="black" d="M231.35,-359.7C231.35,-351.98 231.35,-342.71 231.35,-334.11"/>
<polygon fill="black" stroke="black" points="234.85,-334.1 231.35,-324.1 227.85,-334.1 234.85,-334.1"/>
</g>
<!-- layer_6 -->
<g id="node9" class="node">
<title>layer_6</title>
<ellipse fill="none" stroke="black" cx="178.35" cy="-234" rx="44.39" ry="18"/>
<text text-anchor="middle" x="178.35" y="-230.3" font-family="Times,serif" font-size="14.00">layer_6</text>
</g>
<!-- layer_8&#45;&gt;layer_6 -->
<g id="edge8" class="edge">
<title>layer_8&#45;&gt;layer_6</title>
<path fill="none" stroke="black" d="M218.79,-288.41C212.25,-279.78 204.14,-269.06 196.89,-259.5"/>
<polygon fill="black" stroke="black" points="199.64,-257.33 190.82,-251.47 194.06,-261.56 199.64,-257.33"/>
</g>
<!-- layer_9 -->
<g id="node10" class="node">
<title>layer_9</title>
<ellipse fill="none" stroke="black" cx="284.35" cy="-234" rx="44.39" ry="18"/>
<text text-anchor="middle" x="284.35" y="-230.3" font-family="Times,serif" font-size="14.00">layer_9</text>
</g>
<!-- layer_8&#45;&gt;layer_9 -->
<g id="edge9" class="edge">
<title>layer_8&#45;&gt;layer_9</title>
<path fill="none" stroke="black" d="M243.91,-288.41C250.44,-279.78 258.56,-269.06 265.8,-259.5"/>
<polygon fill="black" stroke="black" points="268.63,-261.56 271.88,-251.47 263.05,-257.33 268.63,-261.56"/>
</g>
<!-- layer_10 -->
<g id="node11" class="node">
<title>layer_10</title>
<ellipse fill="none" stroke="black" cx="284.35" cy="-162" rx="50.09" ry="18"/>
<text text-anchor="middle" x="284.35" y="-158.3" font-family="Times,serif" font-size="14.00">layer_10</text>
</g>
<!-- layer_9&#45;&gt;layer_10 -->
<g id="edge10" class="edge">
<title>layer_9&#45;&gt;layer_10</title>
<path fill="none" stroke="black" d="M284.35,-215.7C284.35,-207.98 284.35,-198.71 284.35,-190.11"/>
<polygon fill="black" stroke="black" points="287.85,-190.1 284.35,-180.1 280.85,-190.1 287.85,-190.1"/>
</g>
<!-- layer_11 -->
<g id="node12" class="node">
<title>layer_11</title>
<ellipse fill="none" stroke="black" cx="284.35" cy="-90" rx="50.09" ry="18"/>
<text text-anchor="middle" x="284.35" y="-86.3" font-family="Times,serif" font-size="14.00">layer_11</text>
</g>
<!-- layer_10&#45;&gt;layer_11 -->
<g id="edge11" class="edge">
<title>layer_10&#45;&gt;layer_11</title>
<path fill="none" stroke="black" d="M284.35,-143.7C284.35,-135.98 284.35,-126.71 284.35,-118.11"/>
<polygon fill="black" stroke="black" points="287.85,-118.1 284.35,-108.1 280.85,-118.1 287.85,-118.1"/>
</g>
<!-- layer_12 -->
<g id="node13" class="node">
<title>layer_12</title>
<ellipse fill="none" stroke="black" cx="284.35" cy="-18" rx="50.09" ry="18"/>
<text text-anchor="middle" x="284.35" y="-14.3" font-family="Times,serif" font-size="14.00">layer_12</text>
</g>
<!-- layer_11&#45;&gt;layer_12 -->
<g id="edge12" class="edge">
<title>layer_11&#45;&gt;layer_12</title>
<path fill="none" stroke="black" d="M284.35,-71.7C284.35,-63.98 284.35,-54.71 284.35,-46.11"/>
<polygon fill="black" stroke="black" points="287.85,-46.1 284.35,-36.1 280.85,-46.1 287.85,-46.1"/>
</g>
</g>
</svg>
